<?xml version="1.0" encoding="UTF-8"?>
<!DOCTYPE svg PUBLIC "-//W3C//DTD SVG 1.1//EN" "http://www.w3.org/Graphics/SVG/1.1/DTD/svg11.dtd">
<!-- Creator: CorelDRAW 2018 (64 Bit) -->
<svg xmlns="http://www.w3.org/2000/svg" xml:space="preserve" width="75.9078mm" height="18.448mm" version="1.1" style="shape-rendering:geometricPrecision; text-rendering:geometricPrecision; image-rendering:optimizeQuality; fill-rule:evenodd; clip-rule:evenodd"
viewBox="0 0 5208.83 1265.91"
 xmlns:xlink="http://www.w3.org/1999/xlink">
 <defs>
  <style type="text/css">
   <![CDATA[
    .fil2 {fill:#FEFEFE}
    .fil0 {fill:#ED3237}
    .fil1 {fill:#008F4F}
   ]]>
  </style>
 </defs>
 <g id="Capa_x0020_1">
  <metadata id="CorelCorpID_0Corel-Layer"/>
  <g id="_2977650252528">
   <path class="fil0" d="M373.86 374.46c4.16,0.39 8.34,0.8 12.51,1.15 0.13,-6.16 0.34,-12.31 0.63,-18.47 -4.38,5.78 -8.76,11.55 -13.14,17.32zm619.59 -71.84l13.76 -61.81 19.78 7.62 0 -13.41 136.12 -30.12 -7.33 53.24 16.78 0 13.01 20.02c4.34,6.68 8.22,14.05 11.95,21.07 1.79,3.36 3.35,6.81 4.67,10.31 2.52,-2.7 5.11,-5.3 7.8,-7.77 15.26,-14.05 33.03,-26.36 53.37,-32.51 17.79,-5.39 36.36,-6.93 54.64,-2.87 8.36,1.85 16.72,3.73 25.04,5.71l2.15 0.51 2.09 0.71c7.93,2.71 15.75,5.74 23.48,8.91 9,3.69 17.8,7.86 26.3,12.53 7.57,4.16 15.22,8.17 22.91,12.13l25.05 12.86 -1.68 27.26c-0.68,10.92 -2.3,21.79 -4.58,32.51 -1.36,7.38 -2.84,14.73 -4.4,22.08l18.8 25.68c6.22,8.49 12.34,17.47 17.11,26.8 4.47,8.76 7.86,18.05 9.44,27.72 1.73,10.65 1.14,21.43 -1.84,31.82 -1.95,6.83 -4.36,13.59 -6.86,20.25l-0.48 1.29 -0.57 1.25c-7.14,15.78 -15.35,31.21 -25.01,45.71 -8.47,12.74 -18.4,24.47 -29.67,35.01 -16.3,15.25 -36.67,24.38 -59.56,24.38 -8.39,0 -16.7,-1.39 -24.77,-3.58 -10.44,-2.82 -20.11,-7.62 -28.85,-13.76 -2.88,-2.02 -5.61,-4.2 -8.21,-6.51 -16.81,8.04 -35.55,11.12 -54.42,11.12 -22.32,0 -44.07,-4.85 -62.33,-17.22 -2.25,2.18 -4.56,4.31 -6.92,6.4 -16.54,14.61 -36.76,23.54 -59.4,23.54 -23.8,0 -45.95,-7.91 -61.74,-25.42 -1.34,-1.49 -2.63,-3.01 -3.86,-4.56l-91.55 3.04c-23.82,18.05 -51.92,26.93 -82.34,26.93 -23.98,0 -47.22,-5.59 -66.67,-19.51 -15.88,12.53 -34.91,19.51 -55.79,19.51 -22.34,0 -43.57,-6.48 -59.73,-21.79 -0.05,-0.05 -0.12,-0.1 -0.16,-0.15l-5.02 28.3 -37.38 0c-2.07,0 -4.13,0 -6.2,0 -7.77,0 -15.55,-0.96 -23.17,-2.45 -9.88,-1.93 -19.36,-5.35 -28.34,-9.75 -1.88,-0.92 -3.71,-1.91 -5.48,-2.96 -0.78,0.84 -1.59,1.65 -2.42,2.46l-0.58 0.56c-12.48,11.62 -28.54,17.94 -45.91,17.94 -8.82,0 -17.39,-1.76 -25.55,-4.76 -2.53,0.32 -5.08,0.52 -7.64,0.52 -12.88,0 -25.18,-5.06 -36.68,-10.18 -14.7,-6.54 -28.54,-15.53 -36.86,-29.29l-0.46 -0.77c-10.06,-17.46 -16.33,-39.29 -21.05,-58.65 -2.29,-9.42 -4.6,-17.9 -6.72,-26.32 -34.06,0.46 -68.13,1.45 -102.19,1.45 -8.76,0 -17.53,-0.14 -26.29,-0.27 -1.69,-0.03 -3.38,-0.05 -5.08,-0.08l-94.34 109.46 -93.63 24.9c-25.97,6.9 -54.91,6.75 -70.95,-18.6 -11.82,-18.7 -7.56,-39.3 4.01,-56.58 5.81,-8.68 13.13,-16.85 20.33,-24.48 13.24,-14.05 27.3,-27.53 41.19,-41.07 -3.9,-1.47 -7.71,-3.2 -11.38,-5.25 -20.84,-11.64 -33.05,-31.52 -33.05,-54.75 0,-25.68 18,-44.76 38,-59.31 4.93,-3.58 10.03,-7.14 14.78,-10.92l0.5 -0.39c1,-0.8 2,-1.75 2.93,-2.63 17.33,-16.18 39.24,-24.75 63.4,-24.75 7.93,0 17.42,1.22 25.36,1.87 5.42,0.45 10.84,0.84 16.28,1.15 73.78,-86.78 147.81,-173.67 223.43,-258.96 20.52,-23.14 41.22,-46.43 62.67,-68.77 15.32,-15.96 32.77,-36.22 57.44,-36.22 22.01,0 40.55,11.31 52.17,29 8.84,13.46 12.91,28.77 12.91,44.62 0,11.64 -3.77,27.15 -6.14,38.66 -15.03,72.6 -23.43,146.45 -23.43,220.51 0,19.15 -0.05,38.37 0.37,57.52 0.01,0.55 0.02,1.1 0.03,1.65 2.99,-16.72 5.95,-33.43 8.87,-50.15 4.19,-24.02 8.31,-48.06 12.35,-72.11 3.43,-20.38 6.79,-40.78 10.01,-61.2 2.14,-13.61 4.27,-27.27 6.77,-40.82 2.15,-11.69 5.08,-24.07 10.13,-34.95 4.67,-10.05 10.8,-19.4 19.5,-26.69 10.44,-8.76 23.24,-14.06 37.23,-14.06 2.07,0 4.14,0 6.2,0l5.24 0 130.47 30.12 -34.77 47.6c-1.3,3.91 -2.35,8.41 -3.32,12.15 -4.1,15.87 -7.75,31.88 -11.28,47.87 -4.53,20.5 -8.9,41.05 -13.18,61.6 17.94,1.93 34.56,8.66 47.81,21.19 4.46,4.22 8.42,8.8 11.9,13.66 2.89,-3.48 5.92,-6.81 9.1,-9.93 14.6,-14.33 31.72,-26.84 51.6,-33.48 17.92,-5.98 36.87,-7.77 55.47,-3.65 8.34,1.85 16.68,3.73 25,5.69l1.67 0.39 1.63 0.52c10.9,3.45 21.38,8.44 31.28,13.98 1.67,0.93 3.31,1.91 4.91,2.92z"/>
   <path class="fil0" d="M899 1133.15c-3.96,2.89 -8.02,5.67 -12.17,8.33 -21,13.46 -44.6,20.82 -69.86,20.82 -38.21,0 -74.44,-10.9 -100.06,-39.28 -21.68,-24.02 -33.42,-53.09 -37.21,-84.54 -3.81,-31.61 -0.72,-63.57 6.58,-94.51 7.56,-31.99 19.44,-62.75 36.01,-91.44 15.7,-27.17 35.3,-52.04 59.54,-72.7 25.71,-21.91 56.38,-35.32 91.1,-35.32 15.81,0 30.92,3.25 43.94,10.25l2.3 -12.29 149.57 31.28c5.91,-1.25 11.99,-1.91 18.23,-1.91 23.41,0 45.33,7.24 62.16,23.17 13.47,12.75 22.71,28.43 28.19,45.77 5,15.84 7.25,32.29 7.25,48.84 0,0.76 0,1.52 -0.01,2.29l22.37 36.77c5.36,8.82 10.7,17.89 15.2,27.15 4.55,9.35 7.97,19.24 9.22,29.53 1.34,11.14 -0.03,22.44 -3.49,33.12 -2.53,7.77 -4.77,15.49 -7.57,23.21 -6.75,18.6 -15.49,36.37 -25.95,53.29 -9.45,15.28 -21.16,29.03 -34.77,41.06 -18.27,16.13 -40.62,25.34 -65.48,25.34 -23.89,0 -46.63,-6.8 -63.93,-23.17 -2.35,-2.24 -4.58,-4.56 -6.68,-6.96l-3.66 30.12 -39.42 0c-4.44,0 -8.87,0 -13.32,0 -16.94,0 -33.01,-4.84 -47.65,-12.86 -7.68,-4.19 -14.45,-9.42 -20.42,-15.38z"/>
   <path class="fil0" d="M1732.4 917.27c9.04,-25.6 14.88,-54.22 18.58,-75.77 0.99,-5.77 0.3,-9.55 -2.97,-14.51 -3.88,-5.89 -8.04,-11.65 -12.43,-17.26l-2.6 50.26c-0.93,17.94 -1.13,35.91 -0.68,53.86 0.03,1.14 0.06,2.28 0.1,3.41zm1355.16 -2.04l-32.09 -15.25c-0.03,0.11 -0.05,0.22 -0.08,0.34 -2.72,11.43 -8.09,39.96 -6.99,58.55 12.32,-11.03 23.32,-23.41 33.44,-36.32 1.9,-2.44 3.82,-4.88 5.72,-7.32zm-1066.63 -238.84c9.57,-13.96 20.09,-27.04 31.73,-38.56l-31.87 -2.42c-10.24,-0.77 -20.37,-2.12 -30.32,-4.07 1.02,1.27 2.02,2.54 3.03,3.82 10.27,13.09 19.42,26.86 27.43,41.23zm-67.64 442.81c-1.39,2.08 -2.79,4.15 -4.21,6.21 -28.5,41.32 -65.53,74.68 -110.58,98.75 -49.53,26.47 -105.37,36.44 -161.57,36.44 -65.92,0 -121.01,-27.77 -158.92,-79.61 -36.84,-50.38 -53.21,-113.22 -60.25,-173.65 -4.99,-42.82 0.47,-86.24 27,-122.16 19.1,-25.86 42.85,-47.74 71.91,-63 30.54,-16.04 64.18,-25.3 98.48,-30.16l57.98 -8.2c-1.35,-1.43 -2.71,-2.83 -4.08,-4.23 -19.74,-20.26 -39.64,-40.38 -59.62,-60.41 -25.8,-25.84 -47.46,-54.9 -64.72,-86.65 -19.43,-35.74 -29.95,-74.62 -33.5,-114.71 -4.38,-49.48 8.07,-99.44 26.71,-145.26 34.76,-85.45 82.8,-176.37 151.86,-241.04 55.99,-52.42 130.73,-107.38 213.97,-88.41l120.36 27.43c12.33,2.81 23.17,7.26 34.45,12.61 16,7.58 29.65,18.61 40.62,32.11 12.2,15.02 19.7,32.61 23.54,51.23 4.14,20.14 2.57,40.81 -1.42,60.85 -7.06,35.45 -13.83,70.96 -20.74,106.44 -7.53,38.7 -14.61,77.49 -22.35,116.16 -8.72,43.59 -17.37,87.2 -24.96,131l-4.52 26.06c17.41,-12.63 36.41,-23.15 57.02,-30.04 31.35,-10.47 64.46,-13.74 97,-6.54 16.76,3.71 33.82,6.98 50.35,11.54 20.87,5.76 40.54,15.7 59.23,26.15 26.24,14.67 47.74,35.11 64.91,59.06 4.12,5.76 7.91,11.73 11.36,17.86 16.86,-27.62 36.52,-54.11 59.45,-75.24 27.32,-25.17 59.29,-47.55 95.71,-58.59 31.22,-9.46 63.8,-12.29 95.9,-5.17 16.96,3.77 34.29,6.94 50.97,11.73 16.26,4.68 31.77,11.37 47.35,17.76 16.65,6.83 32.92,14.55 48.65,23.19 14.65,8.04 29.45,15.83 44.33,23.46l38.51 19.74 -0.38 6.2c13.9,-15.59 28.97,-30.23 45.29,-43.72 42.47,-35.1 92.59,-56.96 149.11,-56.96 20.13,0 38.08,3.68 53.78,10.41 1.05,-6.23 2.1,-12.45 3.14,-18.68 6.58,-39.13 13.04,-78.3 19.22,-117.5 4.08,-25.94 8.13,-52 12.9,-77.84 3.88,-21.07 9.15,-43.7 18.25,-63.29 7.91,-17.03 18.27,-33.12 33,-45.48 16.94,-14.23 37.58,-22.99 60.1,-22.99 10.25,-0.25 17.47,-0.61 27.97,1.81l216.45 49.98 -54.11 73.73c-2.97,8.29 -5.35,18.61 -7.42,26.61 -7.91,30.6 -14.96,61.48 -21.77,92.32 -9.41,42.61 -18.47,85.3 -27.32,128.01 -0.6,2.88 -1.2,5.75 -1.79,8.63 37.58,0.2 73.04,11.38 100.19,37.08 17.44,16.51 30.47,36.05 39.53,57.56 17.22,-28.61 37.42,-56.17 61.12,-78 27.33,-25.17 59.29,-47.55 95.71,-58.59 31.22,-9.46 63.8,-12.28 95.88,-5.17 16.97,3.76 34.29,6.94 50.97,11.73 16.27,4.67 31.8,11.37 47.39,17.77 16.65,6.83 32.92,14.54 48.65,23.18 14.64,8.04 29.44,15.83 44.33,23.46l38.51 19.75 -2.6 41.91c-1.26,20.26 -4.54,40.4 -8.54,60.31 -3.27,16.28 -6.39,32.57 -9.84,48.81l40.29 55.12c11.37,15.56 22.69,32.09 31.42,49.19 7.83,15.32 13.82,31.59 16.56,48.49 2.94,18.14 1.95,36.45 -3.12,54.14 -3.97,13.83 -8.15,27.01 -13.84,40.31 -12.95,30.26 -28.9,59.05 -47.22,86.59 -15.55,23.34 -33.77,44.9 -54.44,64.23 -28.07,26.25 -62.95,42.15 -102.41,42.15 -14.51,0 -28.95,-2.48 -42.89,-6.24 -18.1,-4.89 -34.79,-13.24 -49.95,-23.87 -8.22,-5.77 -15.78,-12.3 -22.75,-19.39 -32.44,18.42 -69.84,25.1 -107.32,25.1 -40.37,0 -79.88,-8.78 -112.55,-31.99 -4.93,5.13 -10.05,10.09 -15.34,14.9 -29.17,26.5 -65.18,41.49 -105.41,41.49 -38.37,0 -74.93,-10.81 -102.71,-37.12 -8.46,-8.02 -15.89,-16.75 -22.33,-26.09 -1.41,6.98 -2.81,13.95 -4.05,20.95l-9.64 54.45 -57.41 0c-3.97,0 -7.93,0 -11.9,0 -13.75,0 -27.55,-1.73 -41.01,-4.36 -17.46,-3.41 -34.22,-9.49 -50.07,-17.26 -12.15,-5.96 -23,-13.57 -32.57,-22.49 -0.47,0.32 -0.94,0.64 -1.41,0.96 -32.59,22.05 -69.56,35.53 -109.71,35.53l-10.41 0c-51.8,0 -101.55,-12.2 -140.32,-43.54 -27.46,24.36 -61.08,38.98 -98.92,38.98 -14.51,0 -28.96,-2.48 -42.9,-6.24 -18.1,-4.9 -34.8,-13.24 -49.96,-23.88 -8.21,-5.77 -15.78,-12.3 -22.73,-19.38 -32.43,18.42 -69.84,25.1 -107.31,25.1 -42.53,0 -84.11,-9.74 -117.75,-35.85 -23.54,-18.27 -41.65,-40.9 -54.24,-66.89 -20.66,28.18 -45.12,53.43 -72.98,75.56 -43.62,34.65 -95.38,51.58 -151.8,51.58 -42.37,0 -83.57,-9.67 -117.94,-34.35 -28.96,-20.79 -50.79,-47.72 -64.86,-79.62z"/>
   <path class="fil0" d="M4888.19 912.04c-14.41,-7.04 -26.39,-18.42 -34.78,-32.58 -9.21,-15.54 -13.22,-32.64 -13.22,-50.43 0,-11.79 4.33,-28.02 6.94,-39.72 5.35,-23.82 10.88,-47.62 16.42,-71.4 14.42,-61.8 28.1,-123.76 40.25,-186.02 5.19,-26.51 9.18,-53.23 12.4,-80.03 0.36,-3.05 0.72,-6.21 1.07,-9.42 -4.98,19.32 -10.26,37.89 -15.09,54.7 -29.3,101.88 -65.6,203.33 -102.04,303.03 -11.72,32.07 -35.26,58.08 -62.28,79.3 -17.6,13.82 -37.72,28.85 -59.95,36.07 29.65,10.84 51.45,35.13 63.41,65.77 7.48,19.18 11.55,40.97 13.69,62.83 8.91,-22.75 22.37,-44.06 37.34,-63.42 24.35,-31.44 55.99,-60.08 95.83,-68.7zm-480.99 3.51c29.64,10.84 51.44,35.13 63.41,65.77 7.47,19.18 11.55,40.98 13.69,62.84 8.92,-22.75 22.37,-44.07 37.35,-63.43 24.33,-31.44 55.99,-60.08 95.84,-68.7 -14.42,-7.03 -26.42,-18.42 -34.81,-32.59 -9.19,-15.54 -13.21,-32.62 -13.21,-50.42 0,-11.8 4.34,-28.03 6.96,-39.73 5.35,-23.81 10.89,-47.6 16.43,-71.39 14.41,-61.8 28.09,-123.76 40.25,-186.01 5.17,-26.51 9.17,-53.23 12.38,-80.01 0.38,-3.07 0.73,-6.24 1.08,-9.46 -4.99,19.32 -10.27,37.9 -15.11,54.72 -29.29,101.88 -65.58,203.34 -102.02,303.03 -11.72,32.07 -35.25,58.08 -62.27,79.3 -17.59,13.82 -37.72,28.85 -59.96,36.07zm-60.43 -3.51c-14.41,-7.03 -26.39,-18.41 -34.78,-32.55 -9.21,-15.55 -13.23,-32.65 -13.23,-50.46 0,-11.79 4.33,-28.02 6.95,-39.72 5.34,-23.82 10.88,-47.62 16.41,-71.4 14.42,-61.8 28.1,-123.76 40.26,-186.02 5.18,-26.51 9.18,-53.23 12.4,-80.03 1.94,-16.15 3.46,-34.89 6.69,-50.79 6.9,-33.89 28.66,-62.23 54.13,-85.62 1.08,-1.15 2.15,-2.3 3.29,-3.43 12.21,-12.02 24.25,-24.17 36.1,-36.52 26.51,-27.63 61.07,-64.24 103.23,-64.24 32.57,0 60.94,16.54 76.18,44.23 9.78,17.77 12.99,37.88 12.99,57.79 0,18.48 -2.16,38.72 -5.63,59.49 10.36,-21.73 26.54,-40.78 44.58,-57.35 1.08,-1.14 2.14,-2.28 3.27,-3.4 12.2,-12.02 24.24,-24.17 36.1,-36.52 26.51,-27.63 61.06,-64.24 103.23,-64.24 32.55,0 60.89,16.52 76.13,44.18 9.81,17.79 13.03,37.91 13.03,57.83 0,18.47 -2.17,38.69 -5.63,59.43 10.35,-21.69 26.5,-40.7 44.51,-57.24 1.1,-1.17 2.18,-2.33 3.34,-3.47 12.19,-12.01 24.24,-24.16 36.07,-36.5 26.53,-27.63 61.07,-64.24 103.23,-64.24 32.55,0 60.91,16.52 76.15,44.18 9.81,17.79 13.02,37.91 13.02,57.83 0,56.56 -20.29,129.47 -35.94,183.86 -29.3,101.88 -65.59,203.33 -102.02,303.03 -11.73,32.07 -35.26,58.08 -62.29,79.3 -17.59,13.82 -37.72,28.85 -59.96,36.07 29.64,10.84 51.44,35.13 63.4,65.77 13.48,34.54 15.89,77.59 15.89,114.21 0,47.46 -29.69,84.28 -67.74,111.32 -1.43,1.02 -2.94,2.06 -4.41,3.12 -0.65,0.87 -1.32,1.74 -1.99,2.59 -21.49,27.26 -48.53,53.33 -86.9,53.33 -46.07,0 -73.01,-36.48 -92.94,-71.03 -10.4,-18.02 -19.52,-37.43 -24.91,-57.61 -11.36,27.97 -33.5,51.08 -59.57,69.59 -1.43,1.02 -2.93,2.07 -4.4,3.14 -0.66,0.86 -1.32,1.73 -1.99,2.58 -21.49,27.26 -48.54,53.33 -86.89,53.33 -46.09,0 -73.01,-36.47 -92.95,-71.03 -10.4,-18.02 -19.52,-37.43 -24.92,-57.61 -11.36,27.97 -33.5,51.07 -59.56,69.59 -1.43,1.02 -2.92,2.06 -4.38,3.12 -0.66,0.86 -1.32,1.74 -1.99,2.58 -21.49,27.27 -48.54,53.35 -86.9,53.35 -46.09,0 -73.02,-36.46 -92.96,-71.03 -16.7,-28.94 -30.08,-61.46 -30.08,-95.03 0,-43.96 21.83,-84.65 48.51,-119.12 24.35,-31.45 55.99,-60.08 95.84,-68.7z"/>
   <path class="fil1" d="M2569.84 980.97c6,-9.62 11.52,-19.54 16.64,-29.26 13.98,-26.56 25.81,-54.32 36.21,-82.34 10.7,-28.83 20.57,-58 28.94,-87.55 2.88,-10.15 5.65,-20.55 8.08,-31.03 -5.48,8.28 -10.47,16.83 -15,25.14 -14.31,26.22 -26.7,53.49 -37.74,81.13 -11.07,27.71 -20.87,56.01 -28.52,84.77 -3.37,12.68 -6.44,25.88 -8.61,39.14zm1148.67 0.03c6,-9.63 11.54,-19.56 16.65,-29.29 13.98,-26.57 25.8,-54.33 36.22,-82.36 10.7,-28.82 20.54,-58 28.92,-87.54 2.88,-10.15 5.66,-20.54 8.09,-31.02 -5.48,8.29 -10.47,16.84 -15,25.13 -14.31,26.22 -26.7,53.49 -37.73,81.12 -11.07,27.72 -20.87,56.01 -28.53,84.79 -3.36,12.69 -6.45,25.9 -8.63,39.17zm-1552.4 22.03c3.44,-7.59 6.56,-15.25 9.41,-22.7 10.53,-27.56 19.77,-55.62 28.2,-83.84 8.48,-28.37 15.63,-57.19 20.7,-86.32 1.57,-9.04 3.07,-18.2 4.37,-27.41 -2.59,5.17 -4.99,10.32 -7.22,15.29 -11.77,26.23 -21.46,53.41 -29.78,80.81 -8.52,28.05 -15.64,56.56 -20.65,85.39 -2.19,12.6 -4.05,25.69 -5.02,38.77zm965.19 -103.53l-97.15 -46.14c-4.64,12.87 -8.67,25.92 -11.93,39.65 -5.57,23.42 -13.53,69.76 -1.87,92.61 3.07,6.05 8.1,15.22 16.27,15.22 11.35,0 22.05,-6.95 30.23,-13.9 15.71,-13.35 29.55,-28.61 42.15,-44.71 6.49,-8.29 12.99,-16.59 19.02,-25.19 1.1,-5.84 2.18,-11.69 3.28,-17.54zm-1166.13 125.75c-12.02,28.66 -26.66,56.28 -44.43,82.05 -25.49,36.96 -58.46,66.71 -98.76,88.25 -44.37,23.71 -94.74,32.32 -145.05,32.32 -54.85,0 -99.57,-22.6 -131.11,-65.72 -33.35,-45.61 -47.9,-103.82 -54.27,-158.47 -4.03,-34.54 -0.56,-70.48 20.92,-99.58 16.08,-21.79 35.99,-40.36 60.48,-53.22 26.97,-14.16 56.86,-22.23 87.13,-26.51l40.97 -5.8 -2.05 39.8c-0.97,18.74 -1.19,37.51 -0.71,56.27 0.42,16.74 1.59,33.58 4.11,50.14 1.8,11.78 4.05,23.93 7.51,35.4 12.73,-0.93 22.8,-13.22 29.88,-22.86 25.13,-34.18 37.76,-89.91 44.73,-130.5 2.35,-13.68 -0.07,-25.62 -7.8,-37.36 -12.34,-18.73 -27.13,-36.14 -42.88,-52.3 -19.84,-20.34 -39.83,-40.56 -59.91,-60.68 -23.56,-23.61 -43.33,-50.15 -59.1,-79.15 -17.32,-31.87 -26.58,-66.6 -29.75,-102.33 -3.93,-44.27 7.83,-89.59 24.5,-130.55 32.86,-80.78 78.58,-168.35 143.91,-229.51 46.53,-43.56 112.48,-95.96 182.4,-80.03l120.37 27.43c9.73,2.22 18.34,5.89 27.24,10.11 11.41,5.41 21.05,13.29 28.86,22.91 8.89,10.94 14.18,23.89 16.98,37.43 3.25,15.84 1.67,32.59 -1.46,48.33 -7.07,35.5 -13.85,71.06 -20.76,106.57 -7.53,38.65 -14.6,77.38 -22.32,116.01 -8.78,43.86 -17.48,87.74 -25.12,131.81l-5.13 29.6 -31.09 -2.37c-29.37,-2.22 -57.57,-9.79 -83.01,-24.28 -22.69,-12.92 -40.68,-30.77 -54.2,-52.49 -18.69,-30.01 -17.96,-66.5 -10.8,-99.68l27.74 -128.6c-1.98,2.85 -3.89,5.72 -5.74,8.55 -11.71,18.02 -22.06,37.06 -31.61,56.23 -10.89,21.87 -20.85,44.18 -28.88,67.18 -6.29,17.99 -10.22,38.96 -4.71,57.62 5.57,18.88 15.06,36.16 27.24,51.86 14.73,19.01 31.26,36.7 49.03,53.11 20.98,19.35 40.31,40.27 57.83,62.58 18.65,23.76 33.13,50.04 43.53,78.08 2.55,6.89 4.6,13.88 6.19,20.94 15.74,-33.71 35.84,-68.59 61.56,-93.83 22.29,-21.88 48.89,-42.06 79.28,-52.21 25.27,-8.44 51.94,-11.37 78.21,-5.55 16.15,3.57 32.68,6.7 48.59,11.1 17.99,4.96 35.41,13.97 51.53,22.98 21.87,12.24 39.69,29.39 54,49.35 16.81,23.47 26.78,51.24 32.79,78.96 0.27,1.26 0.53,2.53 0.78,3.79 2.55,-5.84 5.22,-11.6 8.03,-17.28 20.09,-40.6 46.71,-86.44 80.75,-117.8 23.37,-21.53 51.2,-41.55 82.41,-51.01 25.38,-7.69 51.91,-10.29 78.04,-4.48 16.22,3.6 32.95,6.62 48.89,11.19 14.93,4.3 29.42,10.62 43.74,16.5 15.45,6.33 30.55,13.48 45.13,21.5 14.94,8.21 30.03,16.15 45.21,23.93l19.25 9.87 -1.29 20.95c-1.16,18.82 -4.28,37.58 -7.99,56.08 -3.71,18.49 -7.23,37 -11.27,55.44 -0.8,3.62 -1.59,7.25 -2.39,10.87 9.24,-21.4 19.75,-42.29 31.57,-62.58 24.61,-42.26 55.42,-80.82 93.7,-112.48 36.23,-29.94 78.64,-49.05 126.93,-49.05 36.25,0 61.81,15.43 77.64,39.92 4.33,-25.22 8.62,-50.45 12.87,-75.69 6.59,-39.24 13.07,-78.51 19.26,-117.81 4.04,-25.67 8.04,-51.47 12.76,-77.03 3.37,-18.26 7.93,-38.67 15.82,-55.65 5.81,-12.52 13.45,-25.07 24.3,-34.17 10.7,-8.98 23.53,-14.92 37.96,-14.92 7.29,0 12.13,-0.87 19.82,0.91l167.66 38.71 -27.81 37.9c-4.05,8.93 -7.65,24.85 -10.02,33.99 -8,30.96 -15.14,62.22 -22.03,93.42 -9.44,42.74 -18.52,85.56 -27.41,128.4 -3.91,18.84 -7.77,37.67 -11.58,56.53 13.1,-5.61 27.18,-8.77 42.13,-8.77 28.93,0 56.4,7.85 77.35,27.69 17.74,16.81 29.71,37.47 36.92,60.3 7.29,23.08 10.16,47.12 9.63,71.2 -0.12,5.57 -0.34,11.13 -0.64,16.7 6.37,-17.12 13.31,-34.23 21.38,-50.53 20.09,-40.6 46.7,-86.44 80.74,-117.8 23.38,-21.53 51.2,-41.55 82.41,-51.01 25.38,-7.69 51.91,-10.29 78.03,-4.49 16.22,3.6 32.95,6.63 48.89,11.2 14.93,4.29 29.43,10.62 43.76,16.5 15.45,6.34 30.54,13.49 45.12,21.5 14.94,8.21 30.02,16.15 45.19,23.93l19.26 9.87 -1.3 20.96c-1.17,18.82 -4.28,37.57 -7.99,56.06 -3.7,18.49 -7.23,36.99 -11.26,55.43 -4.56,20.76 -9.07,41.52 -14.38,62.12 -3.16,12.24 -7.11,27.37 -10.46,42.89 4.66,-8.77 9.17,-17.62 13.52,-26.56l24.88 -51.09 33.73 46.15c10.33,14.13 20.8,29.27 28.72,44.8 6.31,12.33 11.29,25.49 13.49,39.11 2.19,13.57 1.49,27.18 -2.31,40.41 -3.59,12.53 -7.33,24.48 -12.5,36.54 -12.18,28.46 -27.18,55.5 -44.42,81.4 -14.14,21.24 -30.71,40.83 -49.5,58.41 -21.69,20.29 -48.15,32.89 -78.7,32.89 -11.35,0 -22.79,-2.09 -33.69,-5.02 -14.18,-3.83 -27.24,-10.48 -39.09,-18.8 -13.66,-9.59 -25.07,-21.91 -34.66,-35.24 -0.56,-0.77 -1.1,-1.54 -1.63,-2.31 -5.89,4.75 -12.11,9.2 -18.64,13.31 -28.17,17.78 -61.99,23.66 -95.19,23.66 -34.57,0 -68.97,-7.32 -96.39,-28.59 -7.16,-5.56 -13.69,-11.59 -19.61,-18.07 -10.46,13.84 -22.25,26.7 -35.24,38.5 -22.83,20.75 -50.52,32.56 -82.05,32.56 -29.29,0 -57.55,-7.53 -78.84,-27.71 -17.73,-16.8 -29.69,-37.47 -36.9,-60.28 -7.38,-23.34 -10.63,-47.77 -11.14,-72.12 -0.31,-14.6 -0.07,-29.21 0.56,-43.79 -4.06,17.5 -7.7,35.09 -11.17,52.38 -3.66,18.27 -7.03,36.57 -10.27,54.91 -2.57,14.57 -4.77,29.23 -7.49,43.77 -2.36,12.61 -5.13,25.17 -7.36,37.8l-4.83 27.22 -28.7 0c-3.97,0 -7.93,0 -11.9,0 -11.47,0 -23.04,-1.52 -34.25,-3.71 -14.42,-2.81 -28.3,-7.92 -41.39,-14.33 -17.83,-8.76 -31.78,-22.26 -42.34,-38.5 -0.05,-0.06 -0.08,-0.12 -0.13,-0.19 -8.54,6.85 -17.4,13.35 -26.52,19.52 -26.81,18.14 -57.06,29.58 -90.15,29.58l-10.41 0c-51.79,0 -101.9,-13.48 -136.08,-52.93 -1.45,-1.67 -2.87,-3.36 -4.26,-5.09 -6.42,7.13 -13.17,13.98 -20.2,20.57 -21.68,20.28 -48.15,32.89 -78.69,32.89 -11.36,0 -22.8,-2.09 -33.71,-5.02 -14.17,-3.83 -27.24,-10.48 -39.09,-18.8 -13.66,-9.59 -25.07,-21.91 -34.67,-35.24 -0.55,-0.76 -1.09,-1.53 -1.63,-2.31 -5.89,4.76 -12.1,9.2 -18.62,13.32 -28.16,17.77 -61.98,23.65 -95.18,23.65 -34.57,0 -68.98,-7.32 -96.4,-28.59 -23.58,-18.31 -40.43,-41.78 -50.75,-69.19 -7.01,-18.61 -11.07,-38.07 -12.86,-57.76 -7.1,14.24 -14.85,28.18 -23.15,41.81 -21.94,36.01 -50,67.46 -83.47,94.04 -37.52,29.82 -81.64,44.09 -130.15,44.09 -34.91,0 -69.22,-7.47 -97.61,-27.85 -24.92,-17.9 -43.36,-41.08 -55.03,-68.83 -10.53,-25.05 -16.19,-51.62 -18.28,-78.5z"/>
   <path class="fil1" d="M1271.99 466.87c3.69,-8.22 7.07,-16.59 10.19,-25.01 2.52,-6.79 4.95,-13.61 7.25,-20.47 -2.52,5.62 -4.91,11.29 -7.19,17 -3.74,9.37 -7.21,18.87 -10.25,28.48zm-939.49 -74.25c8.72,0.57 17.41,1.23 25.98,1.88 16.41,1.25 33.23,3.51 49.67,3.51l0.3 0c-0.06,-2.22 -0.1,-4.44 -0.1,-6.65 0,-36.4 2.8,-72.77 8.3,-108.78 -28.42,36.41 -55.97,73.47 -84.15,110.04zm674.23 -47.86l16.64 -74.76 23.62 9.1c1.05,-3.92 1.88,-7.64 2.16,-10.51l0 -16.59 87.83 -19.43 -4.2 30.45c-0.65,4.71 -1.59,9.37 -2.72,14l-0.16 0.62c-0.27,0.98 -0.54,1.97 -0.8,2.96 0.43,-0.05 0.86,-0.1 1.3,-0.16l0.56 -0.06c5.67,-0.59 11.38,-0.92 17.08,-0.92l12.28 0 6.51 10.01c4,6.16 7.58,13.01 11.02,19.47 6.28,11.82 8.89,24.8 7.07,37.91l0 2.49 -0.59 2.41c-3.01,12.34 -5.26,25.16 -7.47,37.67 -0.24,1.34 -0.48,2.69 -0.72,4.04 1.93,-4.61 3.96,-9.17 6.16,-13.61 10.73,-21.69 24.87,-45.93 43.05,-62.68 12.71,-11.71 27.75,-22.45 44.7,-27.59 14,-4.24 28.61,-5.62 43.01,-2.42 8.26,1.83 16.51,3.69 24.73,5.63l1.08 0.25 1.05 0.36c7.49,2.56 14.89,5.42 22.21,8.43 8.21,3.38 16.24,7.17 24,11.43 7.75,4.26 15.59,8.38 23.46,12.42l12.52 6.44 -0.84 13.63c-0.62,10.11 -2.16,20.19 -4.17,29.44 -1.79,9.82 -3.82,19.6 -5.96,29.34 -1.24,5.63 -2.5,11.25 -3.81,16.86l5.78 -11.87 21.97 30.02c5.53,7.56 11.1,15.64 15.34,23.93 3.48,6.83 6.2,14.09 7.42,21.62 1.25,7.66 0.84,15.38 -1.3,22.86 -1.8,6.29 -4.03,12.54 -6.34,18.68l-0.24 0.64 -0.28 0.62c-6.68,14.75 -14.33,29.18 -23.35,42.73 -7.56,11.35 -16.41,21.82 -26.46,31.22 -12.14,11.36 -27.03,18.36 -44.12,18.36 -6.33,0 -12.69,-1.14 -18.77,-2.78 -7.9,-2.14 -15.19,-5.82 -21.79,-10.46 -6.66,-4.67 -12.34,-10.5 -17.23,-16.87 -2.07,1.52 -4.2,2.97 -6.4,4.36 -15.44,9.74 -33.85,13.03 -52.06,13.03 -19.07,0 -37.93,-4.13 -53.04,-15.85 -4.03,-3.12 -7.7,-6.53 -11.01,-10.18 -6.15,7.42 -12.88,14.39 -20.17,20.82 -12.42,10.97 -27.37,17.94 -44.42,17.94 -17.33,0 -33.47,-5.28 -45.02,-18.07 -6.96,-7.72 -11.89,-16.56 -15.08,-26.11l-4.39 14.16 -99.31 3.3 1.12 -2.29c-2,1.72 -4.04,3.4 -6.12,5.06 -20.36,16.17 -44.36,23.96 -70.68,23.96 -19.18,0 -37.97,-4.18 -53.54,-15.36 -5.06,-3.63 -9.62,-7.66 -13.7,-12.07 -2.98,3.23 -6.11,6.33 -9.39,9.3 -12.74,11.57 -28.25,18.14 -45.82,18.14 -16.46,0 -32.24,-4.34 -44.2,-15.67 -9.79,-9.26 -16.41,-20.65 -20.38,-33.23 -2.36,-7.46 -3.93,-15.11 -4.89,-22.84 -1.12,5.94 -2.2,11.89 -3.25,17.84 -1.32,7.45 -2.61,14.89 -3.82,22.36l-0.08 0.46 -0.1 0.46c-1.33,6.4 -2.61,12.82 -3.75,19.25l-3.15 17.72 -18.69 0c-2.07,0 -4.13,0 -6.2,0 -6.28,0 -12.61,-0.82 -18.75,-2.02 -7.91,-1.55 -15.51,-4.34 -22.69,-7.86 -8.76,-4.29 -15.86,-10.6 -21.48,-18.21 -1.61,8.19 -5.83,15.51 -12.18,21.64l-0.29 0.27c-8.35,7.77 -18.89,11.95 -30.52,11.95 -7.39,0 -14.54,-1.89 -21.24,-4.8 -0.49,-0.21 -1.02,-0.45 -1.54,-0.67 -0.18,0.03 -0.35,0.06 -0.52,0.09 -3.19,0.56 -6.65,1.14 -9.9,1.14 -8.87,0 -19.41,-4.65 -27.38,-8.2 -10.3,-4.58 -21.17,-11 -27.02,-20.67l-0.23 -0.39c-8.98,-15.56 -14.65,-35.92 -18.86,-53.17 -1.72,-7.03 -3.74,-13.93 -5.67,-20.89 -2.08,-7.46 -3.75,-14.72 -5.11,-22.06 -39.91,0.27 -79.8,1.63 -119.7,1.63 -8.65,0 -17.29,-0.14 -25.93,-0.27 -5.23,-0.08 -10.45,-0.16 -15.68,-0.27l-96.69 112.19 -86.92 23.12c-15.8,4.2 -36,6.88 -46.13,-9.14 -12.55,-19.84 8.87,-41.92 21.83,-55.67 16.74,-17.77 34.84,-34.64 52.2,-51.87 5.88,-5.83 12.02,-11.93 18.07,-18.2 -0.86,0.03 -1.72,0.06 -2.58,0.09l-0.41 0.02 -0.65 0c-14.36,0 -29.52,-2.07 -42.12,-9.11 -14.01,-7.82 -22.02,-20.68 -22.02,-36.31 0,-18.14 15.27,-32.17 29.2,-42.3 5.18,-3.77 10.53,-7.52 15.53,-11.49l0.34 -0.27c1.5,-1.15 3.03,-2.6 4.41,-3.9 13.2,-12.32 29.57,-18.73 47.97,-18.73 7.23,0 16.2,1.2 23.47,1.8 9.39,0.78 18.81,1.37 28.23,1.74 76.03,-89.45 152.28,-179.04 230.21,-266.95 20.33,-22.93 40.85,-46.01 62.1,-68.15 9.58,-9.99 25.81,-29.36 41.17,-29.36 14.38,0 25.91,7.6 33.45,19.07 6.59,10.04 9.5,21.44 9.5,33.25 0,9.85 -3.7,24.72 -5.72,34.5 -15.31,73.97 -23.85,149.22 -23.85,224.68 0,19.3 -0.05,38.67 0.38,57.97 0.12,5.3 0.26,10.62 0.47,15.92 3.57,1.85 6.94,4.04 10.03,6.64 8.37,7.03 14.06,16.41 14.06,27.32 0,10.62 -3.6,20.46 -11.03,28.35l-0.27 0.28c-2.85,2.92 -6.07,5.37 -9.57,7.38 1.1,24.11 5.06,47.93 12.75,70.84 0.26,-10.8 2.11,-21.75 4.52,-32.02l0.12 -0.48c3.16,-12.14 5.5,-24.88 7.83,-37.19 3.82,-20.21 7.55,-40.44 11.21,-60.67 4.34,-23.93 8.58,-47.87 12.76,-71.81 4.19,-24.07 8.33,-48.14 12.38,-72.23 3.44,-20.45 6.81,-40.92 10.04,-61.41 2.12,-13.42 4.21,-26.91 6.68,-40.28 1.83,-9.88 4.3,-20.8 8.56,-29.99 3.31,-7.13 7.64,-14.13 13.81,-19.31 6.4,-5.36 14.09,-8.82 22.69,-8.82 2.07,0 4.14,0 6.2,0l2.62 0 96.23 22.22 -17.86 24.46c-1.98,4.7 -3.65,12.04 -4.87,16.74 -4.16,16.1 -7.86,32.35 -11.45,48.58 -4.92,22.27 -9.65,44.59 -14.29,66.92 -1.52,7.36 -3.03,14.71 -4.54,22.08 5.15,-1.45 10.54,-2.24 16.14,-2.24 16.26,0 31.66,4.52 43.44,15.66 9.79,9.26 16.39,20.65 20.37,33.23 1.26,3.97 2.27,7.98 3.07,12.03 7.73,-15.29 17.22,-30.34 28.91,-41.81 12.12,-11.89 26.53,-22.75 43.05,-28.26 13.97,-4.67 28.71,-6.24 43.23,-3.02 8.25,1.83 16.49,3.68 24.71,5.62l0.84 0.2 0.82 0.26c9.41,2.98 18.52,7.38 27.08,12.17 11.84,6.62 21.52,15.84 29.31,26.62z"/>
   <path class="fil1" d="M902.48 1102.53c-8.69,7.77 -18.02,14.86 -27.94,21.22 -17.36,11.12 -36.7,17.24 -57.58,17.24 -31.65,0 -62.03,-8.34 -83.33,-31.94 -18.73,-20.76 -28.66,-45.87 -31.93,-73.02 -3.51,-29.2 -0.56,-58.77 6.18,-87.34 7.09,-30.03 18.22,-58.88 33.77,-85.82 14.47,-25.05 32.51,-48.04 54.86,-67.09 21.64,-18.44 47.16,-29.96 76.42,-29.96 19.78,0 38.25,6.23 50.02,22.16 3.12,4.21 5.68,8.67 7.74,13.31 0.72,-3.85 1.43,-7.7 2.15,-11.55l4.06 -21.75 132.25 27.66c5.7,-1.63 11.64,-2.5 17.82,-2.5 17.56,0 33.97,5.07 46.63,17.05 10.82,10.25 18.13,22.86 22.53,36.78 4.37,13.83 6.29,28.2 6.29,42.64 0,7.41 -0.29,14.83 -0.91,22.21l3.99 -9.08 22.32 36.68c5.02,8.26 10.05,16.76 14.26,25.42 3.53,7.24 6.3,14.99 7.27,22.96 0.99,8.17 -0.09,16.47 -2.64,24.31 -2.44,7.55 -4.62,15.05 -7.34,22.54 -6.25,17.26 -14.37,33.72 -24.08,49.43 -8.34,13.49 -18.69,25.62 -30.71,36.25 -14.16,12.5 -31.19,19.73 -50.5,19.73 -17.99,0 -35.31,-4.67 -48.39,-17.05 -10.82,-10.25 -18.14,-22.86 -22.54,-36.78 -4.49,-14.24 -6.29,-29.16 -6.29,-44.01 0,-0.95 0.01,-1.91 0.01,-2.86 -1.06,5.67 -2.09,11.34 -3.12,17 -2.08,11.47 -4.03,22.97 -6.27,34.43 -1.96,10.07 -3.86,20.26 -5.1,30.45l-2.29 18.83 -19.71 0c-4.44,0 -8.87,0 -13.32,0 -13.07,0 -25.42,-3.9 -36.71,-10.07 -11.87,-6.49 -20.92,-16.37 -27.89,-27.48z"/>
   <path class="fil1" d="M4381.07 887.17c-17.35,0 -31.2,-9.85 -39.53,-23.9 -6.27,-10.57 -8.77,-22.14 -8.77,-34.24 0,-8.65 4.26,-24.22 6.18,-32.81 5.32,-23.74 10.84,-47.44 16.36,-71.14 14.49,-62.18 28.26,-124.51 40.49,-187.13 5.33,-27.27 9.45,-54.75 12.76,-82.32 1.82,-15.24 3.23,-33.28 6.28,-48.27 5.51,-27.08 24.48,-50.2 44.83,-68.76 1.22,-1.12 2.36,-2.53 3.56,-3.71 12.43,-12.24 24.68,-24.61 36.75,-37.18 17.87,-18.61 49.75,-53.72 78.23,-53.72 19.98,0 36.77,9.85 46.12,26.82 7.06,12.84 9.04,28.13 9.04,42.48 0,53.02 -20.04,124.13 -34.71,175.14 -29.08,101.15 -65.15,201.9 -101.33,300.9 -9.55,26.14 -29.72,47.54 -51.7,64.81 -16.63,13.07 -42.13,33.04 -64.58,33.04zm541.43 0c-17.35,0 -31.21,-9.85 -39.53,-23.91 -6.27,-10.57 -8.77,-22.14 -8.77,-34.23 0,-8.65 4.26,-24.22 6.18,-32.81 5.32,-23.74 10.84,-47.45 16.37,-71.15 14.5,-62.18 28.26,-124.51 40.49,-187.13 5.32,-27.27 9.45,-54.75 12.76,-82.32 1.83,-15.25 3.24,-33.26 6.27,-48.25 5.5,-27.09 24.49,-50.22 44.84,-68.78 1.22,-1.11 2.37,-2.53 3.57,-3.71 12.42,-12.23 24.68,-24.6 36.74,-37.17 17.88,-18.62 49.74,-53.72 78.24,-53.72 19.97,0 36.75,9.83 46.1,26.79 7.08,12.85 9.06,28.14 9.06,42.5 0,53.03 -20.04,124.13 -34.71,175.14 -29.09,101.15 -65.15,201.9 -101.33,300.9 -9.55,26.14 -29.72,47.55 -51.7,64.81 -16.63,13.07 -42.14,33.04 -64.58,33.04zm8.66 299.82c-1.53,1.85 -3,3.95 -4.47,5.81 -14.23,18.05 -34.12,40.39 -59.8,40.39 -30.61,0 -50.17,-31.6 -63.21,-54.19 -13.71,-23.76 -25.82,-51.54 -25.82,-79.15 0,-36.38 19.78,-71.14 41.78,-99.58 22.22,-28.7 53.42,-58.15 93.25,-58.15 33.64,0 55.99,21.74 67.29,50.69 11.85,30.39 13.72,70.53 13.72,102.72 0,36.49 -24.97,64.42 -53.93,85 -2.79,1.98 -6.13,4.22 -8.81,6.45zm-279.38 -299.82c-17.33,0 -31.21,-9.83 -39.54,-23.91 -6.25,-10.57 -8.76,-22.14 -8.76,-34.23 0,-8.65 4.26,-24.23 6.18,-32.81 5.33,-23.74 10.85,-47.44 16.37,-71.14 14.51,-62.18 28.26,-124.51 40.5,-187.14 5.32,-27.26 9.44,-54.75 12.74,-82.3 1.83,-15.25 3.24,-33.27 6.29,-48.27 5.52,-27.08 24.48,-50.2 44.82,-68.76 1.24,-1.13 2.37,-2.53 3.58,-3.71 12.42,-12.24 24.68,-24.61 36.75,-37.18 17.88,-18.62 49.75,-53.72 78.25,-53.72 19.95,0 36.75,9.84 46.09,26.79 7.08,12.85 9.06,28.14 9.06,42.5 0,53.03 -20.04,124.13 -34.71,175.14 -29.09,101.15 -65.16,201.9 -101.33,300.9 -9.57,26.14 -29.73,47.55 -51.71,64.81 -16.63,13.07 -42.14,33.04 -64.59,33.04zm8.66 299.84c-1.52,1.84 -2.98,3.93 -4.46,5.79 -14.22,18.04 -34.13,40.39 -59.79,40.39 -30.64,0 -50.18,-31.59 -63.21,-54.19 -13.71,-23.76 -25.83,-51.54 -25.83,-79.15 0,-36.38 19.78,-71.14 41.78,-99.57 22.21,-28.71 53.43,-58.16 93.26,-58.16 33.65,0 56,21.74 67.3,50.7 11.85,30.38 13.71,70.52 13.71,102.71 0,36.49 -24.96,64.42 -53.93,85.01 -2.79,1.98 -6.15,4.23 -8.82,6.46zm-270.7 -0.02c-1.53,1.85 -2.99,3.94 -4.47,5.81 -14.22,18.05 -34.13,40.4 -59.8,40.4 -30.64,0 -50.18,-31.59 -63.23,-54.2 -13.7,-23.76 -25.82,-51.53 -25.82,-79.14 0,-36.38 19.78,-71.14 41.79,-99.58 22.22,-28.71 53.42,-58.15 93.26,-58.15 33.64,0 55.99,21.74 67.28,50.7 11.86,30.38 13.72,70.52 13.72,102.71 0,36.49 -24.96,64.42 -53.94,85.01 -2.78,1.97 -6.13,4.21 -8.8,6.44z"/>
   <path class="fil2" d="M912.12 1061.09c-4.08,4.9 -8.35,9.47 -12.54,13.95 -10.75,11.46 -23.09,21.86 -37.3,30.97 -14.21,9.11 -29.31,13.68 -45.3,13.68 -29.6,0 -51.81,-8.21 -66.61,-24.61 -14.8,-16.41 -23.68,-36.9 -26.65,-61.5 -2.96,-24.59 -1.04,-51.32 5.77,-80.17 6.81,-28.85 17.33,-55.58 31.54,-80.18 14.2,-24.6 30.93,-45.1 50.18,-61.5 19.25,-16.4 39.81,-24.6 61.73,-24.6 14.8,0 25.47,4.41 31.97,13.2 6.51,8.82 10.07,19.9 10.66,33.26 0.6,13.37 -1.48,28.24 -6.22,44.64 -4.73,16.4 -10.51,32.2 -17.31,47.38 -6.81,15.19 -14.23,28.85 -22.21,40.99 -7.99,12.15 -15.83,20.28 -22.64,25.52 -12.15,9.35 -21.46,14.73 -28.86,15.03 -7.4,0.3 -12.89,-0.14 -16.43,-1.37 1.78,11.85 5.48,20.5 11.1,25.82 5.63,5.31 12.29,7.9 19.98,7.9 10.66,0 21.47,-4.41 32.42,-13.37 10.96,-8.95 20.64,-19 29.76,-29.91 10.39,-12.43 20.65,-26.62 30.09,-43.09 4.34,-26.26 8.87,-51.23 13.43,-74.9 5.39,-27.93 10.66,-56.19 15.99,-84.73l91.48 19.13c-3.55,4.86 -7.4,16.1 -11.54,33.71 7.7,-8.5 16,-15.95 24.87,-22.32 8.88,-6.37 18.05,-9.57 27.52,-9.57 13.02,0 23.39,3.64 31.09,10.93 7.69,7.29 13.33,16.56 16.87,27.79 3.55,11.24 5.33,23.39 5.33,36.45 0,13.05 -0.99,25.04 -2.66,35.98 -0.1,0.59 -0.45,3.19 -1.34,7.74 -0.89,4.56 -1.93,9.87 -3.12,15.94 -1.18,6.07 -2.5,12.3 -3.99,18.68 -1.48,6.38 -2.52,11.69 -3.11,15.95 -1.19,8.5 -1.48,15.34 -0.89,20.5 0.59,5.17 2.39,7.99 5.33,8.66 2.37,0.54 5.78,-2.28 10.22,-8.66 4.43,-6.37 8.61,-13.87 12.87,-22.32 4.63,-9.17 9.77,-19.74 15.1,-31.89 5.92,9.72 10.36,17.61 13.32,23.69 2.96,6.08 4.74,11.55 5.32,16.4 0.6,4.86 0,10.02 -1.77,15.49 -1.77,5.47 -3.84,12.86 -7.1,21.87 -6.2,17.11 -13.94,32.18 -22.21,45.55 -7.13,11.54 -15.99,22.03 -26.65,31.44 -10.66,9.41 -22.5,14.12 -35.53,14.12 -14.21,0 -25.16,-3.64 -32.86,-10.93 -7.7,-7.29 -13.33,-16.55 -16.88,-27.78 -3.54,-11.24 -5.32,-23.85 -5.32,-37.81 0,-13.97 0.73,-27.94 1.78,-41.92 0.13,-1.81 0.43,-6.53 1.32,-14.12 0.89,-7.59 1.63,-15.64 2.22,-24.14 0.6,-8.51 0.74,-16.4 0.44,-23.69 -0.29,-7.29 -1.65,-11.16 -3.98,-11.84 -1.81,-0.53 -4.01,-0.46 -6.67,0.45 -2.66,0.91 -5.78,4.1 -9.33,9.57 -3.55,5.47 -7.4,13.97 -11.54,25.52 -4.14,11.54 -8.76,27.9 -13.33,49.19 -3.12,14.55 -5.62,28.4 -7.99,41.45 -2.37,13.06 -4.33,24.46 -6.22,34.17 -2.25,11.56 -4.14,22.18 -5.33,31.89 -0.6,0 -5.04,0 -13.32,0 -8.29,0 -16.87,-2.43 -25.76,-7.29 -8.88,-4.85 -16.58,-13.36 -23.08,-25.51 -3.45,-6.43 -5.49,-14.72 -6.11,-24.88zm-62.29 -197.43c-1.77,0 -3.85,0.77 -6.22,2.29 -2.36,1.52 -5.48,5.16 -9.33,10.93 -3.84,5.77 -8.29,14.43 -13.32,25.97 -5.02,11.54 -10.77,27.27 -16.43,47.38 -0.84,2.98 -1.03,6.08 -1.32,9.11 -0.3,3.03 -0.74,6.08 -1.34,9.11 5.32,-5.46 10.95,-12.91 16.87,-22.32 5.92,-9.41 11.63,-21.09 16.88,-35.08 6.59,-17.59 11.25,-29.92 14.2,-36.9 2.96,-6.99 2.96,-10.49 0,-10.49z"/>
   <path class="fil2" d="M4381.07 854.45c-3.73,0 -7.1,-2.52 -9.98,-7.38 -2.99,-5.05 -4.3,-10.92 -4.3,-18.03 0,-2.28 7.21,-34.56 21.72,-96.79 14.45,-62 28.33,-124.74 40.73,-188.26 5.4,-27.67 9.68,-55.91 13.12,-84.6 3.41,-28.46 5.46,-43.7 5.87,-45.74 3.31,-16.25 15.21,-33.38 34.86,-51.3 2.09,-1.91 3.49,-3.6 4.49,-4.59 9.56,-9.41 22.21,-22.02 37.4,-37.84 27.48,-28.64 45.23,-43.18 53.25,-43.18 7.25,0 12.56,3.03 16.06,9.39 3.34,6.07 5.1,15.25 5.1,27.17 0,33.05 -11.14,88.69 -33.49,166.41 -22.27,77.5 -56.12,176.99 -100.63,298.77 -6,16.42 -19.29,33.16 -41.12,50.31 -21.81,17.13 -36.22,25.66 -43.07,25.66zm541.43 0c-3.72,0 -7.1,-2.52 -9.98,-7.38 -2.99,-5.05 -4.3,-10.92 -4.3,-18.03 0,-2.28 7.21,-34.56 21.73,-96.79 14.45,-62 28.32,-124.74 40.73,-188.26 5.4,-27.67 9.68,-55.91 13.12,-84.6 3.41,-28.46 5.47,-43.7 5.87,-45.74 3.31,-16.25 15.21,-33.38 34.86,-51.3 2.09,-1.91 3.49,-3.6 4.49,-4.59 9.57,-9.41 22.21,-22.02 37.4,-37.84 27.49,-28.64 45.22,-43.18 53.26,-43.18 7.24,0 12.54,3.03 16.04,9.39 3.35,6.07 5.1,15.25 5.1,27.17 0,33.05 -11.14,88.69 -33.48,166.41 -22.29,77.5 -56.12,176.99 -100.64,298.77 -5.99,16.42 -19.29,33.16 -41.12,50.31 -21.81,17.13 -36.22,25.66 -43.07,25.66zm-55.62 346.02c-8.01,0 -19.13,-12.5 -33.47,-37.35 -14.23,-24.67 -21.54,-45.73 -21.54,-63.25 0,-23.13 11.69,-49.85 35.05,-80.04 23.22,-30.01 45.21,-44.97 65.96,-44.97 16.07,0 27.82,9.92 35.44,29.48 7.64,19.56 11.56,50.04 11.56,91.21 0,20.33 -13.45,39.71 -40.13,58.68 -6.2,4.41 -10.59,7.67 -12.74,9.66 -1.97,1.84 -4.26,5.11 -7.44,9.15 -14.44,18.32 -25.44,27.44 -32.7,27.44zm-215.1 -346.02c-3.71,0 -7.1,-2.52 -9.98,-7.38 -2.98,-5.05 -4.31,-10.92 -4.31,-18.03 0,-2.28 7.23,-34.56 21.75,-96.79 14.46,-61.98 28.32,-124.73 40.73,-188.26 5.4,-27.66 9.67,-55.91 13.1,-84.6 3.41,-28.46 5.48,-43.7 5.88,-45.74 3.32,-16.25 15.22,-33.38 34.85,-51.3 2.1,-1.91 3.51,-3.6 4.5,-4.59 9.57,-9.41 22.21,-22.02 37.41,-37.84 27.48,-28.64 45.23,-43.18 53.26,-43.18 7.23,0 12.53,3.03 16.04,9.39 3.34,6.07 5.09,15.25 5.09,27.17 0,33.05 -11.13,88.69 -33.47,166.41 -22.29,77.5 -56.13,176.99 -100.64,298.77 -6,16.42 -19.3,33.16 -41.12,50.31 -21.82,17.13 -36.22,25.66 -43.08,25.66zm-55.59 346.02c-8.04,0 -19.14,-12.5 -33.48,-37.35 -14.23,-24.67 -21.55,-45.73 -21.55,-63.25 0,-23.13 11.68,-49.85 35.05,-80.04 23.22,-30.01 45.23,-44.97 65.97,-44.97 16.07,0 27.83,9.92 35.46,29.48 7.62,19.56 11.54,50.04 11.54,91.21 0,20.33 -13.45,39.72 -40.12,58.68 -6.21,4.41 -10.59,7.67 -12.74,9.66 -1.98,1.84 -4.25,5.11 -7.44,9.15 -14.44,18.32 -25.47,27.44 -32.69,27.44zm-270.72 0c-8.03,0 -19.14,-12.5 -33.47,-37.35 -14.23,-24.67 -21.55,-45.73 -21.55,-63.25 0,-23.13 11.69,-49.85 35.05,-80.04 23.23,-30.01 45.22,-44.97 65.98,-44.97 16.06,0 27.81,9.92 35.44,29.48 7.64,19.56 11.55,50.04 11.55,91.21 0,20.33 -13.44,39.71 -40.13,58.68 -6.2,4.41 -10.58,7.67 -12.73,9.66 -1.98,1.84 -4.27,5.11 -7.44,9.15 -14.44,18.32 -25.46,27.44 -32.7,27.44z"/>
   <path class="fil2" d="M4021.84 885.7c11.89,16.27 20.57,29.73 26.01,40.4 5.45,10.67 8.92,20.58 10.4,29.73 1.48,9.15 0.99,18.04 -1.48,26.67 -2.48,8.64 -5.6,19.8 -11.15,32.77 -12.28,28.68 -26.74,53.87 -41.63,76.21 -12.85,19.32 -27.73,36.86 -44.56,52.6 -16.84,15.75 -35.17,23.63 -54.99,23.63 -6.92,0 -15.11,-1.28 -24.51,-3.81 -9.41,-2.55 -18.83,-7.12 -28.24,-13.73 -9.41,-6.6 -18.33,-15.76 -26.74,-27.43 -8.42,-11.69 -15.11,-26.16 -20.06,-43.44 -11.89,18.28 -27.5,33.53 -46.82,45.72 -19.32,12.19 -44.82,18.29 -76.53,18.29 -31.7,0 -56.7,-7.12 -75.04,-21.34 -18.31,-14.22 -31.69,-32.52 -40.13,-54.87l-0.7 -1.91c-4.76,9.19 -9.74,17.94 -14.88,26.28 -11.91,19.3 -26.5,36.85 -43.85,52.6 -17.33,15.75 -36.89,23.63 -58.7,23.63 -23.77,0 -42.11,-6.11 -54.98,-18.3 -12.87,-12.19 -22.29,-27.69 -28.22,-46.48 -5.95,-18.81 -9.19,-39.9 -9.68,-63.25 -0.49,-23.37 0.49,-46.74 2.24,-70.14 0.22,-3.03 0.75,-10.92 2.23,-23.63 1.48,-12.69 2.72,-26.16 3.71,-40.38 0.99,-14.23 1.21,-27.44 0.73,-39.63 -0.49,-12.2 -2.72,-18.8 -6.68,-19.82 -3.97,-1.01 -8.43,-0.76 -13.37,0.76 -4.95,1.51 -10.66,8.89 -17.1,22.1 -6.43,13.21 -13.87,33.28 -22.28,60.21 -8.43,26.93 -17.7,64.77 -27.49,113.57 -4.08,20.3 -7.44,38.87 -10.4,55.64 -2.97,16.77 -5.16,31.3 -7.44,43.44 -2.68,14.29 -5.45,26.93 -7.42,38.11 0,0 -3.97,0 -11.9,0 -7.92,0 -17.09,-1.02 -27.49,-3.05 -10.4,-2.03 -21.31,-5.83 -32.69,-11.43 -11.38,-5.59 -21.04,-14.49 -28.96,-26.69 -7.01,-10.79 -11.9,-24.57 -14.64,-41.33 -17.53,18.77 -37.67,35.87 -60.4,51.24 -23.29,15.76 -46.82,23.63 -70.59,23.63l-10.41 0c-49.52,0 -86.18,-13.71 -109.95,-41.15 -11.21,-12.93 -20.26,-27.44 -27.19,-43.53l-2.55 3.88c-12.72,19.41 -27.73,36.86 -44.58,52.6 -16.83,15.75 -35.16,23.63 -54.98,23.63 -6.94,0 -15.12,-1.28 -24.51,-3.81 -9.41,-2.55 -18.83,-7.12 -28.24,-13.73 -9.41,-6.6 -18.34,-15.75 -26.76,-27.43 -8.42,-11.69 -15.12,-26.16 -20.04,-43.44 -11.91,18.28 -27.51,33.53 -46.83,45.72 -19.31,12.19 -44.83,18.29 -76.53,18.29 -31.71,0 -56.71,-7.12 -75.04,-21.34 -18.32,-14.23 -31.71,-32.52 -40.13,-54.87 -8.42,-22.36 -12.38,-47.77 -11.89,-76.22 0.49,-28.46 3.47,-56.66 8.91,-84.6 5.45,-27.96 12.64,-54.37 21.55,-79.26 8.92,-24.9 17.25,-45.52 25.27,-61.73 24.68,-49.83 49.29,-85.88 73.55,-108.24 24.27,-22.35 47.31,-36.84 69.1,-43.44 21.79,-6.6 41.86,-7.88 60.18,-3.82 18.33,4.07 34.11,7.03 46.81,10.67 12.09,3.48 25.27,9.15 40.12,15.24 14.86,6.09 28.72,12.74 41.62,19.82 14.84,8.16 30.21,16.26 46.07,24.39 -1,16.26 -3.76,33.48 -7.43,51.82 -3.26,16.22 -6.7,34.56 -11.16,54.88 -4.45,20.34 -8.89,40.73 -14.11,60.98 -12.59,48.84 -19.08,84.36 -18.59,106.7 0.49,22.36 5.75,34.42 15.62,36.59 3.99,0.88 9.92,-3.81 17.83,-14.49 7.92,-10.66 15.84,-23.1 23.78,-37.34l1.19 -2.03c2.43,-14.49 5.76,-29.31 9.94,-44.45 13.39,-48.27 32.21,-93.25 56.48,-134.91 24.27,-41.66 53.01,-76.21 86.19,-103.64 33.19,-27.43 68.11,-41.16 104.76,-41.16 34.67,0 55.23,20.32 61.68,60.98 6.44,40.64 -8.18,102.14 -43.85,184.44l-80.24 -38.1c10.9,-29.48 18.83,-50.05 23.77,-61.74 4.96,-11.69 4.96,-17.54 0,-17.54 -2.96,0 -6.43,1.29 -10.4,3.82 -3.96,2.55 -9.17,8.64 -15.6,18.3 -6.44,9.65 -13.86,24.14 -22.29,43.44 -8.41,19.3 -19.41,45.29 -27.49,79.26 -12.73,53.49 -10.65,91.98 0.75,114.33 11.39,22.34 26.98,33.53 46.8,33.53 17.83,0 35.42,-7.38 52.76,-22.1 17.32,-14.74 32.64,-31.46 46.79,-49.54 7.98,-10.19 16.31,-20.81 24.09,-32.49 5.77,-30.74 12.13,-65.13 19.02,-103.17 7.92,-43.69 16.11,-89.69 24.51,-137.95 8.43,-48.27 16.35,-94.51 23.78,-138.72 7.43,-44.21 13.89,-83.59 19.32,-118.14 5.44,-34.54 9.63,-59.95 12.63,-76.21 3.93,-21.34 8.42,-37.36 13.37,-48.02 4.96,-10.67 10.16,-18.29 15.61,-22.86 5.44,-4.58 10.65,-6.86 15.6,-6.86 4.96,0 9,-0.66 11.89,0l118.88 27.45c-2.98,4.06 -7.67,18.53 -14.11,43.43 -6.44,24.9 -13.88,56.41 -22.3,94.51 -8.41,38.11 -17.57,81.05 -27.49,128.81 -9.91,47.77 -19.81,97.05 -29.72,147.86 13.88,-16.26 28.74,-30.49 44.59,-42.69 15.84,-12.19 32.18,-18.29 49.03,-18.29 22.78,0 40.62,6.11 53.49,18.29 12.88,12.21 22.3,27.7 28.24,46.5 5.94,18.79 8.65,39.13 8.16,60.98 -0.48,21.84 -2.37,41.89 -5.19,60.21 -0.16,0.99 -0.75,5.34 -2.24,12.95 -1.49,7.64 -3.22,16.52 -5.19,26.67 -1.98,10.17 -4.22,20.58 -6.7,31.26 -2.47,10.66 -4.21,19.55 -5.19,26.67 -1.98,14.22 -2.47,25.66 -1.49,34.3 0.99,8.64 4.01,13.37 8.91,14.49 3.99,0.91 9.67,-3.81 17.09,-14.49 7.43,-10.66 14.47,-23.19 21.56,-37.34 5.54,-11.05 11.68,-23.27 17.9,-36.88 5.35,-26.43 12.27,-51.49 20.74,-75.16 8.91,-24.89 17.24,-45.52 25.26,-61.73 24.67,-49.83 49.28,-85.88 73.55,-108.24 24.27,-22.35 47.31,-36.84 69.11,-43.44 21.79,-6.6 41.85,-7.88 60.17,-3.82 18.33,4.06 34.1,7.03 46.81,10.67 12.08,3.47 25.27,9.15 40.12,15.24 14.86,6.09 28.72,12.73 41.62,19.82 14.84,8.15 30.19,16.26 46.06,24.39 -1.02,16.26 -3.76,33.48 -7.43,51.82 -3.25,16.22 -6.7,34.56 -11.15,54.88 -4.46,20.33 -8.89,40.73 -14.12,60.98 -12.6,48.84 -19.07,84.36 -18.58,106.7 0.5,22.36 5.74,34.42 15.62,36.59 3.99,0.88 9.9,-3.81 17.83,-14.49 7.92,-10.66 15.69,-23.2 23.76,-37.34 8.76,-15.32 18.35,-33.03 28.24,-53.35zm-2496.47 114.33c-3.79,-32.54 0.98,-58.18 14.85,-76.97 13.88,-18.8 30.1,-33.5 49.04,-43.45 21.68,-11.38 47.05,-18.8 75.78,-22.86 -0.99,19.31 -1.24,38.86 -0.74,58.68 0.5,19.81 1.98,37.86 4.46,54.1 2.47,16.26 5.46,29.99 8.91,41.17 3.47,11.17 8.1,18 14.11,19.81 27.67,8.35 53.02,-3.3 75.8,-34.29 22.78,-31 39.33,-79.06 50.52,-144.05 3.66,-21.39 -0.25,-41.43 -12.63,-60.22 -12.38,-18.79 -27.98,-37.85 -46.81,-57.15 -18.82,-19.31 -38.89,-39.64 -60.19,-60.97 -21.3,-21.34 -39.14,-45.23 -53.5,-71.65 -14.36,-26.42 -23.04,-56.4 -26,-89.94 -2.97,-33.52 4.49,-72.14 22.28,-115.85 39.68,-97.53 84.96,-170.22 135.96,-217.98 51.02,-47.75 102.64,-82.61 150.84,-71.63l120.36 27.43c7.06,1.6 13.63,4.57 20.06,7.62 6.43,3.04 12.14,7.61 17.1,13.71 4.94,6.09 8.41,13.98 10.4,23.63 1.98,9.65 1.34,21.57 -1.5,35.82 -6.06,30.47 -12.87,66.05 -20.79,106.7 -7.93,40.66 -14.99,79.35 -22.29,115.85 -8.56,42.75 -17.35,86.89 -25.27,132.62 -26.75,-2.03 -49.31,-8.98 -68.35,-19.82 -16.64,-9.48 -30.96,-22.86 -42.35,-41.15 -11.38,-18.27 -13.7,-43.72 -6.68,-76.21l43.08 -199.69 -23.76 0c-7.93,0 -17.1,5.07 -27.5,15.24 -10.39,10.15 -21.05,23.63 -31.95,40.4 -10.89,16.76 -22.04,36.57 -33.44,59.44 -11.38,22.86 -21.88,46.39 -30.45,70.88 -10.26,29.35 -11.64,55.14 -5.19,76.99 6.44,21.84 17.34,42.68 32.69,62.5 15.36,19.8 32.94,38.87 52.76,57.16 19.82,18.29 37.89,37.86 54.23,58.69 16.35,20.83 29.23,43.94 38.63,69.35 9.42,25.4 11.12,54.88 5.22,88.41 -8.94,50.81 -20.57,98.07 -34.93,141.76 -14.36,43.68 -32.94,82.06 -55.72,115.1 -22.78,33.01 -51.77,58.94 -86.93,77.74 -35.17,18.79 -78.01,28.19 -128.54,28.19 -43.6,0 -78.02,-17.27 -103.28,-51.82 -25.26,-34.55 -41.19,-82.34 -48.29,-143.29zm2168.07 44.21c9.13,4.68 19.82,-0.25 32.7,-16 12.87,-15.74 25.99,-36.33 39.37,-61.74 13.37,-25.41 26,-54.11 37.89,-86.13 11.9,-32.03 21.79,-62 29.71,-89.94 7.93,-27.94 13.15,-51.82 15.62,-71.63 2.47,-19.82 0.95,-31.7 -5.22,-34.3 -10.7,-4.52 -23.54,1.28 -37.9,16 -14.36,14.73 -28.46,34.82 -42.33,60.22 -13.88,25.4 -27,53.62 -39.37,84.6 -12.38,31 -22.29,60.48 -29.72,88.41 -7.43,27.94 -11.67,52.34 -12.65,73.17 -0.98,20.83 3.19,32.88 11.9,37.34zm-1148.69 0c9.14,4.69 19.82,-0.25 32.7,-16 12.87,-15.74 25.99,-36.33 39.36,-61.74 13.38,-25.41 26.03,-54.12 37.91,-86.13 11.89,-32.03 21.79,-62 29.72,-89.94 7.92,-27.94 13.14,-51.82 15.6,-71.63 2.46,-19.82 0.96,-31.7 -5.22,-34.3 -10.69,-4.52 -23.53,1.28 -37.88,16 -14.37,14.73 -28.49,34.81 -42.36,60.22 -13.87,25.4 -26.99,53.62 -39.37,84.6 -12.39,31 -22.29,60.48 -29.73,88.41 -7.42,27.94 -11.64,52.34 -12.63,73.17 -0.99,20.83 3.18,32.88 11.88,37.34zm-157.52 -170.73c-2.94,17.27 -9.9,42.18 -20.8,74.69 -10.9,32.52 -26.25,65.03 -46.06,97.56 -19.81,32.51 -45.08,60.97 -75.78,85.36 -30.71,24.39 -66.87,36.59 -108.49,36.59 -31.7,0 -57.45,-7.13 -77.27,-21.35 -19.81,-14.23 -34.44,-32.5 -43.85,-54.88 -9.4,-22.35 -14.85,-47.51 -16.34,-75.45 -1.48,-27.95 -0.74,-55.88 2.23,-83.83 2.96,-27.95 7.93,-54.37 14.85,-79.28 6.94,-24.88 13.97,-45.45 20.81,-61.74 20.89,-49.75 42.6,-85.86 65.37,-108.22 22.78,-22.36 44.84,-37.08 66.15,-44.21 21.29,-7.11 41.1,-8.63 59.42,-4.58 18.33,4.06 34.07,7.14 46.83,10.66 13.02,3.6 27.48,10.68 43.83,19.82 16.34,9.14 30.71,22.36 43.09,39.64 12.38,17.27 21.55,39.64 27.49,67.07 5.94,27.43 5.46,61.49 -1.49,102.13zm-240.72 196.65c9.12,4.68 18.82,-0.27 29.71,-16.02 10.9,-15.75 21.29,-36.6 31.21,-62.51 9.9,-25.9 19.56,-54.62 28.98,-86.11 9.41,-31.5 16.6,-61.48 21.55,-89.94 4.95,-28.44 7.93,-52.58 8.92,-72.4 0.98,-19.81 -1.53,-30.65 -7.44,-32.79 -10.93,-3.95 -22.3,1.03 -34.18,15.24 -11.89,14.23 -23.54,34.06 -34.92,59.47 -11.39,25.4 -21.79,53.61 -31.2,84.6 -9.41,31 -16.59,60.72 -21.55,89.17 -4.95,28.46 -6.94,53.11 -5.96,73.94 0.99,20.82 6.16,32.9 14.88,37.36z"/>
   <path class="fil2" d="M289.43 412.29c14.34,0 36.82,1.14 67.3,3.45 30.61,2.33 34.76,3.58 51.42,3.58l23.12 0c0,-3.18 -0.13,-7.69 -0.39,-13.78 -0.25,-6.09 -0.38,-10.86 -0.38,-14.18 0,-35.37 2.72,-71.15 8.27,-107.05 5.54,-35.91 2.56,-43.04 13.53,-80.27 -56.22,65.96 -108.61,139.84 -162.87,208.26zm1127.52 39.53c6.2,8.48 10.72,15.51 13.57,21.07 2.84,5.57 4.65,10.73 5.43,15.5 0.77,4.77 0.51,9.4 -0.78,13.91 -1.29,4.51 -3.23,10.2 -5.81,17.09 -6.72,14.84 -13.95,28.09 -21.7,39.74 -6.72,10.07 -14.47,19.21 -23.25,27.43 -8.78,8.21 -18.34,12.32 -28.68,12.32 -3.62,0 -7.88,-0.67 -12.78,-1.99 -4.91,-1.32 -9.82,-3.71 -14.73,-7.16 -4.91,-3.44 -9.56,-8.21 -13.95,-14.31 -4.38,-6.09 -7.88,-13.65 -10.46,-22.66 -6.2,9.54 -14.34,17.49 -24.42,23.85 -10.08,6.37 -23.38,9.55 -39.91,9.55 -16.54,0 -29.58,-3.71 -39.14,-11.13 -9.56,-7.42 -16.54,-16.96 -20.93,-28.62 -0.7,-1.85 -1.33,-3.75 -1.91,-5.67 -3.95,6.52 -8.1,12.65 -12.43,18.39 -7.23,10.07 -15.49,19.21 -24.79,27.43 -9.3,8.21 -19.12,12.32 -29.46,12.32 -12.4,0 -21.83,-3.58 -28.28,-10.74 -6.46,-7.15 -10.73,-16.03 -12.79,-26.63 -2.07,-10.59 -2.72,-21.86 -1.94,-33.79 0.78,-11.93 2.46,-22.65 5.04,-32.2 5.68,-22.79 11.49,-45.04 17.44,-66.77 5.93,-21.74 11.75,-41.08 17.43,-58.04 -4.65,0 -9.04,0.13 -13.18,0.4 -4.13,0.27 -8.26,0.39 -12.4,0.39 -2.58,8.49 -6.46,22.67 -11.62,42.53 -5.17,19.89 -10.72,41.35 -16.67,64.41 -5.94,23.05 -10.24,46.05 -17.05,67.97l-7.14 22.99 -47.2 1.56c1.55,-3.18 11.97,-30.52 14.82,-39.26 2.85,-8.74 5.94,-18.95 9.3,-30.61 3.36,-11.66 6.98,-24.11 10.85,-37.36 3.86,-13.24 7.49,-25.97 10.84,-38.15 3.36,-12.2 6.33,-22.93 8.92,-32.2 2.58,-9.28 4.39,-16.04 5.42,-20.27l-13.95 0c-2.07,0 -3.88,-0.27 -5.43,-0.8l16.28 -73.14c4.13,1.59 11.88,2.92 23.25,3.97 5.68,-18.55 8.52,-29.95 8.52,-34.19l39.53 -8.74c-0.51,3.72 -1.28,7.69 -2.32,11.93 -1.03,3.71 -2.19,8.21 -3.48,13.51 -1.3,5.3 -2.72,11.14 -4.28,17.49 6.2,0 12.15,-0.13 17.83,-0.4 5.68,-0.26 10.59,-0.66 14.72,-1.19 5.17,-0.54 10.08,-0.8 14.73,-0.8 2.06,3.18 5.42,9.15 10.07,17.89 4.65,8.74 6.2,17.62 4.65,26.63l0 0.8 0 0.8c-2.07,8.47 -4.65,21.46 -7.75,38.96 -3.09,17.48 -6.07,35.11 -8.91,52.87 -2.84,17.75 -4.78,33.39 -5.81,46.9 -1.04,13.52 -0.52,20.54 1.55,21.07 2.07,0.53 5.43,-1.99 10.08,-7.56 4.65,-5.57 9.04,-12.06 13.16,-19.48 4.54,-6.99 9.29,-15 14.23,-24.04 2.64,-12.02 5.89,-23.49 9.8,-34.39 4.65,-12.99 9.04,-23.72 13.18,-32.2 12.91,-25.96 25.71,-44.78 38.37,-56.44 12.65,-11.66 24.67,-19.21 36.04,-22.65 11.36,-3.44 21.83,-4.12 31.39,-2 9.56,2.13 17.7,3.98 24.42,5.57 6.2,2.12 13.17,4.78 20.92,7.95 7.75,3.18 14.99,6.62 21.7,10.33 7.75,4.24 15.76,8.48 24.03,12.72 -0.52,8.48 -1.81,17.48 -3.88,27.02 -1.55,8.49 -3.49,18.03 -5.81,28.62 -2.33,10.61 -4.78,21.2 -7.36,31.81 -6.72,25.44 -9.95,43.99 -9.69,55.64 0.26,11.67 2.97,18.02 8.14,19.09 2.07,0.53 5.17,-1.99 9.3,-7.56 4.12,-5.57 8.26,-12.06 12.39,-19.48 4.65,-7.95 9.56,-17.22 14.73,-27.83zm-171.28 82.69c4.65,2.64 10.33,-0.14 17.05,-8.35 6.71,-8.21 13.56,-18.95 20.53,-32.2 6.97,-13.24 13.57,-28.22 19.77,-44.91 6.2,-16.7 11.36,-32.33 15.49,-46.91 4.13,-14.57 6.86,-27.03 8.15,-37.36 1.29,-10.33 0.38,-16.3 -2.72,-17.88 -5.68,-2.13 -12.27,0.67 -19.76,8.34 -7.49,7.69 -14.86,18.16 -22.08,31.41 -7.23,13.25 -14.08,27.96 -20.54,44.12 -6.46,16.17 -11.63,31.53 -15.51,46.11 -3.87,14.57 -6.07,27.29 -6.58,38.16 -0.51,10.87 1.55,17.35 6.2,19.48zm-243.35 -89.05c-1.55,9.02 -5.17,22 -10.86,38.96 -5.68,16.96 -13.69,33.91 -24.02,50.88 -10.33,16.96 -23.51,31.79 -39.53,44.51 -16.01,12.72 -34.88,19.08 -56.58,19.08 -16.54,0 -29.97,-3.71 -40.3,-11.14 -10.33,-7.42 -17.95,-16.95 -22.86,-28.62 -0.82,-1.94 -1.58,-3.92 -2.28,-5.94 -1.16,2.03 -2.33,4 -3.53,5.94 -6.2,10.07 -13.82,19.21 -22.86,27.43 -9.04,8.21 -19.24,12.32 -30.62,12.32 -12.4,0 -21.96,-3.18 -28.67,-9.55 -6.72,-6.35 -11.62,-14.44 -14.73,-24.24 -3.09,-9.81 -4.78,-20.81 -5.04,-32.99 -0.25,-12.19 0.13,-24.38 1.17,-36.57 0,-1.59 0.38,-5.7 1.15,-12.32 0.78,-6.63 1.43,-13.65 1.94,-21.07 0.51,-7.42 0.65,-14.31 0.39,-20.68 -0.26,-6.35 -1.43,-9.81 -3.49,-10.33 -2.07,-0.53 -4.39,-0.4 -6.98,0.4 -2.58,0.79 -5.56,4.64 -8.91,11.53 -3.36,6.89 -7.23,17.35 -11.62,31.4 -4.39,14.05 -9.17,33.79 -14.34,59.23 -2.07,10.6 -3.87,20.28 -5.42,29.02 -1.56,8.75 -2.84,16.3 -3.88,22.65 -1.55,7.42 -2.84,14.05 -3.88,19.88 0,0 -2.07,0 -6.2,0 -4.13,0 -8.91,-0.53 -14.33,-1.59 -5.43,-1.07 -11.11,-3.05 -17.05,-5.96 -5.95,-2.92 -10.98,-7.56 -15.11,-13.92 -4.14,-6.36 -6.85,-14.7 -8.15,-25.04 -1.29,-10.33 -0.12,-23.19 3.49,-38.56 2.07,-7.95 4.78,-20.81 8.13,-38.55 3.36,-17.76 7.11,-38.04 11.24,-60.83 4.13,-22.79 8.4,-46.78 12.79,-71.95 4.39,-25.17 8.52,-49.29 12.4,-72.35 3.88,-23.06 7.24,-43.59 10.07,-61.61 2.84,-18.02 5.04,-31.26 6.59,-39.74 2.07,-11.13 4.4,-19.48 6.97,-25.04 2.59,-5.57 5.3,-9.55 8.15,-11.93 2.85,-2.38 5.55,-3.58 8.13,-3.58 2.59,0 4.65,0 6.2,0l62 14.32c-1.55,2.11 -4,9.66 -7.36,22.64 -3.36,12.98 -7.23,29.42 -11.62,49.29 -4.4,19.87 -9.17,42.27 -14.34,67.18 -5.17,24.91 -10.33,50.61 -15.5,77.12 7.23,-8.48 14.98,-15.9 23.25,-22.26 8.27,-6.35 16.79,-9.54 25.57,-9.54 11.89,0 21.18,3.18 27.9,9.54 6.72,6.36 11.63,14.44 14.73,24.25 3.11,9.81 4.52,20.41 4.26,31.8 -0.25,11.4 -1.15,21.86 -2.71,31.41 0,0.52 -0.38,2.78 -1.16,6.75 -0.78,3.97 -1.68,8.62 -2.71,13.91 -1.04,5.3 -2.2,10.73 -3.49,16.3 -1.3,5.57 -2.2,10.2 -2.71,13.91 -1.04,7.42 -1.29,13.38 -0.78,17.89 0.51,4.51 2.07,7.02 4.65,7.56 2.07,0.53 5.04,-1.99 8.91,-7.56 3.88,-5.57 7.62,-12.06 11.24,-19.48l0.51 -0.99 0.26 -2.59c1.55,-14.57 4.14,-28.35 7.75,-41.34 3.62,-12.98 7.23,-23.72 10.86,-32.2 10.84,-25.96 22.21,-44.77 34.08,-56.43 11.89,-11.66 23.39,-19.35 34.5,-23.06 11.11,-3.71 21.44,-4.51 31,-2.39 9.56,2.12 17.7,3.98 24.42,5.56 6.71,2.13 14.33,5.57 22.86,10.35 8.53,4.76 16.02,11.66 22.48,20.66 6.46,9.02 11.24,20.68 14.33,34.98 3.1,14.31 2.84,32.07 -0.77,53.26zm-125.56 102.56c4.66,2.66 9.82,-0.13 15.51,-8.34 5.68,-8.22 11.11,-19.08 16.27,-32.6 5.17,-13.51 10.21,-28.48 15.11,-44.91 4.91,-16.43 8.66,-32.07 11.25,-46.91 2.57,-14.84 4.12,-27.43 4.65,-37.75 0.52,-10.34 -0.77,-16.04 -3.87,-17.1 -5.69,-2.12 -11.63,0.53 -17.83,7.95 -6.2,7.42 -12.26,17.76 -18.21,31.01 -5.94,13.25 -11.36,27.96 -16.27,44.12 -4.91,16.17 -8.66,31.67 -11.25,46.5 -2.57,14.84 -3.61,27.7 -3.09,38.56 0.52,10.86 3.09,17.36 7.75,19.48zm-711.2 -65.75l-16.28 0c-7.88,0 -15.62,0.12 -23.25,0.39 -7.75,0.27 -11.62,0.4 -11.62,0.4 -13.31,0 -23.65,-2.11 -31,-6.23 -7.36,-4.11 -10.99,-10.07 -10.99,-17.88 0,-7.03 6.85,-15.37 20.41,-25.31 6.84,-4.9 12.27,-8.88 16.27,-12.06 1.56,-1.19 3.62,-3.05 6.08,-5.3 9.04,-8.47 19.89,-12.72 32.55,-12.72 0.78,0 8.01,0.54 21.57,1.72 13.68,1.06 27.12,1.86 40.55,2.12l3.74 -4.64c204.09,-240.08 310.53,-360.13 319.31,-360.13 5.81,0 10.73,3.05 14.72,9.15 4.01,6.09 6.07,13.38 6.07,21.86 0,3.71 -1.8,13.77 -5.29,30.34 -16.15,78.31 -24.28,154.63 -24.28,228.84 0,27.16 0.12,46.63 0.38,58.42 0.26,11.67 0.65,21.86 1.17,30.34 6.96,1.6 12.65,4.24 16.91,7.82 4.26,3.57 6.46,7.41 6.46,11.26 0,5.7 -1.8,10.33 -5.3,14.05 -3.49,3.58 -8.78,6.22 -15.89,7.69 0,42.53 7.75,80.82 23.26,114.87 3.22,7.29 4.9,11.8 4.9,13.66 0,5.43 -2.2,10.07 -6.45,14.18 -4.27,3.97 -9.3,5.96 -15.12,5.96 -3.49,0 -7.49,-0.93 -12.14,-2.92 -4.53,-1.99 -7.23,-2.92 -8.27,-2.92 -1.55,0 -3.75,0.27 -6.85,0.8 -2.96,0.53 -5.04,0.8 -5.94,0.8 -2.84,0 -8.78,-2.12 -18.08,-6.23 -9.17,-4.11 -14.86,-8.21 -17.18,-12.06 -5.81,-10.07 -11.36,-25.97 -16.66,-47.7 -5.29,-21.73 -9.69,-29.9 -13.18,-59.45l-5.68 0c-45.26,0 -91.02,1.67 -133.19,1.67 -8.52,0 -17.06,-0.13 -25.57,-0.27 -8.4,-0.12 -17.18,-0.26 -26.22,-0.52l-99.12 114.99 -80.21 21.33c-73.01,19.42 56.63,-76.71 99.38,-136.33z"/>
  </g>
 </g>
</svg>
