<?xml version="1.0" encoding="UTF-8"?>
<!DOCTYPE svg PUBLIC "-//W3C//DTD SVG 1.1//EN" "http://www.w3.org/Graphics/SVG/1.1/DTD/svg11.dtd">
<!-- Creator: CorelDRAW 2018 (64 Bit) -->
<svg xmlns="http://www.w3.org/2000/svg" xml:space="preserve" width="9.7442mm" height="10.8726mm" version="1.1" style="shape-rendering:geometricPrecision; text-rendering:geometricPrecision; image-rendering:optimizeQuality; fill-rule:evenodd; clip-rule:evenodd"
viewBox="0 0 46.28 51.64"
 xmlns:xlink="http://www.w3.org/1999/xlink">
 <defs>
  <style type="text/css">
   <![CDATA[
    .fil0 {fill:#FFF212}
    .fil1 {fill:#ED3237;fill-rule:nonzero}
   ]]>
  </style>
 </defs>
 <g id="Capa_x0020_1">
  <metadata id="CorelCorpID_0Corel-Layer"/>
  <g id="_2977935744240">
   <path class="fil0" d="M45.43 4.01c-0.42,-0.17 -0.71,0.17 -1.01,0.6 -3.45,4.95 -6.89,9.9 -10.34,14.85 -0.18,0.17 -0.42,0.43 -0.65,0.43 -7.49,0 -14.98,0 -22.53,0 -3.21,0 -6.42,0 -9.69,0 -0.89,0 -1.31,0.6 -1.19,1.88 0.12,1.71 0.18,3.41 0.53,5.04 1.9,9.22 5.82,16.39 11.29,21.85 1.01,1.02 1.49,1.28 2.56,2.22 1.01,0.77 1.72,0.77 1.72,0.77 12.18,0 12.18,0 12.18,0 0,0 1.37,0 2.08,-0.6 5.88,-4.27 10.1,-10.93 12.96,-19.46 1.01,-3.07 1.66,-6.32 1.78,-9.73 0,-1.54 -0.3,-1.96 -1.37,-1.96 -2.08,0 -4.16,0 -6.24,0 -0.24,0 -0.48,0 -0.71,0 -0.06,-0.09 -0.06,-0.17 -0.12,-0.26 0.12,-0.17 0.3,-0.26 0.42,-0.43 2.85,-4.1 5.77,-8.19 8.62,-12.29 0.12,-0.17 0.24,-0.34 0.3,-0.51 0.54,-0.94 0.18,-2.22 -0.59,-2.39l0 0zm-26.15 3.02c0.06,-0.92 -0.24,-1.74 -0.95,-2.39 -0.42,-0.33 -0.95,-0.33 -1.37,-0.05 -0.42,0.27 -0.53,0.87 -0.18,1.25 0.59,0.6 0.59,1.25 0.36,1.95 -0.36,1.19 -0.77,2.33 -1.13,3.53 -0.3,1.19 -0.18,2.33 0.77,3.31 0.42,0.43 1.01,0.49 1.43,0.16 0.48,-0.38 0.48,-0.87 0.12,-1.41 -0.18,-0.27 -0.42,-0.71 -0.36,-0.98 0.12,-0.81 0.36,-1.63 0.59,-2.44 0.3,-0.98 0.59,-1.95 0.89,-2.93 -0.06,0 -0.12,0 -0.18,0l0 0zm6.18 5.32c0,0.92 0.24,1.68 1.01,2.33 0.36,0.38 0.95,0.38 1.37,0.11 0.36,-0.33 0.54,-0.92 0.18,-1.25 -0.65,-0.6 -0.59,-1.3 -0.36,-2.01 0.36,-1.14 0.77,-2.28 1.07,-3.47 0.36,-1.19 0.24,-2.33 -0.71,-3.31 -0.48,-0.43 -1.07,-0.49 -1.49,-0.16 -0.48,0.33 -0.53,0.92 -0.12,1.36 0.36,0.33 0.53,0.71 0.42,1.14 -0.18,0.87 -0.48,1.68 -0.71,2.55 -0.24,0.87 -0.53,1.79 -0.77,2.66 0.06,0 0.06,0 0.12,0.05l0 0zm-1.25 -9.17c-0.3,1.68 -0.65,3.36 -0.95,4.99 -0.24,1.41 -0.65,2.82 -0.48,4.29 0,0.33 0.18,0.71 0.36,0.98 0.36,0.49 0.36,0.98 -0.12,1.3 -0.42,0.38 -1.01,0.33 -1.43,-0.11 -0.65,-0.65 -0.95,-1.47 -0.89,-2.28 0.06,-1.25 0.24,-2.55 0.42,-3.8 0.3,-1.74 0.65,-3.42 0.89,-5.16 0.12,-0.71 0.06,-1.41 -0.48,-2.01 -0.36,-0.38 -0.18,-0.87 0.24,-1.19 0.42,-0.27 0.95,-0.27 1.37,0.11 0.65,0.65 0.83,1.41 0.95,2.23 0,0.22 0,0.43 0,0.65 0,0 0.06,0 0.12,0l0 0z"/>
   <path class="fil1" d="M33.63 26.8c0.26,0.21 0.5,0.51 0.71,0.89 0.21,0.38 0.31,0.85 0.31,1.41 0,0.31 -0.02,0.63 -0.07,0.95 -0.05,0.32 -0.12,0.64 -0.23,0.95l-4.82 13.71c-0.22,0.02 -0.42,0.03 -0.61,0.03 -0.19,0 -0.37,0 -0.54,0 -0.7,0 -1.26,-0.16 -1.69,-0.49 -0.43,-0.33 -0.65,-0.9 -0.65,-1.72 0,-0.41 0.08,-0.85 0.23,-1.32 0.15,-0.48 0.36,-1.04 0.63,-1.7l3.38 -8.7 -5.68 0c-0.09,-0.21 -0.19,-0.49 -0.28,-0.84 -0.09,-0.35 -0.14,-0.72 -0.14,-1.11 0,-0.74 0.13,-1.26 0.39,-1.57 0.26,-0.31 0.59,-0.47 1,-0.47l8.07 0z"/>
   <path class="fil1" d="M13.89 34.12c0.09,-0.51 0.26,-0.93 0.51,-1.26 0.25,-0.32 0.57,-0.49 0.95,-0.49 0.36,0 0.63,0.11 0.82,0.33 0.19,0.22 0.41,0.52 0.65,0.91l1.04 1.71 1.73 -2.95c0.59,0 1.06,0.13 1.41,0.4 0.35,0.26 0.52,0.62 0.52,1.07 0,0.18 -0.02,0.34 -0.06,0.48 -0.04,0.14 -0.09,0.29 -0.17,0.44 -0.08,0.15 -0.17,0.32 -0.29,0.51 -0.12,0.19 -0.26,0.41 -0.42,0.67l-1.07 1.5 2.12 3.51c-0.05,0.51 -0.22,0.92 -0.48,1.22 -0.27,0.3 -0.59,0.45 -0.97,0.45 -0.41,-0.01 -0.74,-0.16 -0.98,-0.45 -0.24,-0.28 -0.48,-0.63 -0.7,-1.04l-0.87 -1.56 -1.65 2.99c-0.05,0 -0.11,0 -0.18,0.01 -0.06,0.01 -0.12,0.01 -0.16,0.01 -0.55,0 -0.97,-0.14 -1.25,-0.43 -0.29,-0.28 -0.43,-0.64 -0.43,-1.06 0,-0.32 0.06,-0.61 0.19,-0.86 0.12,-0.25 0.34,-0.59 0.64,-1.03l1.29 -1.89 -2.17 -3.19z"/>
  </g>
 </g>
</svg>
