<?xml version="1.0" encoding="UTF-8"?>
<!DOCTYPE svg PUBLIC "-//W3C//DTD SVG 1.1//EN" "http://www.w3.org/Graphics/SVG/1.1/DTD/svg11.dtd">
<!-- Creator: CorelDRAW 2018 (64 Bit) -->
<svg xmlns="http://www.w3.org/2000/svg" xml:space="preserve" width="9.7442mm" height="10.8726mm" version="1.1" style="shape-rendering:geometricPrecision; text-rendering:geometricPrecision; image-rendering:optimizeQuality; fill-rule:evenodd; clip-rule:evenodd"
viewBox="0 0 284.54 317.49"
 xmlns:xlink="http://www.w3.org/1999/xlink">
 <defs>
  <style type="text/css">
   <![CDATA[
    .fil0 {fill:#FFFBD6}
    .fil1 {fill:#ED3237;fill-rule:nonzero}
   ]]>
  </style>
 </defs>
 <g id="Capa_x0020_1">
  <metadata id="CorelCorpID_0Corel-Layer"/>
  <g id="_2977651883344">
   <path class="fil0" d="M279.32 24.65c-2.56,-1.05 -4.39,1.05 -6.21,3.67 -21.2,30.44 -42.39,60.88 -63.59,91.32 -1.1,1.05 -2.56,2.62 -4.02,2.62 -46.04,0 -92.09,0 -138.5,0 -19.73,0 -39.47,0 -59.56,0 -5.48,0 -8.04,3.68 -7.31,11.55 0.73,10.49 1.1,20.99 3.29,30.96 11.7,56.68 35.81,100.76 69.43,134.35 6.21,6.3 9.13,7.87 15.71,13.65 6.21,4.72 10.6,4.72 10.6,4.72 74.92,0 74.92,0 74.92,0 0,0 8.4,0 12.79,-3.67 36.18,-26.24 62.12,-67.17 79.66,-119.65 6.21,-18.89 10.23,-38.84 10.96,-59.83 0,-9.45 -1.83,-12.07 -8.4,-12.07 -12.79,0 -25.58,0 -38.37,0 -1.46,0 -2.92,0 -4.39,0 -0.37,-0.52 -0.37,-1.05 -0.73,-1.57 0.73,-1.05 1.83,-1.57 2.56,-2.62 17.54,-25.19 35.45,-50.38 52.99,-75.57 0.73,-1.05 1.46,-2.1 1.83,-3.15 3.29,-5.77 1.1,-13.64 -3.65,-14.69l0 0zm-160.79 18.58c0.37,-5.67 -1.46,-10.68 -5.85,-14.68 -2.56,-2 -5.85,-2 -8.4,-0.33 -2.56,1.67 -3.29,5.34 -1.1,7.67 3.65,3.67 3.65,7.67 2.19,12.01 -2.19,7.34 -4.75,14.35 -6.94,21.69 -1.83,7.34 -1.1,14.35 4.75,20.36 2.56,2.67 6.21,3 8.77,1 2.92,-2.34 2.92,-5.34 0.73,-8.68 -1.1,-1.67 -2.56,-4.34 -2.19,-6 0.73,-5.01 2.19,-10.01 3.65,-15.02 1.83,-6.01 3.65,-12.01 5.48,-18.02 -0.37,0 -0.73,0 -1.1,0l0 0zm38.01 32.7c0,5.67 1.46,10.35 6.21,14.35 2.19,2.34 5.85,2.34 8.4,0.67 2.19,-2 3.29,-5.67 1.1,-7.68 -4.02,-3.67 -3.65,-8.01 -2.19,-12.35 2.19,-7.01 4.75,-14.01 6.58,-21.36 2.19,-7.34 1.46,-14.35 -4.39,-20.35 -2.92,-2.67 -6.58,-3 -9.14,-1 -2.92,2 -3.29,5.67 -0.73,8.34 2.19,2 3.29,4.34 2.56,7.01 -1.1,5.34 -2.92,10.35 -4.39,15.68 -1.46,5.34 -3.29,11.01 -4.75,16.35 0.37,0 0.37,0 0.73,0.33l0 0zm-7.67 -56.39c-1.83,10.34 -4.02,20.69 -5.85,30.7 -1.46,8.68 -4.02,17.35 -2.92,26.36 0,2 1.1,4.34 2.19,6.01 2.19,3 2.19,6.01 -0.73,8.01 -2.56,2.34 -6.21,2 -8.77,-0.67 -4.02,-4 -5.85,-9.01 -5.48,-14.02 0.37,-7.67 1.46,-15.68 2.56,-23.36 1.83,-10.68 4.02,-21.02 5.48,-31.7 0.73,-4.34 0.37,-8.68 -2.92,-12.35 -2.19,-2.33 -1.1,-5.34 1.46,-7.34 2.56,-1.67 5.85,-1.67 8.4,0.67 4.02,4 5.12,8.68 5.85,13.68 0,1.34 0,2.67 0,4.01 0,0 0.37,0 0.73,0l0 0z"/>
   <path class="fil1" d="M168.86 194.87l-14.25 5.55c-1.43,-1.19 -2.85,-2.86 -4.28,-5.01 -1.43,-2.15 -2.14,-5.13 -2.14,-8.95 0,-7.16 3.47,-12.17 10.4,-15.04l15.96 -6.8 5.27 0c4.09,0 7.31,1.49 9.69,4.47 2.38,2.98 3.57,7.04 3.57,12.17l0 93.26c-1.05,0.24 -2.59,0.57 -4.63,0.98 -2.04,0.42 -4.11,0.62 -6.2,0.62 -2.09,0 -3.97,-0.18 -5.63,-0.54 -1.66,-0.36 -3.07,-1.07 -4.2,-2.15 -1.14,-1.07 -2.02,-2.53 -2.64,-4.39 -0.62,-1.85 -0.93,-4.27 -0.93,-7.25l0 -66.95z"/>
   <path class="fil1" d="M85.41 209.76c0.53,-3.17 1.58,-5.75 3.14,-7.74 1.56,-2 3.5,-3 5.82,-3 2.19,0 3.88,0.67 5.07,2 1.19,1.33 2.52,3.21 3.98,5.62l6.36 10.49 10.64 -18.11c3.64,0 6.53,0.81 8.65,2.44 2.12,1.62 3.18,3.81 3.18,6.56 0,1.08 -0.12,2.06 -0.35,2.93 -0.23,0.88 -0.58,1.77 -1.05,2.69 -0.46,0.92 -1.06,1.96 -1.79,3.12 -0.73,1.17 -1.59,2.54 -2.58,4.12l-6.56 9.24 13.03 21.61c-0.33,3.17 -1.33,5.66 -2.98,7.49 -1.66,1.83 -3.65,2.75 -5.97,2.75 -2.52,-0.08 -4.53,-1 -6.02,-2.75 -1.49,-1.75 -2.93,-3.87 -4.33,-6.37l-5.37 -9.62 -10.14 18.36c-0.33,0 -0.69,0.02 -1.1,0.06 -0.4,0.04 -0.73,0.06 -0.99,0.06 -3.38,0 -5.95,-0.87 -7.71,-2.62 -1.75,-1.75 -2.63,-3.92 -2.63,-6.5 0,-2 0.38,-3.77 1.14,-5.31 0.76,-1.54 2.07,-3.64 3.93,-6.31l7.95 -11.62 -13.33 -19.61z"/>
  </g>
 </g>
</svg>
