<?xml version="1.0" encoding="UTF-8"?>
<!DOCTYPE svg PUBLIC "-//W3C//DTD SVG 1.1//EN" "http://www.w3.org/Graphics/SVG/1.1/DTD/svg11.dtd">
<!-- Creator: CorelDRAW 2018 (64 Bit) -->
<svg xmlns="http://www.w3.org/2000/svg" xml:space="preserve" width="9.7442mm" height="10.8726mm" version="1.1" style="shape-rendering:geometricPrecision; text-rendering:geometricPrecision; image-rendering:optimizeQuality; fill-rule:evenodd; clip-rule:evenodd"
viewBox="0 0 116.11 129.56"
 xmlns:xlink="http://www.w3.org/1999/xlink">
 <defs>
  <style type="text/css">
   <![CDATA[
    .fil0 {fill:#FFF358}
    .fil1 {fill:#ED3237;fill-rule:nonzero}
   ]]>
  </style>
 </defs>
 <g id="Capa_x0020_1">
  <metadata id="CorelCorpID_0Corel-Layer"/>
  <g id="_2977935713264">
   <path class="fil0" d="M113.98 10.06c-1.04,-0.43 -1.79,0.43 -2.54,1.5 -8.65,12.42 -17.3,24.84 -25.95,37.26 -0.45,0.43 -1.04,1.07 -1.64,1.07 -18.79,0 -37.58,0 -56.52,0 -8.05,0 -16.1,0 -24.31,0 -2.24,0 -3.28,1.5 -2.98,4.71 0.3,4.28 0.45,8.57 1.34,12.63 4.77,23.13 14.61,41.12 28.33,54.82 2.54,2.57 3.73,3.21 6.41,5.57 2.53,1.93 4.32,1.93 4.32,1.93 30.57,0 30.57,0 30.57,0 0,0 3.43,0 5.22,-1.5 14.76,-10.71 25.35,-27.41 32.51,-48.83 2.53,-7.71 4.18,-15.85 4.47,-24.41 0,-3.85 -0.75,-4.93 -3.43,-4.93 -5.22,0 -10.44,0 -15.66,0 -0.6,0 -1.19,0 -1.79,0 -0.15,-0.21 -0.15,-0.43 -0.3,-0.64 0.3,-0.43 0.74,-0.64 1.04,-1.07 7.16,-10.28 14.46,-20.56 21.62,-30.84 0.3,-0.43 0.6,-0.86 0.75,-1.29 1.34,-2.35 0.45,-5.57 -1.49,-6l0 0zm-65.61 7.58c0.15,-2.31 -0.6,-4.36 -2.39,-5.99 -1.04,-0.82 -2.39,-0.82 -3.43,-0.14 -1.04,0.68 -1.34,2.18 -0.45,3.13 1.49,1.5 1.49,3.13 0.89,4.9 -0.89,3 -1.94,5.86 -2.83,8.85 -0.75,3 -0.45,5.86 1.94,8.31 1.04,1.09 2.54,1.22 3.58,0.41 1.19,-0.95 1.19,-2.18 0.3,-3.54 -0.45,-0.68 -1.04,-1.77 -0.89,-2.45 0.3,-2.04 0.89,-4.09 1.49,-6.13 0.75,-2.45 1.49,-4.9 2.24,-7.35 -0.15,0 -0.3,0 -0.45,0l0 0zm15.51 13.34c0,2.32 0.6,4.22 2.53,5.86 0.89,0.95 2.39,0.95 3.43,0.27 0.89,-0.82 1.34,-2.32 0.45,-3.13 -1.64,-1.5 -1.49,-3.27 -0.89,-5.04 0.89,-2.86 1.94,-5.72 2.68,-8.72 0.89,-3 0.6,-5.85 -1.79,-8.31 -1.19,-1.09 -2.68,-1.23 -3.73,-0.41 -1.19,0.82 -1.34,2.32 -0.3,3.4 0.89,0.82 1.34,1.77 1.04,2.86 -0.45,2.18 -1.19,4.22 -1.79,6.4 -0.6,2.18 -1.34,4.49 -1.94,6.67 0.15,0 0.15,0 0.3,0.14l0 0zm-3.13 -23.01c-0.74,4.22 -1.64,8.44 -2.39,12.53 -0.6,3.54 -1.64,7.08 -1.19,10.76 0,0.82 0.45,1.77 0.89,2.45 0.89,1.22 0.89,2.45 -0.3,3.27 -1.04,0.95 -2.53,0.82 -3.58,-0.27 -1.64,-1.63 -2.39,-3.68 -2.24,-5.72 0.15,-3.13 0.6,-6.4 1.04,-9.53 0.75,-4.36 1.64,-8.58 2.24,-12.94 0.3,-1.77 0.15,-3.54 -1.19,-5.04 -0.89,-0.95 -0.45,-2.18 0.6,-3 1.05,-0.68 2.39,-0.68 3.43,0.27 1.64,1.63 2.09,3.54 2.39,5.58 0,0.55 0,1.09 0,1.63 0,0 0.15,0 0.3,0l0 0z"/>
   <path class="fil1" d="M74.02 112.83c-1.78,0 -3.4,-0.17 -4.86,-0.51 -1.45,-0.34 -2.7,-0.85 -3.75,-1.53 -1.05,-0.68 -1.86,-1.52 -2.44,-2.52 -0.58,-1 -0.87,-2.16 -0.87,-3.47 0,-1.36 0.31,-2.51 0.93,-3.43 0.62,-0.92 1.32,-1.66 2.09,-2.19 1.09,1.02 2.25,1.91 3.49,2.67 1.24,0.76 2.81,1.13 4.71,1.13 1.82,0 3.12,-0.51 3.9,-1.53 0.77,-1.02 1.16,-2.26 1.16,-3.72 0,-1.41 -0.34,-2.58 -1.02,-3.51 -0.68,-0.93 -1.85,-1.39 -3.52,-1.39 -1.05,0 -1.92,0.15 -2.62,0.44 -0.7,0.29 -1.49,0.71 -2.38,1.24 -1.9,-0.1 -3.4,-0.74 -4.51,-1.94 -1.1,-1.19 -1.66,-3.03 -1.66,-5.51 0,-0.15 0,-0.33 0,-0.55 0,-0.22 0.02,-0.67 0.06,-1.35l0.7 -11.1c0.12,-2.09 0.64,-3.75 1.57,-4.97 0.93,-1.22 2.23,-1.83 3.9,-1.83l16.75 0c0.23,0.54 0.46,1.24 0.7,2.12 0.23,0.88 0.35,1.8 0.35,2.78 0,1.85 -0.33,3.16 -0.99,3.94 -0.66,0.78 -1.49,1.17 -2.5,1.17l-11.17 0 -0.41 6.87c0.74,-0.24 1.48,-0.46 2.24,-0.66 0.76,-0.19 1.72,-0.29 2.88,-0.29 2.01,0 3.76,0.38 5.23,1.13 1.47,0.75 2.68,1.79 3.63,3.1 0.95,1.31 1.65,2.85 2.09,4.6 0.45,1.75 0.67,3.63 0.67,5.62 0,2 -0.27,3.92 -0.81,5.77 -0.54,1.85 -1.4,3.47 -2.56,4.86 -1.16,1.39 -2.65,2.5 -4.45,3.32 -1.8,0.83 -3.98,1.24 -6.54,1.24z"/>
   <path class="fil1" d="M34.86 85.6c0.22,-1.29 0.64,-2.35 1.28,-3.16 0.64,-0.82 1.43,-1.22 2.37,-1.22 0.89,0 1.58,0.27 2.07,0.82 0.49,0.54 1.03,1.31 1.62,2.29l2.6 4.28 4.34 -7.39c1.49,0 2.67,0.33 3.53,0.99 0.87,0.66 1.3,1.55 1.3,2.68 0,0.44 -0.05,0.84 -0.14,1.2 -0.09,0.36 -0.24,0.72 -0.43,1.1 -0.19,0.37 -0.43,0.8 -0.73,1.27 -0.3,0.48 -0.65,1.04 -1.05,1.68l-2.68 3.77 5.32 8.82c-0.13,1.29 -0.54,2.31 -1.22,3.06 -0.68,0.75 -1.49,1.12 -2.43,1.12 -1.03,-0.03 -1.85,-0.41 -2.45,-1.12 -0.61,-0.71 -1.2,-1.58 -1.77,-2.6l-2.19 -3.93 -4.14 7.49c-0.13,0 -0.28,0.01 -0.45,0.03 -0.16,0.02 -0.3,0.03 -0.41,0.03 -1.38,0 -2.43,-0.36 -3.14,-1.07 -0.72,-0.71 -1.07,-1.6 -1.07,-2.65 0,-0.82 0.15,-1.54 0.47,-2.17 0.31,-0.63 0.84,-1.49 1.6,-2.58l3.25 -4.74 -5.44 -8z"/>
  </g>
 </g>
</svg>
