<?xml version="1.0" encoding="UTF-8"?>
<svg id="Layer_2" data-name="Layer 2" xmlns="http://www.w3.org/2000/svg" viewBox="0 0 11.53 11.6">
  <defs>
    <style>
      .cls-1 {
        fill: #008c44;
        fill-rule: evenodd;
      }
    </style>
  </defs>
  <g id="Layer_1-2" data-name="Layer 1">
    <path class="cls-1" d="M5.76,11.48v-.12c-1.52,0-2.9-.62-3.9-1.63C.86,8.72.24,7.33.24,5.8c0-1.53.62-2.92,1.62-3.93C2.86.86,4.24.24,5.76.24s2.9.62,3.9,1.63c1,1.01,1.62,2.4,1.62,3.93s-.62,2.92-1.62,3.93c-1,1.01-2.38,1.63-3.9,1.63v.24c3.18,0,5.76-2.6,5.76-5.8S8.94,0,5.76,0C2.58,0,0,2.6,0,5.8c0,3.2,2.58,5.8,5.76,5.8v-.12h0ZM10.61,5.8c0,2.69-2.17,4.87-4.84,4.87S.92,8.49.92,5.8,3.09.93,5.76.93s4.84,2.18,4.84,4.87h0ZM4.98,9v-3.12h-.65v-1.06h.65v-.84c0-.78.42-1.19,1.34-1.19h.86v1.09h-.67c-.24,0-.29.1-.29.34v.6h.96l-.09,1.05h-.87v3.13h-1.24Z"/>
  </g>
</svg>