<?xml version="1.0" encoding="UTF-8"?>
<!DOCTYPE svg PUBLIC "-//W3C//DTD SVG 1.1//EN" "http://www.w3.org/Graphics/SVG/1.1/DTD/svg11.dtd">
<!-- Creator: CorelDRAW 2018 (64 Bit) -->
<svg xmlns="http://www.w3.org/2000/svg" xml:space="preserve" width="44.3984mm" height="14.6085mm" version="1.1" style="shape-rendering:geometricPrecision; text-rendering:geometricPrecision; image-rendering:optimizeQuality; fill-rule:evenodd; clip-rule:evenodd"
viewBox="0 0 259029.95 85229.18"
 xmlns:xlink="http://www.w3.org/1999/xlink">
 <defs>
  <style type="text/css">
   <![CDATA[
    .str0 {stroke:#008F4F;stroke-width:2917.11;stroke-linecap:round;stroke-linejoin:round;stroke-miterlimit:22.9256}
    .fil3 {fill:none}
    .fil2 {fill:#FEFEFE}
    .fil1 {fill:#FEFEFE;fill-rule:nonzero}
    .fil0 {fill:url(#id0)}
   ]]>
  </style>
  <linearGradient id="id0" gradientUnits="userSpaceOnUse" x1="129514.98" y1="0" x2="129514.98" y2="85229.18">
   <stop offset="0" style="stop-opacity:1; stop-color:#FEFEFE"/>
   <stop offset="0.501961" style="stop-opacity:1; stop-color:#70BF4F"/>
   <stop offset="1" style="stop-opacity:1; stop-color:#008F4F"/>
  </linearGradient>
 </defs>
 <g id="Capa_x0020_1">
  <metadata id="CorelCorpID_0Corel-Layer"/>
  <path class="fil0" d="M-0 0l259029.95 0 0 71937.08c0,7308.53 -6352.88,13292.1 -14112.39,13292.1l-230805.17 0c-7759.51,0 -14112.39,-5982.41 -14112.39,-13292.1l0 -71937.08z"/>
  <path class="fil1" d="M34311.04 71760.3l0 -333.72c-4242.06,0 -8087.39,-1735.68 -10874.4,-4538.44 -2787.01,-2803.93 -4511.02,-6672.01 -4511.6,-10939.74 0.58,-4268.31 1724.59,-8135.82 4511.6,-10939.16 2787.01,-2803.93 6632.34,-4539.02 10874.4,-4539.02 4242.64,0 8087.39,1735.1 10874.4,4539.02 2787.01,2803.34 4512.18,6670.85 4512.18,10939.16 0,4267.73 -1725.18,8135.82 -4512.18,10939.74 -2787.01,2802.76 -6631.17,4538.44 -10874.4,4538.44l0 667.43c8850.51,-1.17 16049.35,-7242.01 16049.35,-16145.62 0,-8904.18 -7198.84,-16145.03 -16049.35,-16145.62 -8849.93,0.58 -16048.18,7241.43 -16048.77,16145.62 0.58,8903.6 7198.84,16144.45 16048.77,16145.62l0 -333.72zm13487.55 -15811.9c0,7493.47 -6037.83,13568.06 -13487.55,13568.06 -7448.55,0 -13486.96,-6074.59 -13486.96,-13568.06 0,-7494.05 6038.42,-13567.47 13486.96,-13567.47 7449.71,0 13487.55,6073.42 13487.55,13567.47zm-15661.38 8927.52l3461.44 0 0 -8721.57 2415.37 0 257.29 -2919.44 -2672.66 0c0,0 0,-1089.83 0,-1663.34 0,-687.85 138.27,-959.73 799.87,-959.73 532.08,0 1872.78,0 1872.78,0l0 -3031.46c0,0 -1974.88,0 -2396.7,0 -2575.22,0 -3737.4,1142.34 -3737.4,3326.67 0,1903.12 0,2327.85 0,2327.85l-1801.02 0 0 2956.78 1801.02 0 0 8684.23z"/>
  <path class="fil2" d="M69456.37 64870.09c-1065.33,0 -2053.64,-149.94 -2965.53,-449.23 -911.3,-299.88 -1705.93,-749.11 -2382.69,-1348.87 -677.35,-599.17 -1209.43,-1352.96 -1597.99,-2260.76 -387.98,-908.39 -582.25,-1970.8 -582.25,-3187.82 0,-1198.35 194.28,-2229.25 582.25,-3091.55 388.56,-862.88 898.47,-1571.15 1530.32,-2125.41 631.85,-553.67 1354.12,-962.06 2166.25,-1225.77 812.71,-263.12 1642.92,-394.98 2491.21,-394.98 956.81,0 1827.86,145.27 2613.15,435.82 785.87,290.54 1462.64,690.19 2031.47,1198.93 568.25,508.16 1011.07,1116.67 1326.7,1824.94 316.21,708.27 473.74,1480.14 473.74,2315.6 0,617.84 -171.53,1089.83 -513.99,1416.55 -343.05,327.3 -821.46,536.16 -1435.8,626.6l-6688.35 1008.15c198.36,599.17 604.42,1048.99 1218.18,1348.29 613.76,299.88 1317.95,449.82 2112.57,449.82 740.36,0 1439.89,-95.68 2098.57,-285.88 659.27,-190.78 1196.01,-413.65 1611.41,-667.43 288.79,181.44 532.66,435.82 731.03,762.53 198.36,326.72 298.13,672.1 298.13,1034.99 0,817.37 -379.22,1425.88 -1137.67,1825.53 -577.59,308.63 -1227.52,517.5 -1949.8,626.6 -722.28,109.1 -1399.05,163.36 -2030.89,163.36zm-758.45 -10706.37c-432.9,0 -807.46,72.93 -1123.67,218.2 -315.63,145.27 -572.92,331.38 -771.87,558.33 -198.36,226.95 -347.14,481.32 -446.9,762.53 -99.18,281.79 -157.52,567.67 -175.61,858.21l4630.62 -762.53c-54.26,-363.47 -252.62,-726.36 -595.67,-1089.83 -343.05,-363.47 -848.88,-544.92 -1516.9,-544.92zm13351.02 10243.14c-198.95,36.76 -492.41,86.35 -880.38,149.94 -387.98,63.59 -780.62,95.68 -1177.93,95.68 -397.31,0 -753.78,-27.42 -1070,-82.26 -315.63,-54.26 -581.67,-163.36 -798.7,-326.72 -216.45,-163.36 -383.31,-385.64 -501.16,-667.43 -117.27,-281.21 -175.61,-649.35 -175.61,-1103.25l0 -15800.81c198.36,-36.17 491.82,-86.35 879.8,-149.94 388.56,-63.59 781.2,-95.1 1177.93,-95.1 397.31,0 753.78,27.42 1070,81.68 315.63,54.26 582.25,163.36 798.7,326.72 216.45,163.94 383.89,386.23 501.16,667.43 117.27,281.79 176.19,649.35 176.19,1103.83l0 15800.23zm8936.27 -13621.15c1083.41,0 2089.82,140.6 3019.21,422.4 929.97,281.21 1728.68,712.94 2396.7,1294.03 668.02,581.09 1191.35,1312.12 1570.57,2193.08 379.22,880.38 568.84,1929.38 568.84,3146.39 0,1162.18 -162.19,2179.08 -487.16,3051.3 -324.97,871.63 -785.87,1602.66 -1381.54,2193.08 -595.67,589.84 -1313.28,1030.32 -2152.83,1320.87 -839.54,290.54 -1773.6,435.82 -2802.76,435.82 -775.95,0 -1498.23,-117.85 -2166.25,-354.14l0 4522.69c-180.86,54.26 -469.65,113.18 -866.38,176.78 -397.31,63.59 -803.96,95.68 -1218.77,95.68 -397.31,0 -753.78,-27.42 -1070,-82.26 -315.63,-54.26 -582.25,-163.36 -798.7,-326.72 -216.45,-163.36 -379.22,-385.64 -487.16,-667.43 -108.52,-281.21 -162.77,-649.35 -162.77,-1103.25l0 -13076.23c0,-490.66 103.85,-890.3 311.55,-1198.93 207.7,-308.63 491.82,-590.42 852.96,-844.21 559.5,-363.47 1254.94,-654.02 2085.15,-872.22 830.21,-217.62 1760.18,-326.72 2789.34,-326.72zm54.26 10406.49c1859.37,0 2789.34,-1116.67 2789.34,-3350.59 0,-1162.18 -230.45,-2025.06 -690.77,-2588.06 -460.32,-563 -1123.67,-844.79 -1990.64,-844.79 -343.05,0 -649.93,40.84 -920.64,123.1 -270.71,81.68 -505.24,176.78 -704.19,285.88l0 5993.49c217.03,108.52 451.57,199.53 704.19,272.46 252.62,72.34 523.91,108.52 812.71,108.52zm15435.59 299.88c306.88,0 645.26,-32.09 1015.74,-95.1 369.89,-63.59 645.26,-149.94 825.54,-259.04l0 -2179.66 -1949.8 163.94c-505.24,36.17 -920.64,145.27 -1245.61,326.72 -324.97,181.44 -487.16,453.9 -487.16,817.37 0,362.89 139.44,658.1 419.48,885.05 280.04,226.95 753.78,340.72 1421.8,340.72zm-216.45 -10706.37c974.9,0 1864.03,99.77 2667.4,299.88 803.37,199.53 1489.48,504.08 2057.73,912.47 568.84,408.4 1006.4,926.47 1313.28,1553.07 307.46,626.6 460.9,1366.37 460.9,2219.92l0 6102.59c0,471.99 -131.27,858.21 -392.64,1157.51 -261.96,299.88 -573.5,558.33 -934.64,776.53 -1173.26,708.27 -2825.51,1062.41 -4955.58,1062.41 -956.81,0 -1819.11,-91.01 -2586.31,-272.46 -767.2,-181.44 -1425.88,-453.9 -1976.63,-817.37 -550.75,-362.89 -974.9,-826.13 -1273.03,-1389.13 -297.55,-563 -446.9,-1217.02 -446.9,-1961.46 0,-1253.19 370.47,-2215.84 1110.25,-2887.94 740.36,-672.1 1886.79,-1089.83 3439.27,-1253.19l3547.79 -380.97 0 -190.78c0,-526.83 -230.45,-903.72 -690.77,-1130.67 -460.32,-226.95 -1123.67,-340.72 -1990.05,-340.72 -686.1,0 -1354.12,72.93 -2004.05,218.2 -649.93,145.27 -1236.85,326.72 -1760.18,544.92 -234.54,-163.36 -433.48,-413.65 -595.67,-749.11 -162.77,-336.05 -243.87,-686.1 -243.87,-1048.99 0,-471.99 112.6,-848.88 338.38,-1130.67 225.78,-281.21 573.5,-522.16 1042.57,-721.69 523.91,-200.11 1141.76,-345.39 1855.28,-435.82 712.94,-91.01 1385.63,-136.52 2017.47,-136.52zm9206.98 -3268.91c0,-690.19 230.45,-1271.28 690.77,-1743.85 460.32,-471.99 1069.41,-708.27 1827.86,-708.27 758.45,0 1367.54,236.29 1827.86,708.27 460.32,472.57 690.77,1053.66 690.77,1743.85 0,690.19 -230.45,1271.28 -690.77,1743.26 -460.32,472.57 -1069.41,708.27 -1827.86,708.27 -758.45,0 -1367.54,-235.7 -1827.86,-708.27 -460.32,-471.99 -690.77,-1053.08 -690.77,-1743.26zm4820.23 16890.06c-198.36,36.76 -491.82,86.35 -879.8,149.94 -388.56,63.59 -781.2,95.68 -1177.93,95.68 -397.31,0 -753.78,-27.42 -1070,-82.26 -315.63,-54.26 -582.25,-163.36 -798.7,-326.72 -216.45,-163.36 -383.89,-385.64 -501.16,-667.43 -117.27,-281.21 -175.61,-649.35 -175.61,-1103.25l0 -11087.93c198.36,-36.17 491.82,-86.35 879.8,-149.36 387.98,-63.59 780.62,-95.68 1177.93,-95.68 397.31,0 753.78,27.42 1070,81.68 315.63,54.84 582.25,163.36 798.7,327.3 216.45,163.36 383.31,385.64 501.16,667.43 117.27,281.21 175.61,648.77 175.61,1103.25l0 11087.35zm14027.79 -3922.93c0,1380.38 -514.58,2460.87 -1543.73,3242.08 -1029.16,780.62 -2545.47,1171.51 -4549.52,1171.51 -757.86,0 -1462.06,-54.84 -2111.99,-163.36 -649.93,-109.1 -1205.35,-277.13 -1665.67,-504.08 -460.32,-226.95 -821.46,-513.41 -1082.83,-858.21 -261.96,-345.39 -393.23,-753.78 -393.23,-1225.77 0,-435.82 90.43,-803.96 271.29,-1103.83 180.28,-299.3 396.73,-549 649.93,-749.11 523.33,290.54 1123.67,549.58 1800.44,776.53 677.35,226.95 1457.97,340.72 2342.44,340.72 560.08,0 988.32,-81.68 1286.45,-245.04 298.13,-163.94 446.9,-381.56 446.9,-654.02 0,-254.37 -108.52,-453.9 -324.97,-599.17 -216.45,-145.27 -577.59,-263.71 -1083.41,-354.14l-812.12 -163.94c-1570.57,-308.63 -2739.75,-794.04 -3506.95,-1457.39 -767.2,-662.77 -1151.09,-1611.41 -1151.09,-2846.52 0,-672.1 144.69,-1280.61 433.48,-1825.53 288.79,-544.92 694.86,-998.82 1218.77,-1361.71 523.33,-363.47 1150.51,-645.26 1882.12,-844.79 731.03,-199.53 1539.07,-299.88 2423.53,-299.88 668.02,0 1295.2,50.17 1882.12,149.94 586.34,99.77 1096.83,249.7 1529.73,449.82 433.48,199.53 776.53,458.57 1029.16,775.95 252.62,317.96 379.22,694.86 379.22,1130.67 0,417.73 -77.01,776.53 -230.45,1076.41 -153.44,299.3 -347.14,549 -582.25,749.11 -144.11,-91.01 -360.55,-186.11 -649.93,-286.46 -288.79,-99.77 -604.42,-190.2 -947.48,-271.87 -343.05,-82.26 -690.77,-149.94 -1042.57,-204.78 -352.39,-54.26 -672.69,-81.68 -961.48,-81.68 -595.67,0 -1055.99,68.26 -1380.96,204.2 -324.97,136.52 -487.74,350.05 -487.74,640.6 0,199.53 90.43,362.89 270.71,490.07 180.86,127.19 523.91,245.62 1029.16,354.14l839.54 190.78c1733.35,399.64 2965.53,949.23 3696.56,1648.17 731.03,699.52 1096.83,1602.66 1096.83,2710.58zm2111.99 -12967.13c0,-690.19 230.45,-1271.28 690.77,-1743.85 460.32,-471.99 1069.41,-708.27 1827.86,-708.27 758.45,0 1367.54,236.29 1827.86,708.27 460.32,472.57 690.77,1053.66 690.77,1743.85 0,690.19 -230.45,1271.28 -690.77,1743.26 -460.32,472.57 -1069.41,708.27 -1827.86,708.27 -758.45,0 -1367.54,-235.7 -1827.86,-708.27 -460.32,-471.99 -690.77,-1053.08 -690.77,-1743.26zm4820.23 16890.06c-198.36,36.76 -491.82,86.35 -879.8,149.94 -387.98,63.59 -780.62,95.68 -1177.93,95.68 -397.31,0 -753.78,-27.42 -1070,-82.26 -315.63,-54.26 -582.25,-163.36 -798.7,-326.72 -216.45,-163.36 -383.31,-385.64 -501.16,-667.43 -117.27,-281.21 -175.61,-649.35 -175.61,-1103.25l0 -11087.93c198.36,-36.17 491.82,-86.35 879.8,-149.36 388.56,-63.59 781.2,-95.68 1177.93,-95.68 397.31,0 753.78,27.42 1070,81.68 315.63,54.84 582.25,163.36 798.7,327.3 216.45,163.36 383.89,385.64 501.16,667.43 117.27,281.21 175.61,648.77 175.61,1103.25l0 11087.35zm7528.48 -4522.1c0,471.99 148.77,808.04 446.9,1008.15 298.13,199.53 717.61,299.3 1259.02,299.3 271.29,0 550.75,-22.75 839.54,-67.68 288.79,-45.51 542,-104.43 758.45,-177.36 162.19,199.53 302.21,422.4 419.48,667.43 117.27,245.04 176.19,540.25 176.19,885.63 0,690.19 -257.29,1253.19 -771.87,1689.01 -514.58,435.82 -1421.8,653.43 -2721.66,653.43 -1588.66,0 -2811.51,-362.89 -3669.14,-1089.25 -857.63,-726.94 -1286.45,-1907.21 -1286.45,-3541.95l0 -11659.68c198.95,-54.26 483.07,-113.18 852.96,-176.78 370.47,-63.59 763.12,-95.68 1177.93,-95.68 794.62,0 1413.05,140.6 1855.28,422.4 442.23,281.21 663.35,876.3 663.35,1784.1l0 1743.85 3547.79 0c107.93,199.53 211.78,449.23 310.96,749.11 99.77,299.88 149.36,631.26 149.36,994.15 0,635.93 -140.02,1094.5 -420.06,1375.71 -279.46,281.79 -654.02,422.4 -1123.67,422.4l-2464.37 0 0 4113.71zm11860.97 1607.33c306.88,0 645.85,-32.09 1015.74,-95.1 369.89,-63.59 645.26,-149.94 826.13,-259.04l0 -2179.66 -1949.8 163.94c-505.83,36.17 -920.64,145.27 -1245.61,326.72 -324.97,181.44 -487.74,453.9 -487.74,817.37 0,362.89 140.02,658.1 420.06,885.05 279.46,226.95 753.78,340.72 1421.22,340.72zm-216.45 -10706.37c974.9,0 1864.03,99.77 2667.4,299.88 803.37,199.53 1489.48,504.08 2058.31,912.47 568.25,408.4 1006.4,926.47 1313.28,1553.07 306.88,626.6 460.32,1366.37 460.32,2219.92l0 6102.59c0,471.99 -130.69,858.21 -392.64,1157.51 -261.96,299.88 -573.5,558.33 -934.06,776.53 -1173.84,708.27 -2825.51,1062.41 -4956.17,1062.41 -956.81,0 -1818.53,-91.01 -2585.73,-272.46 -767.2,-181.44 -1426.47,-453.9 -1977.22,-817.37 -550.75,-362.89 -974.9,-826.13 -1272.44,-1389.13 -298.13,-563 -446.9,-1217.02 -446.9,-1961.46 0,-1253.19 369.89,-2215.84 1110.25,-2887.94 740.36,-672.1 1886.79,-1089.83 3439.27,-1253.19l3547.2 -380.97 0 -190.78c0,-526.83 -229.87,-903.72 -690.19,-1130.67 -460.32,-226.95 -1124.25,-340.72 -1990.64,-340.72 -686.1,0 -1354.12,72.93 -2004.05,218.2 -649.93,145.27 -1236.27,326.72 -1760.18,544.92 -234.54,-163.36 -432.9,-413.65 -595.67,-749.11 -162.19,-336.05 -243.87,-686.1 -243.87,-1048.99 0,-471.99 113.18,-848.88 338.97,-1130.67 225.2,-281.21 572.92,-522.16 1042.57,-721.69 523.33,-200.11 1141.76,-345.39 1854.7,-435.82 712.94,-91.01 1385.63,-136.52 2017.47,-136.52zm13919.28 13621.15c-180.28,54.84 -464.99,109.1 -852.96,163.36 -387.98,54.84 -789.95,82.26 -1205.35,82.26 -396.73,0 -753.78,-27.42 -1069.41,-82.26 -316.21,-54.26 -582.25,-163.36 -798.7,-326.72 -217.03,-163.36 -383.89,-385.64 -501.16,-667.43 -117.27,-281.21 -176.19,-649.35 -176.19,-1103.25l0 -8172.57c0,-417.73 77.01,-776.53 230.45,-1076.41 153.44,-299.3 374.56,-567.67 663.35,-803.37 288.79,-236.29 645.26,-449.82 1069.41,-640.6 424.73,-190.2 880.38,-358.22 1367.54,-503.49 487.74,-145.27 992.98,-259.04 1516.9,-340.72 523.33,-81.68 1047.24,-122.52 1570.57,-122.52 866.38,0 1552.49,168.03 2058.31,504.08 505.24,335.47 757.86,885.05 757.86,1648.17 0,253.79 -36.17,503.49 -107.93,749.11 -72.34,245.04 -162.77,467.32 -271.29,667.43 -378.64,0 -767.2,18.09 -1163.93,54.26 -397.31,36.17 -785.87,91.01 -1164.51,163.36 -379.22,72.93 -735.69,149.94 -1070,231.62 -333.72,81.68 -618.43,177.36 -852.96,285.88l0 9289.83zm12971.22 463.24c-1064.74,0 -2053.06,-149.94 -2964.95,-449.23 -911.89,-299.88 -1705.93,-749.11 -2383.28,-1348.87 -676.77,-599.17 -1209.43,-1352.96 -1597.41,-2260.76 -388.56,-908.39 -582.25,-1970.8 -582.25,-3187.82 0,-1198.35 193.7,-2229.25 582.25,-3091.55 387.98,-862.88 897.89,-1571.15 1529.73,-2125.41 631.85,-553.67 1354.12,-962.06 2166.25,-1225.77 812.71,-263.12 1642.92,-394.98 2491.79,-394.98 956.81,0 1827.86,145.27 2613.15,435.82 785.29,290.54 1462.06,690.19 2030.89,1198.93 568.84,508.16 1011.07,1116.67 1327.28,1824.94 315.63,708.27 473.74,1480.14 473.74,2315.6 0,617.84 -171.53,1089.83 -514.58,1416.55 -343.05,327.3 -821.46,536.16 -1435.22,626.6l-6688.93 1008.15c198.36,599.17 605.01,1048.99 1218.77,1348.29 613.76,299.88 1317.95,449.82 2111.99,449.82 740.36,0 1439.89,-95.68 2099.15,-285.88 658.68,-190.78 1196.01,-413.65 1610.83,-667.43 288.79,181.44 532.66,435.82 731.61,762.53 198.36,326.72 297.55,672.1 297.55,1034.99 0,817.37 -379.22,1425.88 -1137.09,1825.53 -578.17,308.63 -1228.1,517.5 -1949.8,626.6 -722.28,109.1 -1399.63,163.36 -2031.47,163.36zm-757.86 -10706.37c-433.48,0 -808.04,72.93 -1123.67,218.2 -316.21,145.27 -573.5,331.38 -771.87,558.33 -198.95,226.95 -347.72,481.32 -446.9,762.53 -99.18,281.79 -158.11,567.67 -176.19,858.21l4630.62 -762.53c-54.26,-363.47 -252.62,-726.36 -595.67,-1089.83 -343.05,-363.47 -848.3,-544.92 -1516.31,-544.92zm7799.18 -817.37c144.11,-690.19 428.82,-1253.19 852.96,-1689.01 424.15,-435.82 952.14,-653.43 1583.99,-653.43 595.67,0 1055.99,145.27 1380.96,435.82 324.97,290.54 686.1,698.94 1083.41,1225.77l1733.35 2288.18 2897.27 -3949.77c992.98,0 1778.27,176.78 2355.86,530.91 578.17,354.14 866.96,830.79 866.96,1430.55 0,235.7 -31.5,449.23 -95.1,640.01 -63.01,190.78 -157.52,385.64 -284.13,585.76 -126.6,199.53 -288.79,426.48 -487.74,680.85 -198.36,254.37 -432.9,554.25 -703.61,899.05l-1787.6 2016.31 3547.79 4712.88c-90.43,690.19 -361.14,1234.52 -812.71,1634.16 -450.99,399.64 -992.98,599.76 -1624.83,599.76 -686.1,-18.67 -1232.19,-218.2 -1638.25,-599.76 -406.06,-380.97 -798.7,-844.21 -1177.93,-1389.13l-1462.64 -2097.98 -2761.92 4005.19c-90.43,0 -189.61,4.08 -298.13,13.42 -107.93,8.75 -198.36,13.42 -270.71,13.42 -920.64,0 -1620.16,-190.78 -2098.57,-571.75 -478.41,-381.56 -717.61,-853.55 -717.61,-1416.55 0,-436.4 103.85,-822.04 311.55,-1158.09 207.7,-336.05 564.17,-794.62 1069.41,-1375.71l2166.25 -2533.8 -3628.3 -4277.07zm19497.37 6538.41c0,471.99 149.36,808.04 446.9,1008.15 298.13,199.53 717.61,299.3 1259.61,299.3 270.71,0 550.17,-22.75 838.96,-67.68 289.38,-45.51 542,-104.43 758.45,-177.36 162.77,199.53 302.21,422.4 420.06,667.43 117.27,245.04 175.61,540.25 175.61,885.63 0,690.19 -257.29,1253.19 -771.87,1689.01 -513.99,435.82 -1421.22,653.43 -2721.08,653.43 -1588.66,0 -2812.09,-362.89 -3669.72,-1089.25 -857.63,-726.94 -1286.45,-1907.21 -1286.45,-3541.95l0 -11659.68c198.95,-54.26 483.07,-113.18 853.55,-176.78 369.89,-63.59 762.53,-95.68 1177.93,-95.68 794.04,0 1412.46,140.6 1854.7,422.4 442.23,281.21 663.35,876.3 663.35,1784.1l0 1743.85 3547.79 0c108.52,199.53 211.78,449.23 311.55,749.11 99.18,299.88 148.77,631.26 148.77,994.15 0,635.93 -140.02,1094.5 -419.48,1375.71 -280.04,281.79 -654.6,422.4 -1124.25,422.4l-2464.37 0 0 4113.71zm19687.57 -2070.56c0,1126 -171.53,2129.49 -514.58,3010.46 -343.05,880.97 -826.13,1620.75 -1448.64,2220.5 -623.09,599.17 -1367.54,1053.08 -2234.51,1361.71 -866.38,308.63 -1831.94,463.24 -2897.27,463.24 -1065.33,0 -2030.89,-163.36 -2897.86,-490.07 -866.38,-327.3 -1610.83,-794.62 -2233.92,-1403.13 -623.09,-608.51 -1105.58,-1348.87 -1448.64,-2220.5 -343.05,-871.63 -514.58,-1852.36 -514.58,-2942.2 0,-1071.16 171.53,-2043.14 514.58,-2914.78 343.05,-871.63 825.54,-1611.99 1448.64,-2220.5 623.09,-608.51 1367.54,-1075.83 2233.92,-1402.55 866.96,-327.3 1832.53,-490.66 2897.86,-490.66 1065.33,0 2030.89,168.03 2897.27,504.08 866.96,336.05 1611.41,808.04 2234.51,1416.55 622.51,608.51 1105.58,1348.29 1448.64,2220.5 343.05,871.63 514.58,1834.28 514.58,2887.35zm-9478.27 0c0,1107.92 212.37,1956.8 636.51,2547.22 424.15,590.42 1015.74,885.63 1773.6,885.63 758.45,0 1340.7,-299.88 1746.76,-899.05 406.06,-599.17 609.68,-1443.97 609.68,-2533.8 0,-1089.83 -207.7,-1929.38 -623.09,-2519.8 -415.4,-590.42 -1001.74,-885.63 -1760.18,-885.63 -758.45,0 -1344.79,295.21 -1760.18,885.63 -415.4,590.42 -623.09,1429.97 -623.09,2519.8zm20066.79 -1770.69c0,-563 -158.11,-976.06 -474.32,-1239.77 -315.63,-263.12 -744.45,-394.98 -1285.86,-394.98 -361.14,0 -717.61,45.51 -1070,136.52 -351.8,91.01 -654.6,226.95 -907.22,408.4l0 9453.18c-180.28,54.84 -464.99,109.1 -852.96,163.36 -387.98,54.84 -789.95,82.26 -1204.77,82.26 -397.31,0 -753.78,-27.42 -1070,-82.26 -315.63,-54.26 -582.25,-163.36 -798.7,-326.72 -216.45,-163.36 -383.89,-385.64 -501.16,-667.43 -117.27,-281.21 -175.61,-649.35 -175.61,-1103.25l0 -8172.57c0,-490.66 103.27,-890.3 310.96,-1198.93 207.7,-308.63 492.41,-590.42 852.96,-844.21 613.76,-436.4 1385.63,-790.54 2315.6,-1062.99 929.97,-271.87 1963.21,-408.4 3100.89,-408.4 2039.64,0 3610.21,449.82 4711.71,1348.29 1101.5,899.05 1651.67,2147.58 1651.67,3746.15l0 8526.71c-180.28,54.84 -464.4,109.1 -852.96,163.36 -387.98,54.84 -789.37,82.26 -1204.77,82.26 -397.31,0 -753.78,-27.42 -1070,-82.26 -315.63,-54.26 -582.25,-163.36 -798.7,-326.72 -216.45,-163.36 -383.31,-385.64 -501.16,-667.43 -117.27,-281.21 -175.61,-649.35 -175.61,-1103.25l0 -6429.31z"/>
  <g>
   <path class="fil3 str0" d="M23252.86 24328.69c-571.75,-196.61 -1091.58,-396.14 -1560.65,-598.59 -467.32,-203.03 -871.05,-448.07 -1209.43,-736.28 -338.38,-287.63 -600.92,-631.26 -789.37,-1029.74 -188.45,-399.64 -283.54,-886.8 -283.54,-1462.06 0,-1112.59 426.48,-2001.72 1278.28,-2669.15 851.21,-667.43 2044.89,-1001.15 3579.29,-1001.15 558.92,0 1079.33,39.09 1560.07,117.85 481.91,78.76 894.39,199.53 1239.19,362.89 344.8,163.94 614.93,372.81 809.79,628.35 194.86,254.96 292.29,552.5 292.29,892.64 0,340.13 -77.6,631.26 -233.95,873.38 -156.36,242.12 -344.8,448.07 -565.92,617.84 -285.88,-183.19 -669.77,-343.05 -1150.51,-480.74 -481.32,-137.1 -1008.15,-205.36 -1580.49,-205.36 -585.17,0 -1014.57,81.1 -1287.03,245.04 -273.62,163.36 -409.56,369.31 -409.56,618.43 0,195.45 84.01,355.89 253.21,480.74 168.61,123.69 422.98,238.04 760.2,343.05l1034.41 333.72c1222.27,392.06 2162.16,892.64 2818.51,1501.14 656.93,608.51 985.4,1435.8 985.4,2482.46 0,1112 -435.23,2011.05 -1306.86,2698.33 -871.63,687.27 -2152.24,1030.32 -3843,1030.32 -598.01,0 -1154.01,-49.01 -1668,-147.02 -513.41,-98.6 -962.06,-242.12 -1345.95,-431.73 -383.31,-190.2 -682.6,-425.9 -896.72,-706.52 -215.28,-281.79 -322.63,-605.01 -322.63,-971.4 0,-379.22 110.85,-703.61 331.97,-971.4 220.53,-268.37 461.49,-474.32 721.69,-618.43 364.06,287.63 809.21,536.75 1336.04,745.61 526.83,210.03 1102.67,314.46 1726.35,314.46 637.68,0 1086.33,-98.6 1346.54,-294.63 259.62,-196.03 390.31,-425.31 390.31,-686.69 0,-261.96 -104.43,-461.49 -312.71,-598.59 -208.28,-137.69 -500.58,-271.29 -878.05,-402.56l-819.12 -274.21zm10065.78 -9871.5c675.6,0 1166.84,131.27 1472.56,392.64 305.71,261.96 458.57,575.84 458.57,942.23 0,340.13 -91.01,624.26 -273.04,853.55 -182.03,228.7 -481.32,454.49 -897.3,676.77l-2516.3 1334.87c-390.31,-39.09 -721.69,-196.61 -995.32,-471.4 -273.04,-274.79 -409.56,-569.42 -409.56,-882.72 0,-156.94 39.09,-314.46 117.27,-471.4 78.18,-156.94 207.7,-301.05 390.31,-431.15l2652.82 -1943.38zm467.9 14581.46c-142.94,25.67 -354.14,61.84 -633.6,107.93 -280.04,44.92 -563,68.26 -848.88,68.26 -286.46,0 -543.17,-19.84 -770.7,-59.51 -227.53,-39.09 -418.9,-116.68 -575.25,-234.54 -155.77,-117.85 -276.54,-278.29 -361.14,-481.32 -84.01,-202.45 -126.6,-467.32 -126.6,-794.62l0 -7987.04c142.94,-26.25 354.14,-61.84 634.18,-107.93 279.46,-46.09 562.42,-68.26 848.3,-68.26 285.88,0 543.17,19.25 770.12,58.34 228.12,39.09 420.06,117.85 575.84,235.7 156.36,117.85 276.54,278.29 360.55,480.74 85.18,203.03 127.19,467.9 127.19,794.62l0 7987.63zm6730.35 -9811.99c740.95,0 1414.21,94.51 2018.64,284.13 605.01,189.61 1115.5,434.65 1531.48,735.69 260.21,183.78 464.99,385.64 614.93,608.51 149.36,222.28 224.03,510.49 224.03,863.46l0 6868.63c0,693.11 -130.1,1291.7 -390.31,1795.19 -260.21,503.49 -614.34,922.39 -1062.99,1256.11 -448.65,333.13 -974.9,578.75 -1579.91,736.28 -605.01,156.94 -1252.02,235.12 -1941.04,235.12 -1183.76,0 -2113.74,-160.44 -2789.92,-481.32 -675.6,-319.72 -1013.99,-840.13 -1013.99,-1559.49 0,-301.05 61.84,-565.92 185.53,-794.62 123.1,-229.28 263.12,-402.56 418.9,-520.41 376.89,209.45 803.37,386.23 1277.69,530.33 475.49,143.52 965.56,215.28 1473.14,215.28 701.86,0 1261.36,-117.85 1677.34,-353.55 416.56,-234.54 624.26,-614.34 624.26,-1137.67l0 -313.88c-533.25,235.7 -1183.18,353.55 -1950.96,353.55 -585.17,0 -1140.59,-88.68 -1667.42,-264.87 -526.83,-177.36 -988.9,-451.57 -1385.04,-824.38 -396.73,-373.39 -715.28,-854.13 -955.64,-1442.8 -240.95,-588.09 -361.14,-1288.78 -361.14,-2099.74 0,-798.12 126.6,-1491.81 380.39,-2079.9 253.21,-588.67 605.01,-1075.83 1053.66,-1462.06 448.65,-386.23 981.9,-673.85 1599.16,-863.46 617.84,-189.61 1291.11,-284.13 2019.22,-284.13zm1209.43 2844.76c-91.01,-52.51 -224.03,-104.43 -400.23,-156.94 -175.61,-52.51 -393.23,-78.18 -653.43,-78.18 -637.1,0 -1114.92,179.69 -1434.05,539.67 -317.96,359.39 -477.24,873.38 -477.24,1540.23 0,759.03 159.27,1305.11 477.24,1638.25 319.13,333.72 725.78,501.16 1219.94,501.16 532.66,0 955.64,-124.85 1267.78,-372.81l0 -3611.38zm5228.04 -2413.62c129.52,-39.09 334.88,-78.76 613.76,-117.85 280.04,-39.09 569.42,-58.34 868.72,-58.34 286.46,0 543.17,19.25 770.7,58.34 226.95,39.09 418.9,117.85 575.25,235.7 155.77,117.85 276.54,278.29 361.14,480.74 84.01,203.03 126.6,467.9 126.6,794.62l0 4219.31c0,536.16 130.1,918.89 390.31,1147.59 260.21,229.28 637.1,343.64 1130.67,343.64 299.3,0 543.75,-25.67 732.19,-78.18 188.45,-51.92 334.88,-105.02 438.73,-157.52l0 -6868.04c130.1,-39.09 334.88,-78.76 614.93,-117.85 278.88,-39.09 568.25,-58.34 867.55,-58.34 286.46,0 543.17,19.25 770.7,58.34 227.53,39.09 419.48,117.85 575.25,235.7 155.77,117.85 276.54,278.29 361.14,480.74 84.01,203.03 126.6,467.9 126.6,794.62l0 5965.49c0,654.6 -273.04,1145.26 -819.71,1471.97 -455.07,287.63 -997.65,507.58 -1628.33,658.1 -630.68,149.94 -1316.78,225.2 -2058.31,225.2 -701.86,0 -1348.87,-78.18 -1940.46,-235.7 -591.59,-156.94 -1102.67,-398.48 -1531.48,-726.36 -429.4,-326.72 -760.78,-748.53 -995.32,-1265.44 -233.37,-516.33 -350.64,-1141.76 -350.64,-1873.95l0 -5612.52zm16366.15 9713.97c-767.2,0 -1479.56,-107.93 -2135.91,-323.8 -656.93,-215.87 -1228.69,-539.67 -1716.43,-971.4 -487.74,-431.73 -871.63,-974.9 -1151.09,-1628.91 -280.04,-654.02 -419.48,-1419.47 -419.48,-2296.35 0,-863.46 139.44,-1605.58 419.48,-2226.92 279.46,-621.34 646.43,-1131.84 1102.08,-1530.9 455.07,-399.06 975.48,-693.11 1560.07,-882.72 585.76,-189.61 1184.35,-284.13 1795.19,-284.13 689.02,0 1316.78,104.43 1882.7,313.3 565.34,209.45 1053.08,497.08 1462.64,863.46 409.56,366.39 728.11,804.54 955.64,1315.03 227.53,510.49 341.89,1066.5 341.89,1668 0,444.57 -124.27,784.7 -371.06,1020.4 -246.79,235.12 -591.59,385.64 -1033.24,451.57l-4818.48 725.78c142.94,431.73 435.23,755.53 877.47,971.98 442.23,215.28 949.81,323.22 1521.56,323.22 533.25,0 1037.32,-68.26 1512.23,-206.53 474.32,-137.1 861.13,-297.55 1160.43,-480.16 207.7,130.69 383.89,313.88 526.83,549.58 142.94,235.12 214.12,484.24 214.12,745.61 0,588.67 -273.04,1026.82 -819.12,1315.03 -415.98,222.28 -883.88,372.81 -1404.3,450.99 -520.41,78.76 -1007.57,117.85 -1463.22,117.85zm-546.08 -7712.25c-312.13,0 -581.67,51.92 -809.79,156.94 -227.53,105.02 -412.48,238.62 -555.42,402.56 -142.94,163.36 -250.29,346.55 -322.63,549 -71.18,203.03 -113.18,408.98 -126.02,618.43l3335.42 -549.58c-39.09,-261.96 -182.61,-523.33 -429.4,-785.29 -246.79,-261.37 -611.43,-392.06 -1092.17,-392.06zm12250.11 1354.12c0,-405.48 -113.77,-703.61 -341.3,-892.64 -227.53,-189.61 -536.16,-284.71 -926.47,-284.71 -260.21,0 -516.91,32.09 -770.7,97.43 -253.79,65.93 -471.4,163.94 -653.43,295.21l0 6809.7c-129.52,38.51 -334.88,77.6 -614.34,116.68 -280.04,39.67 -568.84,59.51 -868.13,59.51 -286.46,0 -543.17,-19.84 -770.7,-59.51 -228.12,-39.09 -418.9,-116.68 -575.25,-234.54 -156.36,-117.85 -276.54,-278.29 -361.14,-481.32 -84.01,-202.45 -126.6,-467.32 -126.6,-794.62l0 -5887.31c0,-352.97 74.68,-641.18 224.62,-863.46 149.36,-222.28 353.55,-425.31 613.76,-608.51 442.82,-313.3 998.82,-569.42 1668.59,-764.87 669.77,-196.61 1414.21,-294.04 2233.34,-294.04 1469.64,0 2600.31,323.22 3393.76,970.81 793.45,647.01 1190.18,1547.23 1190.18,2698.33l0 6142.85c-129.52,38.51 -334.88,77.6 -614.34,116.68 -280.04,39.67 -568.84,59.51 -868.13,59.51 -285.88,0 -542.58,-19.84 -770.12,-59.51 -227.53,-39.09 -419.48,-116.68 -575.84,-234.54 -156.36,-117.85 -276.54,-278.29 -360.55,-481.32 -84.6,-202.45 -127.19,-467.32 -127.19,-794.62l0 -4631.2zm15176.55 1275.36c0,810.96 -123.1,1533.82 -370.47,2168.58 -246.79,634.18 -595.09,1167.43 -1043.74,1599.74 -448.65,431.15 -985.4,757.86 -1609.08,981.32 -624.26,222.28 -1319.7,333.13 -2087.48,333.13 -766.62,0 -1463.22,-117.85 -2086.9,-353.55 -624.26,-235.7 -1161.01,-572.34 -1609.66,-1010.49 -448.65,-438.15 -796.37,-971.4 -1043.16,-1599.74 -247.37,-627.76 -371.06,-1333.7 -371.06,-2118.99 0,-771.87 123.69,-1471.97 371.06,-2099.74 246.79,-628.35 594.51,-1161.01 1043.16,-1599.74 448.65,-437.57 985.4,-774.78 1609.66,-1010.49 623.68,-235.7 1320.28,-352.39 2086.9,-352.39 767.78,0 1463.22,120.18 2087.48,362.3 623.68,242.12 1160.43,582.25 1609.08,1020.99 448.65,437.57 796.95,970.81 1043.74,1598.58 247.37,628.35 370.47,1322.03 370.47,2080.48zm-6827.2 0c0,798.12 152.86,1409.55 458.57,1834.86 305.71,425.31 731.03,637.68 1277.69,637.68 546.08,0 965.56,-215.28 1258.44,-647.6 292.29,-431.15 438.73,-1039.66 438.73,-1824.94 0,-784.7 -149.94,-1389.71 -448.65,-1815.03 -299.3,-425.31 -722.28,-637.68 -1268.36,-637.68 -545.5,0 -968.48,212.37 -1267.78,637.68 -299.3,425.31 -448.65,1030.32 -448.65,1815.03zm16444.33 1923.54c0,993.57 -370.47,1772.44 -1111.42,2335.44 -742.11,562.42 -1833.69,843.04 -3277.66,843.04 -546.08,0 -1053.66,-39.09 -1521.56,-117.85 -467.9,-78.18 -868.13,-198.95 -1199.52,-362.3 -331.38,-163.94 -591.59,-369.89 -780.03,-618.43 -189.03,-248.54 -282.96,-542.58 -282.96,-883.3 0,-313.88 64.76,-578.75 194.86,-794.62 130.1,-215.87 286.46,-395.56 468.49,-539.67 376.89,209.45 809.21,396.14 1296.95,558.92 487.74,163.94 1050.16,245.62 1687.26,245.62 403.14,0 712.36,-58.34 926.47,-176.19 214.7,-117.85 322.63,-274.79 322.63,-471.4 0,-183.19 -78.18,-326.72 -234.54,-431.15 -156.36,-105.6 -415.98,-190.2 -780.03,-256.12l-585.76 -116.68c-1130.67,-223.45 -1973.13,-572.92 -2526.22,-1050.74 -552.5,-477.24 -829.04,-1161.01 -829.04,-2050.73 0,-483.66 103.85,-921.81 312.71,-1314.45 207.7,-392.64 499.99,-719.94 877.47,-981.32 376.89,-261.37 829.04,-464.99 1355.87,-608.51 526.83,-143.52 1108.5,-215.87 1745.6,-215.87 481.32,0 932.89,36.17 1355.87,107.93 422.98,71.76 789.95,179.69 1102.67,324.38 311.55,143.52 558.92,330.22 740.95,558.92 182.03,229.28 272.46,499.99 272.46,814.46 0,301.05 -54.84,558.92 -165.11,774.78 -110.85,216.45 -250.29,396.14 -419.48,539.67 -103.85,-64.76 -260.21,-133.6 -467.9,-205.36 -208.28,-72.34 -436.4,-137.69 -683.19,-196.61 -247.37,-58.93 -497.66,-107.93 -750.86,-147.02 -253.79,-39.09 -484.24,-58.93 -693.11,-58.93 -428.82,0 -760.2,49.01 -994.73,147.02 -233.95,98.6 -351.22,252.04 -351.22,460.9 0,144.11 65.34,261.96 195.45,353.55 130.1,91.6 376.89,176.78 740.95,254.96l605.01 137.1c1248.52,288.79 2135.91,683.77 2662.74,1187.85 526.83,503.49 789.95,1154.59 789.95,1952.71zm10515.01 3159.23c-767.78,0 -1479.56,-107.93 -2136.49,-323.8 -656.93,-215.87 -1228.69,-539.67 -1716.43,-971.4 -487.74,-431.73 -871.63,-974.9 -1150.51,-1628.91 -280.04,-654.02 -419.48,-1419.47 -419.48,-2296.35 0,-863.46 139.44,-1605.58 419.48,-2226.92 278.88,-621.34 646.43,-1131.84 1101.5,-1530.9 455.65,-399.06 975.48,-693.11 1560.65,-882.72 585.76,-189.61 1183.76,-284.13 1794.61,-284.13 689.6,0 1316.78,104.43 1882.7,313.3 565.92,209.45 1053.66,497.08 1463.22,863.46 409.56,366.39 727.53,804.54 955.64,1315.03 227.53,510.49 341.3,1066.5 341.3,1668 0,444.57 -123.69,784.7 -370.47,1020.4 -246.79,235.12 -591.59,385.64 -1033.82,451.57l-4818.48 725.78c142.94,431.73 435.82,755.53 877.47,971.98 442.23,215.28 949.81,323.22 1521.56,323.22 533.25,0 1037.91,-68.26 1512.23,-206.53 474.32,-137.1 861.71,-297.55 1160.43,-480.16 208.28,130.69 383.89,313.88 526.83,549.58 142.94,235.12 214.7,484.24 214.7,745.61 0,588.67 -273.62,1026.82 -819.12,1315.03 -416.56,222.28 -884.47,372.81 -1404.3,450.99 -521,78.76 -1008.15,117.85 -1463.22,117.85zm-546.67 -7712.25c-311.55,0 -581.67,51.92 -809.21,156.94 -227.53,105.02 -413.06,238.62 -556,402.56 -142.94,163.36 -250.29,346.55 -322.05,549 -71.76,203.03 -113.18,408.98 -126.6,618.43l3336.01 -549.58c-39.09,-261.96 -182.61,-523.33 -429.4,-785.29 -247.37,-261.37 -611.43,-392.06 -1092.75,-392.06zm12250.11 1354.12c0,-405.48 -113.77,-703.61 -341.3,-892.64 -227.53,-189.61 -536.16,-284.71 -926.47,-284.71 -260.21,0 -516.91,32.09 -770.12,97.43 -254.37,65.93 -471.99,163.94 -654.02,295.21l0 6809.7c-129.52,38.51 -334.88,77.6 -613.76,116.68 -280.04,39.67 -569.42,59.51 -868.72,59.51 -286.46,0 -543.17,-19.84 -770.7,-59.51 -227.53,-39.09 -418.9,-116.68 -575.25,-234.54 -155.77,-117.85 -276.54,-278.29 -361.14,-481.32 -84.01,-202.45 -126.6,-467.32 -126.6,-794.62l0 -5887.31c0,-352.97 75.26,-641.18 224.62,-863.46 149.36,-222.28 354.14,-425.31 614.34,-608.51 442.23,-313.3 998.23,-569.42 1668,-764.87 669.77,-196.61 1414.21,-294.04 2233.34,-294.04 1469.64,0 2600.89,323.22 3394.35,970.81 793.45,647.01 1189.6,1547.23 1189.6,2698.33l0 6142.85c-129.52,38.51 -334.88,77.6 -613.76,116.68 -280.04,39.67 -569.42,59.51 -868.72,59.51 -285.88,0 -542.58,-19.84 -770.12,-59.51 -227.53,-39.09 -419.48,-116.68 -575.84,-234.54 -155.77,-117.85 -276.54,-278.29 -360.55,-481.32 -84.6,-202.45 -127.19,-467.32 -127.19,-794.62l0 -4631.2zm12914.63 2197.75l0 3767.74c-142.94,39.09 -367.56,78.76 -673.27,117.85 -305.71,39.09 -607.34,58.34 -906.64,58.34 -299.3,0 -562.42,-22.17 -789.95,-68.26 -227.53,-46.09 -416.56,-127.19 -565.92,-245.04 -149.36,-117.85 -263.12,-281.79 -341.3,-490.66 -78.18,-209.45 -117.27,-483.66 -117.27,-824.38l0 -9242.57c0,-274.79 74.68,-487.16 224.03,-637.68 149.94,-150.52 354.72,-271.87 614.93,-363.47 442.23,-157.52 955.64,-271.87 1540.82,-343.64 585.76,-71.76 1209.43,-107.93 1872.78,-107.93 1794.61,0 3146.98,379.81 4057.7,1138.26 910.14,759.03 1365.21,1785.85 1365.21,3081.05 0,810.96 -207.7,1504.64 -624.26,2080.48 -415.98,575.25 -910.14,1019.82 -1481.89,1334.29 467.9,641.18 929.39,1242.69 1383.88,1805.11 455.65,562.42 813.87,1073.5 1073.5,1530.9 -130.1,457.99 -366.97,808.04 -711.77,1049.58 -344.8,242.12 -732.19,363.47 -1161.01,363.47 -285.88,0 -533.25,-32.67 -740.95,-98.6 -208.28,-65.34 -390.31,-156.36 -546.67,-274.21 -155.77,-117.85 -299.3,-261.37 -428.82,-432.32 -130.1,-169.19 -253.21,-352.39 -370.47,-549l-1638.83 -2649.32 -1033.82 0zm1228.69 -2609.65c494.16,0 884.47,-127.77 1170.34,-382.72 285.88,-254.96 429.98,-631.26 429.98,-1128.34 0,-497.66 -159.86,-873.97 -478.99,-1128.92 -317.96,-254.96 -822.04,-382.72 -1511.06,-382.72 -195.45,0 -351.8,7 -468.49,20.42 -117.27,12.25 -246.79,32.09 -389.73,58.34l0 2943.95 1247.94 0zm11724.44 6770.03c-767.78,0 -1480.14,-107.93 -2136.49,-323.8 -656.93,-215.87 -1228.69,-539.67 -1716.43,-971.4 -487.74,-431.73 -871.63,-974.9 -1151.09,-1628.91 -279.46,-654.02 -419.48,-1419.47 -419.48,-2296.35 0,-863.46 140.02,-1605.58 419.48,-2226.92 279.46,-621.34 647.01,-1131.84 1102.08,-1530.9 455.07,-399.06 975.48,-693.11 1560.65,-882.72 585.17,-189.61 1183.76,-284.13 1794.61,-284.13 689.6,0 1316.78,104.43 1882.7,313.3 565.34,209.45 1053.08,497.08 1463.22,863.46 409.56,366.39 727.53,804.54 955.06,1315.03 228.12,510.49 341.89,1066.5 341.89,1668 0,444.57 -123.69,784.7 -370.47,1020.4 -247.37,235.12 -592.17,385.64 -1033.82,451.57l-4818.48 725.78c142.94,431.73 435.82,755.53 877.47,971.98 442.23,215.28 949.81,323.22 1521.56,323.22 533.25,0 1037.32,-68.26 1512.23,-206.53 474.32,-137.1 861.71,-297.55 1160.43,-480.16 207.7,130.69 383.89,313.88 526.83,549.58 142.94,235.12 214.7,484.24 214.7,745.61 0,588.67 -273.62,1026.82 -819.71,1315.03 -415.98,222.28 -883.88,372.81 -1404.3,450.99 -520.41,78.76 -1007.57,117.85 -1462.64,117.85zm-546.67 -7712.25c-312.13,0 -581.67,51.92 -809.21,156.94 -228.12,105.02 -413.06,238.62 -556,402.56 -142.94,163.36 -250.29,346.55 -322.63,549 -71.18,203.03 -113.18,408.98 -126.02,618.43l3336.01 -549.58c-39.09,-261.96 -183.19,-523.33 -429.98,-785.29 -246.79,-261.37 -611.43,-392.06 -1092.17,-392.06zm5832.47 2629.48c0,-863.46 129.52,-1611.99 389.73,-2246.76 260.21,-634.76 621.34,-1161.59 1082.83,-1579.91 462.07,-418.31 1001.74,-729.28 1619,-932.31 618.43,-202.45 1284.69,-303.38 1999.97,-303.38 260.21,0 513.41,22.17 760.2,68.26 247.95,45.51 448.65,101.52 605.01,166.28l0 -3178.48c130.69,-39.67 338.38,-82.26 624.26,-127.77 286.46,-46.09 578.75,-68.84 878.05,-68.84 285.88,0 542.58,19.84 770.12,58.93 227.53,39.09 419.48,117.85 575.84,235.12 156.36,117.85 273.04,278.29 350.64,480.74 78.18,203.03 117.27,468.49 117.27,795.2l0 9302.08c0,614.34 -285.88,1105 -858.21,1471.97 -377.47,247.95 -865.21,467.32 -1463.22,656.93 -598.01,189.61 -1287.03,284.71 -2067.65,284.71 -845.38,0 -1602.66,-117.85 -2272.43,-353.55 -670.35,-235.7 -1235.1,-575.84 -1697.17,-1020.4 -462.07,-444.57 -812.71,-977.81 -1053.66,-1599.16 -239.79,-621.34 -360.55,-1324.37 -360.55,-2109.65zm5540.17 -2452.71c-702.44,0 -1242.11,203.03 -1619,607.93 -377.47,405.48 -565.92,1020.99 -565.92,1844.78 0,810.96 175.03,1422.97 526.83,1834.86 351.22,411.9 858.21,618.43 1520.98,618.43 234.54,0 445.73,-35.59 634.18,-108.52 188.45,-71.76 334.88,-152.86 439.32,-245.04l0 -4317.32c-260.79,-156.94 -572.34,-235.12 -936.39,-235.12zm11314.3 7535.48c-767.78,0 -1480.14,-107.93 -2136.49,-323.8 -656.93,-215.87 -1228.69,-539.67 -1716.43,-971.4 -487.74,-431.73 -871.63,-974.9 -1150.51,-1628.91 -280.04,-654.02 -420.06,-1419.47 -420.06,-2296.35 0,-863.46 140.02,-1605.58 420.06,-2226.92 278.88,-621.34 646.43,-1131.84 1101.5,-1530.9 455.07,-399.06 975.48,-693.11 1560.65,-882.72 585.17,-189.61 1183.76,-284.13 1794.61,-284.13 689.6,0 1316.78,104.43 1882.7,313.3 565.92,209.45 1053.66,497.08 1463.22,863.46 409.56,366.39 727.53,804.54 955.06,1315.03 228.12,510.49 341.89,1066.5 341.89,1668 0,444.57 -123.69,784.7 -370.47,1020.4 -246.79,235.12 -591.59,385.64 -1033.82,451.57l-4818.48 725.78c142.94,431.73 435.82,755.53 877.47,971.98 442.23,215.28 949.81,323.22 1521.56,323.22 533.25,0 1037.91,-68.26 1512.23,-206.53 474.32,-137.1 861.71,-297.55 1160.43,-480.16 207.7,130.69 383.89,313.88 526.83,549.58 142.94,235.12 214.7,484.24 214.7,745.61 0,588.67 -273.62,1026.82 -819.71,1315.03 -415.98,222.28 -883.88,372.81 -1403.71,450.99 -521,78.76 -1008.15,117.85 -1463.22,117.85zm-546.67 -7712.25c-311.55,0 -581.67,51.92 -809.21,156.94 -228.12,105.02 -413.06,238.62 -556,402.56 -142.94,163.36 -250.29,346.55 -322.63,549 -71.18,203.03 -113.18,408.98 -126.02,618.43l3336.01 -549.58c-39.09,-261.96 -182.61,-523.33 -429.98,-785.29 -246.79,-261.37 -611.43,-392.06 -1092.17,-392.06zm14240.16 4553.02c0,993.57 -370.47,1772.44 -1112,2335.44 -741.53,562.42 -1833.69,843.04 -3277.66,843.04 -545.5,0 -1053.08,-39.09 -1520.98,-117.85 -467.9,-78.18 -868.13,-198.95 -1200.1,-362.3 -331.38,-163.94 -591.59,-369.89 -780.03,-618.43 -188.45,-248.54 -282.38,-542.58 -282.38,-883.3 0,-313.88 64.76,-578.75 194.28,-794.62 130.69,-215.87 286.46,-395.56 468.49,-539.67 377.47,209.45 809.21,396.14 1296.95,558.92 487.74,163.94 1050.16,245.62 1687.84,245.62 403.14,0 711.77,-58.34 926.47,-176.19 214.12,-117.85 322.05,-274.79 322.05,-471.4 0,-183.19 -78.18,-326.72 -233.95,-431.15 -156.36,-105.6 -416.56,-190.2 -780.62,-256.12l-585.76 -116.68c-1130.67,-223.45 -1973.13,-572.92 -2525.63,-1050.74 -552.5,-477.24 -829.04,-1161.01 -829.04,-2050.73 0,-483.66 103.85,-921.81 312.13,-1314.45 207.7,-392.64 500.58,-719.94 877.47,-981.32 377.47,-261.37 829.04,-464.99 1355.87,-608.51 526.83,-143.52 1108.5,-215.87 1745.6,-215.87 481.32,0 933.47,36.17 1356.46,107.93 422.4,71.76 789.95,179.69 1102.08,324.38 311.55,143.52 559.5,330.22 741.53,558.92 182.03,229.28 272.46,499.99 272.46,814.46 0,301.05 -54.84,558.92 -165.69,774.78 -110.27,216.45 -249.7,396.14 -419.48,539.67 -103.85,-64.76 -260.21,-133.6 -467.9,-205.36 -208.28,-72.34 -435.82,-137.69 -682.6,-196.61 -247.37,-58.93 -497.66,-107.93 -751.45,-147.02 -253.21,-39.09 -484.24,-58.93 -692.52,-58.93 -428.82,0 -760.2,49.01 -994.73,147.02 -234.54,98.6 -351.22,252.04 -351.22,460.9 0,144.11 65.34,261.96 194.86,353.55 130.69,91.6 377.47,176.78 741.53,254.96l604.42 137.1c1249.11,288.79 2136.49,683.77 2663.32,1187.85 526.83,503.49 789.95,1154.59 789.95,1952.71zm1208.85 -4906.58c0,-549 169.78,-1006.99 507.58,-1373.37 338.38,-366.97 799.29,-549.58 1385.04,-549.58 585.17,0 1047.24,182.61 1385.04,549.58 338.38,366.39 506.99,824.38 506.99,1373.37 0,550.17 -168.61,1007.57 -506.99,1373.96 -337.8,366.39 -799.87,549.58 -1385.04,549.58 -585.76,0 -1046.66,-183.19 -1385.04,-549.58 -337.8,-366.39 -507.58,-823.79 -507.58,-1373.96zm0 6162.1c0,-549 169.78,-1007.57 507.58,-1373.37 338.38,-366.39 799.29,-550.17 1385.04,-550.17 585.17,0 1047.24,183.78 1385.04,550.17 338.38,365.81 506.99,824.38 506.99,1373.37 0,549.58 -168.61,1006.99 -506.99,1373.96 -337.8,366.39 -799.87,549 -1385.04,549 -585.76,0 -1046.66,-182.61 -1385.04,-549 -337.8,-366.97 -507.58,-824.38 -507.58,-1373.96z"/>
   <path id="1" class="fil2" d="M23252.86 24328.69c-571.75,-196.61 -1091.58,-396.14 -1560.65,-598.59 -467.32,-203.03 -871.05,-448.07 -1209.43,-736.28 -338.38,-287.63 -600.92,-631.26 -789.37,-1029.74 -188.45,-399.64 -283.54,-886.8 -283.54,-1462.06 0,-1112.59 426.48,-2001.72 1278.28,-2669.15 851.21,-667.43 2044.89,-1001.15 3579.29,-1001.15 558.92,0 1079.33,39.09 1560.07,117.85 481.91,78.76 894.39,199.53 1239.19,362.89 344.8,163.94 614.93,372.81 809.79,628.35 194.86,254.96 292.29,552.5 292.29,892.64 0,340.13 -77.6,631.26 -233.95,873.38 -156.36,242.12 -344.8,448.07 -565.92,617.84 -285.88,-183.19 -669.77,-343.05 -1150.51,-480.74 -481.32,-137.1 -1008.15,-205.36 -1580.49,-205.36 -585.17,0 -1014.57,81.1 -1287.03,245.04 -273.62,163.36 -409.56,369.31 -409.56,618.43 0,195.45 84.01,355.89 253.21,480.74 168.61,123.69 422.98,238.04 760.2,343.05l1034.41 333.72c1222.27,392.06 2162.16,892.64 2818.51,1501.14 656.93,608.51 985.4,1435.8 985.4,2482.46 0,1112 -435.23,2011.05 -1306.86,2698.33 -871.63,687.27 -2152.24,1030.32 -3843,1030.32 -598.01,0 -1154.01,-49.01 -1668,-147.02 -513.41,-98.6 -962.06,-242.12 -1345.95,-431.73 -383.31,-190.2 -682.6,-425.9 -896.72,-706.52 -215.28,-281.79 -322.63,-605.01 -322.63,-971.4 0,-379.22 110.85,-703.61 331.97,-971.4 220.53,-268.37 461.49,-474.32 721.69,-618.43 364.06,287.63 809.21,536.75 1336.04,745.61 526.83,210.03 1102.67,314.46 1726.35,314.46 637.68,0 1086.33,-98.6 1346.54,-294.63 259.62,-196.03 390.31,-425.31 390.31,-686.69 0,-261.96 -104.43,-461.49 -312.71,-598.59 -208.28,-137.69 -500.58,-271.29 -878.05,-402.56l-819.12 -274.21zm10065.78 -9871.5c675.6,0 1166.84,131.27 1472.56,392.64 305.71,261.96 458.57,575.84 458.57,942.23 0,340.13 -91.01,624.26 -273.04,853.55 -182.03,228.7 -481.32,454.49 -897.3,676.77l-2516.3 1334.87c-390.31,-39.09 -721.69,-196.61 -995.32,-471.4 -273.04,-274.79 -409.56,-569.42 -409.56,-882.72 0,-156.94 39.09,-314.46 117.27,-471.4 78.18,-156.94 207.7,-301.05 390.31,-431.15l2652.82 -1943.38zm467.9 14581.46c-142.94,25.67 -354.14,61.84 -633.6,107.93 -280.04,44.92 -563,68.26 -848.88,68.26 -286.46,0 -543.17,-19.84 -770.7,-59.51 -227.53,-39.09 -418.9,-116.68 -575.25,-234.54 -155.77,-117.85 -276.54,-278.29 -361.14,-481.32 -84.01,-202.45 -126.6,-467.32 -126.6,-794.62l0 -7987.04c142.94,-26.25 354.14,-61.84 634.18,-107.93 279.46,-46.09 562.42,-68.26 848.3,-68.26 285.88,0 543.17,19.25 770.12,58.34 228.12,39.09 420.06,117.85 575.84,235.7 156.36,117.85 276.54,278.29 360.55,480.74 85.18,203.03 127.19,467.9 127.19,794.62l0 7987.63zm6730.35 -9811.99c740.95,0 1414.21,94.51 2018.64,284.13 605.01,189.61 1115.5,434.65 1531.48,735.69 260.21,183.78 464.99,385.64 614.93,608.51 149.36,222.28 224.03,510.49 224.03,863.46l0 6868.63c0,693.11 -130.1,1291.7 -390.31,1795.19 -260.21,503.49 -614.34,922.39 -1062.99,1256.11 -448.65,333.13 -974.9,578.75 -1579.91,736.28 -605.01,156.94 -1252.02,235.12 -1941.04,235.12 -1183.76,0 -2113.74,-160.44 -2789.92,-481.32 -675.6,-319.72 -1013.99,-840.13 -1013.99,-1559.49 0,-301.05 61.84,-565.92 185.53,-794.62 123.1,-229.28 263.12,-402.56 418.9,-520.41 376.89,209.45 803.37,386.23 1277.69,530.33 475.49,143.52 965.56,215.28 1473.14,215.28 701.86,0 1261.36,-117.85 1677.34,-353.55 416.56,-234.54 624.26,-614.34 624.26,-1137.67l0 -313.88c-533.25,235.7 -1183.18,353.55 -1950.96,353.55 -585.17,0 -1140.59,-88.68 -1667.42,-264.87 -526.83,-177.36 -988.9,-451.57 -1385.04,-824.38 -396.73,-373.39 -715.28,-854.13 -955.64,-1442.8 -240.95,-588.09 -361.14,-1288.78 -361.14,-2099.74 0,-798.12 126.6,-1491.81 380.39,-2079.9 253.21,-588.67 605.01,-1075.83 1053.66,-1462.06 448.65,-386.23 981.9,-673.85 1599.16,-863.46 617.84,-189.61 1291.11,-284.13 2019.22,-284.13zm1209.43 2844.76c-91.01,-52.51 -224.03,-104.43 -400.23,-156.94 -175.61,-52.51 -393.23,-78.18 -653.43,-78.18 -637.1,0 -1114.92,179.69 -1434.05,539.67 -317.96,359.39 -477.24,873.38 -477.24,1540.23 0,759.03 159.27,1305.11 477.24,1638.25 319.13,333.72 725.78,501.16 1219.94,501.16 532.66,0 955.64,-124.85 1267.78,-372.81l0 -3611.38zm5228.04 -2413.62c129.52,-39.09 334.88,-78.76 613.76,-117.85 280.04,-39.09 569.42,-58.34 868.72,-58.34 286.46,0 543.17,19.25 770.7,58.34 226.95,39.09 418.9,117.85 575.25,235.7 155.77,117.85 276.54,278.29 361.14,480.74 84.01,203.03 126.6,467.9 126.6,794.62l0 4219.31c0,536.16 130.1,918.89 390.31,1147.59 260.21,229.28 637.1,343.64 1130.67,343.64 299.3,0 543.75,-25.67 732.19,-78.18 188.45,-51.92 334.88,-105.02 438.73,-157.52l0 -6868.04c130.1,-39.09 334.88,-78.76 614.93,-117.85 278.88,-39.09 568.25,-58.34 867.55,-58.34 286.46,0 543.17,19.25 770.7,58.34 227.53,39.09 419.48,117.85 575.25,235.7 155.77,117.85 276.54,278.29 361.14,480.74 84.01,203.03 126.6,467.9 126.6,794.62l0 5965.49c0,654.6 -273.04,1145.26 -819.71,1471.97 -455.07,287.63 -997.65,507.58 -1628.33,658.1 -630.68,149.94 -1316.78,225.2 -2058.31,225.2 -701.86,0 -1348.87,-78.18 -1940.46,-235.7 -591.59,-156.94 -1102.67,-398.48 -1531.48,-726.36 -429.4,-326.72 -760.78,-748.53 -995.32,-1265.44 -233.37,-516.33 -350.64,-1141.76 -350.64,-1873.95l0 -5612.52zm16366.15 9713.97c-767.2,0 -1479.56,-107.93 -2135.91,-323.8 -656.93,-215.87 -1228.69,-539.67 -1716.43,-971.4 -487.74,-431.73 -871.63,-974.9 -1151.09,-1628.91 -280.04,-654.02 -419.48,-1419.47 -419.48,-2296.35 0,-863.46 139.44,-1605.58 419.48,-2226.92 279.46,-621.34 646.43,-1131.84 1102.08,-1530.9 455.07,-399.06 975.48,-693.11 1560.07,-882.72 585.76,-189.61 1184.35,-284.13 1795.19,-284.13 689.02,0 1316.78,104.43 1882.7,313.3 565.34,209.45 1053.08,497.08 1462.64,863.46 409.56,366.39 728.11,804.54 955.64,1315.03 227.53,510.49 341.89,1066.5 341.89,1668 0,444.57 -124.27,784.7 -371.06,1020.4 -246.79,235.12 -591.59,385.64 -1033.24,451.57l-4818.48 725.78c142.94,431.73 435.23,755.53 877.47,971.98 442.23,215.28 949.81,323.22 1521.56,323.22 533.25,0 1037.32,-68.26 1512.23,-206.53 474.32,-137.1 861.13,-297.55 1160.43,-480.16 207.7,130.69 383.89,313.88 526.83,549.58 142.94,235.12 214.12,484.24 214.12,745.61 0,588.67 -273.04,1026.82 -819.12,1315.03 -415.98,222.28 -883.88,372.81 -1404.3,450.99 -520.41,78.76 -1007.57,117.85 -1463.22,117.85zm-546.08 -7712.25c-312.13,0 -581.67,51.92 -809.79,156.94 -227.53,105.02 -412.48,238.62 -555.42,402.56 -142.94,163.36 -250.29,346.55 -322.63,549 -71.18,203.03 -113.18,408.98 -126.02,618.43l3335.42 -549.58c-39.09,-261.96 -182.61,-523.33 -429.4,-785.29 -246.79,-261.37 -611.43,-392.06 -1092.17,-392.06zm12250.11 1354.12c0,-405.48 -113.77,-703.61 -341.3,-892.64 -227.53,-189.61 -536.16,-284.71 -926.47,-284.71 -260.21,0 -516.91,32.09 -770.7,97.43 -253.79,65.93 -471.4,163.94 -653.43,295.21l0 6809.7c-129.52,38.51 -334.88,77.6 -614.34,116.68 -280.04,39.67 -568.84,59.51 -868.13,59.51 -286.46,0 -543.17,-19.84 -770.7,-59.51 -228.12,-39.09 -418.9,-116.68 -575.25,-234.54 -156.36,-117.85 -276.54,-278.29 -361.14,-481.32 -84.01,-202.45 -126.6,-467.32 -126.6,-794.62l0 -5887.31c0,-352.97 74.68,-641.18 224.62,-863.46 149.36,-222.28 353.55,-425.31 613.76,-608.51 442.82,-313.3 998.82,-569.42 1668.59,-764.87 669.77,-196.61 1414.21,-294.04 2233.34,-294.04 1469.64,0 2600.31,323.22 3393.76,970.81 793.45,647.01 1190.18,1547.23 1190.18,2698.33l0 6142.85c-129.52,38.51 -334.88,77.6 -614.34,116.68 -280.04,39.67 -568.84,59.51 -868.13,59.51 -285.88,0 -542.58,-19.84 -770.12,-59.51 -227.53,-39.09 -419.48,-116.68 -575.84,-234.54 -156.36,-117.85 -276.54,-278.29 -360.55,-481.32 -84.6,-202.45 -127.19,-467.32 -127.19,-794.62l0 -4631.2zm15176.55 1275.36c0,810.96 -123.1,1533.82 -370.47,2168.58 -246.79,634.18 -595.09,1167.43 -1043.74,1599.74 -448.65,431.15 -985.4,757.86 -1609.08,981.32 -624.26,222.28 -1319.7,333.13 -2087.48,333.13 -766.62,0 -1463.22,-117.85 -2086.9,-353.55 -624.26,-235.7 -1161.01,-572.34 -1609.66,-1010.49 -448.65,-438.15 -796.37,-971.4 -1043.16,-1599.74 -247.37,-627.76 -371.06,-1333.7 -371.06,-2118.99 0,-771.87 123.69,-1471.97 371.06,-2099.74 246.79,-628.35 594.51,-1161.01 1043.16,-1599.74 448.65,-437.57 985.4,-774.78 1609.66,-1010.49 623.68,-235.7 1320.28,-352.39 2086.9,-352.39 767.78,0 1463.22,120.18 2087.48,362.3 623.68,242.12 1160.43,582.25 1609.08,1020.99 448.65,437.57 796.95,970.81 1043.74,1598.58 247.37,628.35 370.47,1322.03 370.47,2080.48zm-6827.2 0c0,798.12 152.86,1409.55 458.57,1834.86 305.71,425.31 731.03,637.68 1277.69,637.68 546.08,0 965.56,-215.28 1258.44,-647.6 292.29,-431.15 438.73,-1039.66 438.73,-1824.94 0,-784.7 -149.94,-1389.71 -448.65,-1815.03 -299.3,-425.31 -722.28,-637.68 -1268.36,-637.68 -545.5,0 -968.48,212.37 -1267.78,637.68 -299.3,425.31 -448.65,1030.32 -448.65,1815.03zm16444.33 1923.54c0,993.57 -370.47,1772.44 -1111.42,2335.44 -742.11,562.42 -1833.69,843.04 -3277.66,843.04 -546.08,0 -1053.66,-39.09 -1521.56,-117.85 -467.9,-78.18 -868.13,-198.95 -1199.52,-362.3 -331.38,-163.94 -591.59,-369.89 -780.03,-618.43 -189.03,-248.54 -282.96,-542.58 -282.96,-883.3 0,-313.88 64.76,-578.75 194.86,-794.62 130.1,-215.87 286.46,-395.56 468.49,-539.67 376.89,209.45 809.21,396.14 1296.95,558.92 487.74,163.94 1050.16,245.62 1687.26,245.62 403.14,0 712.36,-58.34 926.47,-176.19 214.7,-117.85 322.63,-274.79 322.63,-471.4 0,-183.19 -78.18,-326.72 -234.54,-431.15 -156.36,-105.6 -415.98,-190.2 -780.03,-256.12l-585.76 -116.68c-1130.67,-223.45 -1973.13,-572.92 -2526.22,-1050.74 -552.5,-477.24 -829.04,-1161.01 -829.04,-2050.73 0,-483.66 103.85,-921.81 312.71,-1314.45 207.7,-392.64 499.99,-719.94 877.47,-981.32 376.89,-261.37 829.04,-464.99 1355.87,-608.51 526.83,-143.52 1108.5,-215.87 1745.6,-215.87 481.32,0 932.89,36.17 1355.87,107.93 422.98,71.76 789.95,179.69 1102.67,324.38 311.55,143.52 558.92,330.22 740.95,558.92 182.03,229.28 272.46,499.99 272.46,814.46 0,301.05 -54.84,558.92 -165.11,774.78 -110.85,216.45 -250.29,396.14 -419.48,539.67 -103.85,-64.76 -260.21,-133.6 -467.9,-205.36 -208.28,-72.34 -436.4,-137.69 -683.19,-196.61 -247.37,-58.93 -497.66,-107.93 -750.86,-147.02 -253.79,-39.09 -484.24,-58.93 -693.11,-58.93 -428.82,0 -760.2,49.01 -994.73,147.02 -233.95,98.6 -351.22,252.04 -351.22,460.9 0,144.11 65.34,261.96 195.45,353.55 130.1,91.6 376.89,176.78 740.95,254.96l605.01 137.1c1248.52,288.79 2135.91,683.77 2662.74,1187.85 526.83,503.49 789.95,1154.59 789.95,1952.71zm10515.01 3159.23c-767.78,0 -1479.56,-107.93 -2136.49,-323.8 -656.93,-215.87 -1228.69,-539.67 -1716.43,-971.4 -487.74,-431.73 -871.63,-974.9 -1150.51,-1628.91 -280.04,-654.02 -419.48,-1419.47 -419.48,-2296.35 0,-863.46 139.44,-1605.58 419.48,-2226.92 278.88,-621.34 646.43,-1131.84 1101.5,-1530.9 455.65,-399.06 975.48,-693.11 1560.65,-882.72 585.76,-189.61 1183.76,-284.13 1794.61,-284.13 689.6,0 1316.78,104.43 1882.7,313.3 565.92,209.45 1053.66,497.08 1463.22,863.46 409.56,366.39 727.53,804.54 955.64,1315.03 227.53,510.49 341.3,1066.5 341.3,1668 0,444.57 -123.69,784.7 -370.47,1020.4 -246.79,235.12 -591.59,385.64 -1033.82,451.57l-4818.48 725.78c142.94,431.73 435.82,755.53 877.47,971.98 442.23,215.28 949.81,323.22 1521.56,323.22 533.25,0 1037.91,-68.26 1512.23,-206.53 474.32,-137.1 861.71,-297.55 1160.43,-480.16 208.28,130.69 383.89,313.88 526.83,549.58 142.94,235.12 214.7,484.24 214.7,745.61 0,588.67 -273.62,1026.82 -819.12,1315.03 -416.56,222.28 -884.47,372.81 -1404.3,450.99 -521,78.76 -1008.15,117.85 -1463.22,117.85zm-546.67 -7712.25c-311.55,0 -581.67,51.92 -809.21,156.94 -227.53,105.02 -413.06,238.62 -556,402.56 -142.94,163.36 -250.29,346.55 -322.05,549 -71.76,203.03 -113.18,408.98 -126.6,618.43l3336.01 -549.58c-39.09,-261.96 -182.61,-523.33 -429.4,-785.29 -247.37,-261.37 -611.43,-392.06 -1092.75,-392.06zm12250.11 1354.12c0,-405.48 -113.77,-703.61 -341.3,-892.64 -227.53,-189.61 -536.16,-284.71 -926.47,-284.71 -260.21,0 -516.91,32.09 -770.12,97.43 -254.37,65.93 -471.99,163.94 -654.02,295.21l0 6809.7c-129.52,38.51 -334.88,77.6 -613.76,116.68 -280.04,39.67 -569.42,59.51 -868.72,59.51 -286.46,0 -543.17,-19.84 -770.7,-59.51 -227.53,-39.09 -418.9,-116.68 -575.25,-234.54 -155.77,-117.85 -276.54,-278.29 -361.14,-481.32 -84.01,-202.45 -126.6,-467.32 -126.6,-794.62l0 -5887.31c0,-352.97 75.26,-641.18 224.62,-863.46 149.36,-222.28 354.14,-425.31 614.34,-608.51 442.23,-313.3 998.23,-569.42 1668,-764.87 669.77,-196.61 1414.21,-294.04 2233.34,-294.04 1469.64,0 2600.89,323.22 3394.35,970.81 793.45,647.01 1189.6,1547.23 1189.6,2698.33l0 6142.85c-129.52,38.51 -334.88,77.6 -613.76,116.68 -280.04,39.67 -569.42,59.51 -868.72,59.51 -285.88,0 -542.58,-19.84 -770.12,-59.51 -227.53,-39.09 -419.48,-116.68 -575.84,-234.54 -155.77,-117.85 -276.54,-278.29 -360.55,-481.32 -84.6,-202.45 -127.19,-467.32 -127.19,-794.62l0 -4631.2zm12914.63 2197.75l0 3767.74c-142.94,39.09 -367.56,78.76 -673.27,117.85 -305.71,39.09 -607.34,58.34 -906.64,58.34 -299.3,0 -562.42,-22.17 -789.95,-68.26 -227.53,-46.09 -416.56,-127.19 -565.92,-245.04 -149.36,-117.85 -263.12,-281.79 -341.3,-490.66 -78.18,-209.45 -117.27,-483.66 -117.27,-824.38l0 -9242.57c0,-274.79 74.68,-487.16 224.03,-637.68 149.94,-150.52 354.72,-271.87 614.93,-363.47 442.23,-157.52 955.64,-271.87 1540.82,-343.64 585.76,-71.76 1209.43,-107.93 1872.78,-107.93 1794.61,0 3146.98,379.81 4057.7,1138.26 910.14,759.03 1365.21,1785.85 1365.21,3081.05 0,810.96 -207.7,1504.64 -624.26,2080.48 -415.98,575.25 -910.14,1019.82 -1481.89,1334.29 467.9,641.18 929.39,1242.69 1383.88,1805.11 455.65,562.42 813.87,1073.5 1073.5,1530.9 -130.1,457.99 -366.97,808.04 -711.77,1049.58 -344.8,242.12 -732.19,363.47 -1161.01,363.47 -285.88,0 -533.25,-32.67 -740.95,-98.6 -208.28,-65.34 -390.31,-156.36 -546.67,-274.21 -155.77,-117.85 -299.3,-261.37 -428.82,-432.32 -130.1,-169.19 -253.21,-352.39 -370.47,-549l-1638.83 -2649.32 -1033.82 0zm1228.69 -2609.65c494.16,0 884.47,-127.77 1170.34,-382.72 285.88,-254.96 429.98,-631.26 429.98,-1128.34 0,-497.66 -159.86,-873.97 -478.99,-1128.92 -317.96,-254.96 -822.04,-382.72 -1511.06,-382.72 -195.45,0 -351.8,7 -468.49,20.42 -117.27,12.25 -246.79,32.09 -389.73,58.34l0 2943.95 1247.94 0zm11724.44 6770.03c-767.78,0 -1480.14,-107.93 -2136.49,-323.8 -656.93,-215.87 -1228.69,-539.67 -1716.43,-971.4 -487.74,-431.73 -871.63,-974.9 -1151.09,-1628.91 -279.46,-654.02 -419.48,-1419.47 -419.48,-2296.35 0,-863.46 140.02,-1605.58 419.48,-2226.92 279.46,-621.34 647.01,-1131.84 1102.08,-1530.9 455.07,-399.06 975.48,-693.11 1560.65,-882.72 585.17,-189.61 1183.76,-284.13 1794.61,-284.13 689.6,0 1316.78,104.43 1882.7,313.3 565.34,209.45 1053.08,497.08 1463.22,863.46 409.56,366.39 727.53,804.54 955.06,1315.03 228.12,510.49 341.89,1066.5 341.89,1668 0,444.57 -123.69,784.7 -370.47,1020.4 -247.37,235.12 -592.17,385.64 -1033.82,451.57l-4818.48 725.78c142.94,431.73 435.82,755.53 877.47,971.98 442.23,215.28 949.81,323.22 1521.56,323.22 533.25,0 1037.32,-68.26 1512.23,-206.53 474.32,-137.1 861.71,-297.55 1160.43,-480.16 207.7,130.69 383.89,313.88 526.83,549.58 142.94,235.12 214.7,484.24 214.7,745.61 0,588.67 -273.62,1026.82 -819.71,1315.03 -415.98,222.28 -883.88,372.81 -1404.3,450.99 -520.41,78.76 -1007.57,117.85 -1462.64,117.85zm-546.67 -7712.25c-312.13,0 -581.67,51.92 -809.21,156.94 -228.12,105.02 -413.06,238.62 -556,402.56 -142.94,163.36 -250.29,346.55 -322.63,549 -71.18,203.03 -113.18,408.98 -126.02,618.43l3336.01 -549.58c-39.09,-261.96 -183.19,-523.33 -429.98,-785.29 -246.79,-261.37 -611.43,-392.06 -1092.17,-392.06zm5832.47 2629.48c0,-863.46 129.52,-1611.99 389.73,-2246.76 260.21,-634.76 621.34,-1161.59 1082.83,-1579.91 462.07,-418.31 1001.74,-729.28 1619,-932.31 618.43,-202.45 1284.69,-303.38 1999.97,-303.38 260.21,0 513.41,22.17 760.2,68.26 247.95,45.51 448.65,101.52 605.01,166.28l0 -3178.48c130.69,-39.67 338.38,-82.26 624.26,-127.77 286.46,-46.09 578.75,-68.84 878.05,-68.84 285.88,0 542.58,19.84 770.12,58.93 227.53,39.09 419.48,117.85 575.84,235.12 156.36,117.85 273.04,278.29 350.64,480.74 78.18,203.03 117.27,468.49 117.27,795.2l0 9302.08c0,614.34 -285.88,1105 -858.21,1471.97 -377.47,247.95 -865.21,467.32 -1463.22,656.93 -598.01,189.61 -1287.03,284.71 -2067.65,284.71 -845.38,0 -1602.66,-117.85 -2272.43,-353.55 -670.35,-235.7 -1235.1,-575.84 -1697.17,-1020.4 -462.07,-444.57 -812.71,-977.81 -1053.66,-1599.16 -239.79,-621.34 -360.55,-1324.37 -360.55,-2109.65zm5540.17 -2452.71c-702.44,0 -1242.11,203.03 -1619,607.93 -377.47,405.48 -565.92,1020.99 -565.92,1844.78 0,810.96 175.03,1422.97 526.83,1834.86 351.22,411.9 858.21,618.43 1520.98,618.43 234.54,0 445.73,-35.59 634.18,-108.52 188.45,-71.76 334.88,-152.86 439.32,-245.04l0 -4317.32c-260.79,-156.94 -572.34,-235.12 -936.39,-235.12zm11314.3 7535.48c-767.78,0 -1480.14,-107.93 -2136.49,-323.8 -656.93,-215.87 -1228.69,-539.67 -1716.43,-971.4 -487.74,-431.73 -871.63,-974.9 -1150.51,-1628.91 -280.04,-654.02 -420.06,-1419.47 -420.06,-2296.35 0,-863.46 140.02,-1605.58 420.06,-2226.92 278.88,-621.34 646.43,-1131.84 1101.5,-1530.9 455.07,-399.06 975.48,-693.11 1560.65,-882.72 585.17,-189.61 1183.76,-284.13 1794.61,-284.13 689.6,0 1316.78,104.43 1882.7,313.3 565.92,209.45 1053.66,497.08 1463.22,863.46 409.56,366.39 727.53,804.54 955.06,1315.03 228.12,510.49 341.89,1066.5 341.89,1668 0,444.57 -123.69,784.7 -370.47,1020.4 -246.79,235.12 -591.59,385.64 -1033.82,451.57l-4818.48 725.78c142.94,431.73 435.82,755.53 877.47,971.98 442.23,215.28 949.81,323.22 1521.56,323.22 533.25,0 1037.91,-68.26 1512.23,-206.53 474.32,-137.1 861.71,-297.55 1160.43,-480.16 207.7,130.69 383.89,313.88 526.83,549.58 142.94,235.12 214.7,484.24 214.7,745.61 0,588.67 -273.62,1026.82 -819.71,1315.03 -415.98,222.28 -883.88,372.81 -1403.71,450.99 -521,78.76 -1008.15,117.85 -1463.22,117.85zm-546.67 -7712.25c-311.55,0 -581.67,51.92 -809.21,156.94 -228.12,105.02 -413.06,238.62 -556,402.56 -142.94,163.36 -250.29,346.55 -322.63,549 -71.18,203.03 -113.18,408.98 -126.02,618.43l3336.01 -549.58c-39.09,-261.96 -182.61,-523.33 -429.98,-785.29 -246.79,-261.37 -611.43,-392.06 -1092.17,-392.06zm14240.16 4553.02c0,993.57 -370.47,1772.44 -1112,2335.44 -741.53,562.42 -1833.69,843.04 -3277.66,843.04 -545.5,0 -1053.08,-39.09 -1520.98,-117.85 -467.9,-78.18 -868.13,-198.95 -1200.1,-362.3 -331.38,-163.94 -591.59,-369.89 -780.03,-618.43 -188.45,-248.54 -282.38,-542.58 -282.38,-883.3 0,-313.88 64.76,-578.75 194.28,-794.62 130.69,-215.87 286.46,-395.56 468.49,-539.67 377.47,209.45 809.21,396.14 1296.95,558.92 487.74,163.94 1050.16,245.62 1687.84,245.62 403.14,0 711.77,-58.34 926.47,-176.19 214.12,-117.85 322.05,-274.79 322.05,-471.4 0,-183.19 -78.18,-326.72 -233.95,-431.15 -156.36,-105.6 -416.56,-190.2 -780.62,-256.12l-585.76 -116.68c-1130.67,-223.45 -1973.13,-572.92 -2525.63,-1050.74 -552.5,-477.24 -829.04,-1161.01 -829.04,-2050.73 0,-483.66 103.85,-921.81 312.13,-1314.45 207.7,-392.64 500.58,-719.94 877.47,-981.32 377.47,-261.37 829.04,-464.99 1355.87,-608.51 526.83,-143.52 1108.5,-215.87 1745.6,-215.87 481.32,0 933.47,36.17 1356.46,107.93 422.4,71.76 789.95,179.69 1102.08,324.38 311.55,143.52 559.5,330.22 741.53,558.92 182.03,229.28 272.46,499.99 272.46,814.46 0,301.05 -54.84,558.92 -165.69,774.78 -110.27,216.45 -249.7,396.14 -419.48,539.67 -103.85,-64.76 -260.21,-133.6 -467.9,-205.36 -208.28,-72.34 -435.82,-137.69 -682.6,-196.61 -247.37,-58.93 -497.66,-107.93 -751.45,-147.02 -253.21,-39.09 -484.24,-58.93 -692.52,-58.93 -428.82,0 -760.2,49.01 -994.73,147.02 -234.54,98.6 -351.22,252.04 -351.22,460.9 0,144.11 65.34,261.96 194.86,353.55 130.69,91.6 377.47,176.78 741.53,254.96l604.42 137.1c1249.11,288.79 2136.49,683.77 2663.32,1187.85 526.83,503.49 789.95,1154.59 789.95,1952.71zm1208.85 -4906.58c0,-549 169.78,-1006.99 507.58,-1373.37 338.38,-366.97 799.29,-549.58 1385.04,-549.58 585.17,0 1047.24,182.61 1385.04,549.58 338.38,366.39 506.99,824.38 506.99,1373.37 0,550.17 -168.61,1007.57 -506.99,1373.96 -337.8,366.39 -799.87,549.58 -1385.04,549.58 -585.76,0 -1046.66,-183.19 -1385.04,-549.58 -337.8,-366.39 -507.58,-823.79 -507.58,-1373.96zm0 6162.1c0,-549 169.78,-1007.57 507.58,-1373.37 338.38,-366.39 799.29,-550.17 1385.04,-550.17 585.17,0 1047.24,183.78 1385.04,550.17 338.38,365.81 506.99,824.38 506.99,1373.37 0,549.58 -168.61,1006.99 -506.99,1373.96 -337.8,366.39 -799.87,549 -1385.04,549 -585.76,0 -1046.66,-182.61 -1385.04,-549 -337.8,-366.97 -507.58,-824.38 -507.58,-1373.96z"/>
  </g>
 </g>
</svg>
