<?xml version="1.0" encoding="UTF-8"?>
<!DOCTYPE svg PUBLIC "-//W3C//DTD SVG 1.1//EN" "http://www.w3.org/Graphics/SVG/1.1/DTD/svg11.dtd">
<!-- Creator: CorelDRAW 2018 (64 Bit) -->
<svg xmlns="http://www.w3.org/2000/svg" xml:space="preserve" width="63.1676mm" height="21.3924mm" version="1.1" style="shape-rendering:geometricPrecision; text-rendering:geometricPrecision; image-rendering:optimizeQuality; fill-rule:evenodd; clip-rule:evenodd"
viewBox="0 0 6499.39 2201.09"
 xmlns:xlink="http://www.w3.org/1999/xlink">
 <defs>
  <style type="text/css">
   <![CDATA[
    .str0 {stroke:#008F4F;stroke-width:51.45;stroke-linecap:round;stroke-linejoin:round;stroke-miterlimit:22.9256}
    .fil2 {fill:none}
    .fil1 {fill:#FEFEFE}
    .fil3 {fill:#FEFEFE;fill-rule:nonzero}
    .fil0 {fill:url(#id1)}
   ]]>
  </style>
     <clipPath id="id0">
      <path d="M41.73 24.98l6457.66 0 0 2176.11 -6457.66 0 0 -2176.11z"/>
     </clipPath>
  <linearGradient id="id1" gradientUnits="userSpaceOnUse" x1="3167.25" y1="0" x2="3167.25" y2="2052.94">
   <stop offset="0" style="stop-opacity:1; stop-color:#FEFEFE"/>
   <stop offset="0.501961" style="stop-opacity:1; stop-color:#70BF4F"/>
   <stop offset="1" style="stop-opacity:1; stop-color:#008F4F"/>
  </linearGradient>
 </defs>
 <g id="Capa_x0020_1">
  <metadata id="CorelCorpID_0Corel-Layer"/>
  <g id="_2977806550656">
   <g>
    <g style="clip-path:url(#id0)">
     <image x="41.73" y="24.98" width="6457.66" height="2176.11" xlink:href="facebook_button_Images\facebook_button_ImgID1.png"/>
    </g>
   </g>
   <path class="fil0" d="M-0 0l6334.5 0 0 1732.77c0,176.05 -155.36,320.18 -345.11,320.18l-5644.27 0c-189.75,0 -345.12,-144.1 -345.12,-320.18l0 -1732.77z"/>
   <path class="fil1" d="M1698.54 1529.5c-26.05,0 -50.22,-3.66 -72.52,-11 -22.3,-7.33 -41.72,-18.31 -58.28,-32.98 -16.56,-14.65 -29.58,-33.09 -39.07,-55.29 -9.5,-22.2 -14.24,-48.18 -14.24,-77.95 0,-29.31 4.74,-54.51 14.24,-75.61 9.49,-21.09 21.96,-38.41 37.41,-51.96 15.45,-13.55 33.11,-23.54 52.98,-29.98 19.87,-6.44 40.18,-9.66 60.92,-9.66 23.41,0 44.71,3.56 63.91,10.66 19.21,7.11 35.76,16.88 49.68,29.31 13.9,12.44 24.72,27.32 32.44,44.64 7.73,17.32 11.6,36.2 11.6,56.62 0,15.1 -4.2,26.65 -12.58,34.64 -8.39,7.99 -20.08,13.11 -35.1,15.32l-163.58 24.65c4.86,14.66 14.79,25.65 29.8,32.98 15.01,7.33 32.24,11 51.66,11 18.1,0 35.21,-2.34 51.32,-7 16.11,-4.67 29.25,-10.1 39.4,-16.33 7.07,4.44 13.03,10.66 17.88,18.65 4.86,7.99 7.28,16.43 7.28,25.32 0,19.98 -9.27,34.86 -27.81,44.63 -14.13,7.55 -30.02,12.66 -47.68,15.32 -17.67,2.66 -34.22,4 -49.67,4zm-18.55 -261.83c-10.59,0 -19.76,1.78 -27.48,5.33 -7.73,3.56 -14.01,8.11 -18.87,13.66 -4.86,5.55 -8.5,11.77 -10.93,18.65 -2.43,6.88 -3.86,13.88 -4.3,20.98l113.24 -18.65c-1.33,-8.88 -6.18,-17.76 -14.57,-26.65 -8.39,-8.88 -20.75,-13.32 -37.09,-13.32zm326.48 250.5c-4.86,0.88 -12.03,2.11 -21.51,3.66 -9.5,1.55 -19.1,2.34 -28.81,2.34 -9.71,0 -18.44,-0.67 -26.15,-2.01 -7.73,-1.33 -14.24,-3.99 -19.54,-7.99 -5.3,-3.99 -9.38,-9.44 -12.25,-16.32 -2.87,-6.88 -4.3,-15.88 -4.3,-26.98l0 -386.41c4.86,-0.88 12.03,-2.11 21.52,-3.66 9.49,-1.55 19.09,-2.33 28.8,-2.33 9.71,0 18.44,0.66 26.17,2 7.73,1.33 14.23,3.99 19.53,7.99 5.3,3.99 9.38,9.44 12.25,16.32 2.87,6.88 4.3,15.88 4.3,26.99l0 386.4zm218.54 -333.11c26.49,0 51.11,3.45 73.85,10.33 22.74,6.88 42.27,17.43 58.61,31.65 16.34,14.21 29.14,32.08 38.41,53.63 9.27,21.54 13.91,47.19 13.91,76.94 0,28.43 -3.98,53.3 -11.93,74.62 -7.94,21.32 -19.2,39.2 -33.77,53.64 -14.57,14.43 -32.12,25.2 -52.65,32.31 -20.54,7.11 -43.38,10.66 -68.55,10.66 -18.98,0 -36.64,-2.89 -52.98,-8.66l0 110.59c-4.41,1.34 -11.48,2.78 -21.2,4.33 -9.71,1.55 -19.64,2.34 -29.8,2.34 -9.71,0 -18.43,-0.67 -26.15,-2 -7.73,-1.34 -14.24,-4 -19.54,-7.99 -5.3,-4 -9.27,-9.45 -11.93,-16.33 -2.64,-6.88 -3.97,-15.88 -3.97,-26.98l0 -319.78c0,-12 2.54,-21.77 7.62,-29.31 5.07,-7.55 12.03,-14.44 20.86,-20.66 13.68,-8.88 30.68,-15.99 50.99,-21.32 20.31,-5.33 43.05,-7.99 68.21,-7.99zm1.33 254.5c45.48,0 68.21,-27.32 68.21,-81.95 0,-28.42 -5.63,-49.52 -16.88,-63.29 -11.26,-13.77 -27.48,-20.65 -48.68,-20.65 -8.39,0 -15.89,1 -22.51,2.99 -6.62,2.01 -12.36,4.33 -17.21,7l0 146.57c5.3,2.66 11.03,4.89 17.21,6.67 6.18,1.77 12.8,2.66 19.87,2.66zm377.48 7.33c7.5,0 15.78,-0.78 24.84,-2.34 9.04,-1.55 15.78,-3.66 20.2,-6.33l0 -53.3 -47.69 4c-12.36,0.88 -22.51,3.55 -30.46,7.99 -7.95,4.43 -11.93,11.1 -11.93,19.98 0,8.88 3.43,16.1 10.27,21.65 6.84,5.56 18.43,8.33 34.77,8.33zm-5.3 -261.83c23.84,0 45.58,2.45 65.23,7.34 19.64,4.89 36.42,12.33 50.32,22.32 13.91,9.99 24.62,22.65 32.12,37.97 7.5,15.33 11.26,33.43 11.26,54.31l0 149.22c0,11.55 -3.2,20.99 -9.6,28.32 -6.4,7.33 -14.01,13.65 -22.85,18.98 -28.7,17.33 -69.09,25.99 -121.19,25.99 -23.4,0 -44.48,-2.22 -63.25,-6.67 -18.76,-4.44 -34.88,-11.1 -48.34,-19.98 -13.47,-8.89 -23.84,-20.21 -31.12,-33.97 -7.28,-13.78 -10.93,-29.77 -10.93,-47.97 0,-30.65 9.04,-54.19 27.15,-70.62 18.1,-16.43 46.14,-26.65 84.1,-30.64l86.75 -9.33 0 -4.66c0,-12.88 -5.63,-22.09 -16.88,-27.65 -11.26,-5.56 -27.48,-8.32 -48.68,-8.32 -16.77,0 -33.11,1.77 -49.01,5.33 -15.89,3.55 -30.24,7.99 -43.04,13.32 -5.74,-4 -10.6,-10.1 -14.57,-18.32 -3.97,-8.22 -5.96,-16.77 -5.96,-25.65 0,-11.54 2.76,-20.76 8.27,-27.65 5.53,-6.88 14.01,-12.77 25.5,-17.66 12.8,-4.89 27.92,-8.44 45.36,-10.66 17.44,-2.22 33.88,-3.33 49.34,-3.33zm225.16 -79.94c0,-16.88 5.64,-31.09 16.89,-42.64 11.26,-11.55 26.15,-17.33 44.7,-17.33 18.54,0 33.45,5.77 44.71,17.33 11.26,11.54 16.88,25.75 16.88,42.64 0,16.87 -5.63,31.08 -16.88,42.64 -11.26,11.54 -26.17,17.32 -44.71,17.32 -18.54,0 -33.44,-5.77 -44.7,-17.32 -11.26,-11.55 -16.89,-25.76 -16.89,-42.64zm117.88 413.05c-4.86,0.88 -12.03,2.11 -21.52,3.66 -9.49,1.55 -19.09,2.34 -28.8,2.34 -9.71,0 -18.44,-0.67 -26.17,-2.01 -7.73,-1.33 -14.24,-3.99 -19.53,-7.99 -5.3,-3.99 -9.38,-9.44 -12.25,-16.32 -2.87,-6.88 -4.31,-15.88 -4.31,-26.98l0 -271.15c4.86,-0.88 12.04,-2.11 21.52,-3.66 9.5,-1.55 19.1,-2.34 28.81,-2.34 9.71,0 18.43,0.67 26.15,2 7.73,1.34 14.24,4 19.54,7.99 5.3,4 9.38,9.45 12.25,16.33 2.87,6.88 4.3,15.88 4.3,26.98l0 271.15zm343.04 -95.94c0,33.76 -12.58,60.18 -37.75,79.28 -25.16,19.1 -62.25,28.64 -111.25,28.64 -18.55,0 -35.76,-1.33 -51.66,-3.99 -15.9,-2.66 -29.47,-6.77 -40.72,-12.33 -11.26,-5.56 -20.08,-12.54 -26.49,-20.99 -6.4,-8.44 -9.6,-18.43 -9.6,-29.97 0,-10.66 2.21,-19.65 6.63,-26.99 4.41,-7.33 9.71,-13.43 15.89,-18.31 12.81,7.1 27.48,13.44 44.05,18.98 16.56,5.56 35.64,8.33 57.28,8.33 13.68,0 24.17,-2.01 31.45,-6 7.28,-4 10.93,-9.33 10.93,-15.99 0,-6.22 -2.64,-11.1 -7.94,-14.66 -5.3,-3.55 -14.13,-6.44 -26.49,-8.65l-19.87 -4c-38.41,-7.55 -66.99,-19.43 -85.76,-35.64 -18.76,-16.22 -28.14,-39.42 -28.14,-69.62 0,-16.43 3.53,-31.31 10.6,-44.63 7.06,-13.32 17,-24.44 29.8,-33.32 12.81,-8.88 28.15,-15.76 46.02,-20.65 17.88,-4.89 37.64,-7.33 59.28,-7.33 16.34,0 31.68,1.21 46.02,3.66 14.35,2.44 26.82,6.1 37.42,10.99 10.59,4.89 18.98,11.22 25.16,18.99 6.18,7.77 9.28,16.99 9.28,27.65 0,10.21 -1.88,18.98 -5.64,26.31 -3.75,7.33 -8.5,13.44 -14.23,18.32 -3.54,-2.22 -8.84,-4.56 -15.9,-7 -7.07,-2.44 -14.8,-4.66 -23.18,-6.67 -8.39,-2 -16.88,-3.66 -25.5,-4.99 -8.61,-1.34 -16.44,-2 -23.51,-2 -14.57,0 -25.83,1.66 -33.77,4.99 -7.95,3.33 -11.93,8.55 -11.93,15.66 0,4.89 2.21,8.88 6.63,11.99 4.41,3.11 12.8,6 25.17,8.66l20.53 4.66c42.38,9.77 72.52,23.21 90.4,40.31 17.87,17.09 26.81,39.19 26.81,66.28zm51.66 -317.11c0,-16.88 5.63,-31.09 16.88,-42.64 11.26,-11.55 26.15,-17.33 44.7,-17.33 18.54,0 33.45,5.77 44.71,17.33 11.26,11.54 16.88,25.75 16.88,42.64 0,16.87 -5.63,31.08 -16.88,42.64 -11.26,11.54 -26.17,17.32 -44.71,17.32 -18.54,0 -33.44,-5.77 -44.7,-17.32 -11.26,-11.55 -16.88,-25.76 -16.88,-42.64zm117.87 413.05c-4.86,0.88 -12.03,2.11 -21.52,3.66 -9.49,1.55 -19.09,2.34 -28.8,2.34 -9.71,0 -18.44,-0.67 -26.17,-2.01 -7.73,-1.33 -14.24,-3.99 -19.53,-7.99 -5.3,-3.99 -9.38,-9.44 -12.25,-16.32 -2.87,-6.88 -4.31,-15.88 -4.31,-26.98l0 -271.15c4.86,-0.88 12.04,-2.11 21.52,-3.66 9.5,-1.55 19.1,-2.34 28.81,-2.34 9.71,0 18.43,0.67 26.15,2 7.73,1.34 14.24,4 19.54,7.99 5.3,4 9.38,9.45 12.25,16.33 2.87,6.88 4.3,15.88 4.3,26.98l0 271.15zm184.1 -110.59c0,11.54 3.64,19.76 10.93,24.64 7.28,4.89 17.55,7.34 30.8,7.34 6.63,0 13.47,-0.56 20.53,-1.67 7.07,-1.11 13.24,-2.56 18.54,-4.33 3.98,4.89 7.4,10.32 10.27,16.32 2.87,6 4.3,13.21 4.3,21.65 0,16.88 -6.29,30.65 -18.87,41.31 -12.58,10.66 -34.77,15.99 -66.55,15.99 -38.85,0 -68.77,-8.88 -89.74,-26.65 -20.97,-17.77 -31.45,-46.63 -31.45,-86.6l0 -285.14c4.86,-1.33 11.81,-2.78 20.87,-4.33 9.04,-1.55 18.64,-2.33 28.8,-2.33 19.43,0 34.55,3.44 45.36,10.32 10.81,6.88 16.23,21.43 16.23,43.64l0 42.64 86.76 0c2.64,4.89 5.19,10.99 7.61,18.32 2.43,7.33 3.64,15.43 3.64,24.31 0,15.55 -3.43,26.76 -10.27,33.65 -6.84,6.88 -16,10.33 -27.48,10.33l-60.26 0 0 100.6zm290.06 39.3c7.51,0 15.78,-0.78 24.84,-2.34 9.04,-1.55 15.78,-3.66 20.2,-6.33l0 -53.3 -47.68 4c-12.37,0.88 -22.52,3.55 -30.47,7.99 -7.94,4.43 -11.93,11.1 -11.93,19.98 0,8.88 3.43,16.1 10.27,21.65 6.84,5.56 18.43,8.33 34.77,8.33zm-5.3 -261.83c23.84,0 45.59,2.45 65.23,7.34 19.64,4.89 36.42,12.33 50.33,22.32 13.9,9.99 24.61,22.65 32.11,37.97 7.51,15.33 11.26,33.43 11.26,54.31l0 149.22c0,11.55 -3.2,20.99 -9.6,28.32 -6.4,7.33 -14.01,13.65 -22.84,18.98 -28.71,17.33 -69.1,25.99 -121.2,25.99 -23.4,0 -44.48,-2.22 -63.25,-6.67 -18.76,-4.44 -34.87,-11.1 -48.34,-19.98 -13.47,-8.89 -23.84,-20.21 -31.12,-33.97 -7.28,-13.78 -10.93,-29.77 -10.93,-47.97 0,-30.65 9.05,-54.19 27.15,-70.62 18.1,-16.43 46.14,-26.65 84.1,-30.64l86.75 -9.33 0 -4.66c0,-12.88 -5.63,-22.09 -16.88,-27.65 -11.26,-5.56 -27.48,-8.32 -48.68,-8.32 -16.77,0 -33.11,1.77 -49,5.33 -15.9,3.55 -30.25,7.99 -43.05,13.32 -5.74,-4 -10.6,-10.1 -14.57,-18.32 -3.97,-8.22 -5.96,-16.77 -5.96,-25.65 0,-11.54 2.76,-20.76 8.27,-27.65 5.53,-6.88 14.02,-12.77 25.5,-17.66 12.81,-4.89 27.92,-8.44 45.36,-10.66 17.44,-2.22 33.88,-3.33 49.34,-3.33zm340.4 333.11c-4.41,1.33 -11.37,2.66 -20.87,3.99 -9.49,1.34 -19.31,2.01 -29.47,2.01 -9.71,0 -18.43,-0.67 -26.15,-2.01 -7.73,-1.33 -14.24,-3.99 -19.54,-7.99 -5.3,-3.99 -9.38,-9.44 -12.25,-16.32 -2.86,-6.88 -4.3,-15.88 -4.3,-26.98l0 -199.87c0,-10.22 1.87,-18.98 5.63,-26.32 3.76,-7.33 9.17,-13.87 16.23,-19.65 7.07,-5.77 15.78,-10.99 26.15,-15.65 10.38,-4.66 21.52,-8.78 33.45,-12.33 11.91,-3.55 24.28,-6.33 37.08,-8.32 12.8,-2.01 25.61,-3 38.41,-3 21.2,0 37.97,4.12 50.33,12.33 12.36,8.22 18.54,21.65 18.54,40.3 0,6.22 -0.88,12.33 -2.65,18.32 -1.76,6 -3.97,11.43 -6.62,16.32 -9.27,0 -18.77,0.45 -28.48,1.34 -9.71,0.88 -19.2,2.22 -28.47,3.99 -9.27,1.78 -18,3.66 -26.17,5.67 -8.17,2 -15.11,4.33 -20.86,7l0 227.17zm317.21 11.33c-26.05,0 -50.22,-3.66 -72.52,-11 -22.3,-7.33 -41.72,-18.31 -58.28,-32.98 -16.56,-14.65 -29.58,-33.09 -39.07,-55.29 -9.5,-22.2 -14.24,-48.18 -14.24,-77.95 0,-29.31 4.74,-54.51 14.24,-75.61 9.49,-21.09 21.96,-38.41 37.41,-51.96 15.45,-13.55 33.11,-23.54 52.98,-29.98 19.87,-6.44 40.18,-9.66 60.93,-9.66 23.4,0 44.7,3.56 63.91,10.66 19.2,7.11 35.75,16.88 49.67,29.31 13.91,12.44 24.72,27.32 32.45,44.64 7.73,17.32 11.59,36.2 11.59,56.62 0,15.1 -4.2,26.65 -12.58,34.64 -8.39,7.99 -20.08,13.11 -35.1,15.32l-163.58 24.65c4.86,14.66 14.8,25.65 29.81,32.98 15,7.33 32.23,11 51.65,11 18.1,0 35.21,-2.34 51.32,-7 16.11,-4.67 29.25,-10.1 39.41,-16.33 7.06,4.44 13.02,10.66 17.87,18.65 4.86,7.99 7.28,16.43 7.28,25.32 0,19.98 -9.27,34.86 -27.81,44.63 -14.13,7.55 -30.02,12.66 -47.68,15.32 -17.66,2.66 -34.21,4 -49.67,4zm-18.54 -261.83c-10.6,0 -19.77,1.78 -27.48,5.33 -7.73,3.56 -14.02,8.11 -18.88,13.66 -4.86,5.55 -8.5,11.77 -10.93,18.65 -2.43,6.88 -3.86,13.88 -4.3,20.98l113.24 -18.65c-1.33,-8.88 -6.18,-17.76 -14.57,-26.65 -8.39,-8.88 -20.75,-13.32 -37.08,-13.32zm190.72 -19.98c3.53,-16.87 10.48,-30.65 20.87,-41.31 10.37,-10.66 23.28,-15.99 38.74,-15.99 14.57,0 25.83,3.56 33.77,10.66 7.95,7.11 16.78,17.1 26.49,29.98l42.38 55.96 70.86 -96.6c24.28,0 43.49,4.33 57.62,13 14.13,8.66 21.19,20.32 21.19,34.97 0,5.78 -0.77,11 -2.32,15.66 -1.54,4.66 -3.86,9.44 -6.96,14.32 -3.09,4.89 -7.06,10.43 -11.91,16.66 -4.86,6.21 -10.6,13.54 -17.22,21.99l-43.71 49.3 86.76 115.25c-2.21,16.88 -8.83,30.21 -19.87,39.97 -11.04,9.77 -24.28,14.66 -39.74,14.66 -16.77,-0.44 -30.13,-5.33 -40.07,-14.66 -9.93,-9.32 -19.54,-20.65 -28.81,-33.97l-35.75 -51.29 -67.55 97.93c-2.21,0 -4.64,0.1 -7.28,0.33 -2.65,0.23 -4.86,0.33 -6.63,0.33 -22.51,0 -39.62,-4.66 -51.32,-13.98 -11.7,-9.33 -17.55,-20.88 -17.55,-34.64 0,-10.66 2.54,-20.1 7.61,-28.32 5.08,-8.22 13.8,-19.44 26.17,-33.65l52.98 -61.96 -88.74 -104.59zm476.82 159.89c0,11.54 3.64,19.76 10.93,24.64 7.28,4.89 17.54,7.34 30.8,7.34 6.62,0 13.46,-0.56 20.53,-1.67 7.06,-1.11 13.24,-2.56 18.54,-4.33 3.97,4.89 7.4,10.32 10.27,16.32 2.86,6 4.3,13.21 4.3,21.65 0,16.88 -6.3,30.65 -18.87,41.31 -12.58,10.66 -34.77,15.99 -66.56,15.99 -38.85,0 -68.76,-8.88 -89.73,-26.65 -20.97,-17.77 -31.45,-46.63 -31.45,-86.6l0 -285.14c4.86,-1.33 11.8,-2.78 20.86,-4.33 9.05,-1.55 18.65,-2.33 28.81,-2.33 19.43,0 34.54,3.44 45.36,10.32 10.81,6.88 16.23,21.43 16.23,43.64l0 42.64 86.75 0c2.65,4.89 5.19,10.99 7.61,18.32 2.43,7.33 3.64,15.43 3.64,24.31 0,15.55 -3.42,26.76 -10.26,33.65 -6.84,6.88 -16.01,10.33 -27.48,10.33l-60.26 0 0 100.6zm481.45 -50.63c0,27.53 -4.2,52.07 -12.58,73.61 -8.4,21.55 -20.2,39.64 -35.44,54.3 -15.23,14.66 -33.44,25.76 -54.64,33.32 -21.19,7.55 -44.81,11.33 -70.85,11.33 -26.05,0 -49.68,-4 -70.86,-12 -21.2,-7.99 -39.41,-19.43 -54.64,-34.3 -15.24,-14.88 -27.04,-32.99 -35.44,-54.3 -8.39,-21.32 -12.58,-45.3 -12.58,-71.95 0,-26.21 4.2,-49.96 12.58,-71.28 8.4,-21.32 20.2,-39.42 35.44,-54.31 15.23,-14.88 33.44,-26.31 54.64,-34.3 21.19,-7.99 44.81,-12 70.86,-12 26.04,0 49.67,4.12 70.85,12.33 21.2,8.22 39.41,19.77 54.64,34.64 15.24,14.88 27.04,32.98 35.44,54.3 8.39,21.32 12.58,44.86 12.58,70.62zm-231.78 0c0,27.09 5.19,47.85 15.56,62.29 10.37,14.44 24.84,21.65 43.38,21.65 18.54,0 32.78,-7.33 42.71,-21.99 9.94,-14.65 14.9,-35.3 14.9,-61.95 0,-26.65 -5.07,-47.2 -15.23,-61.63 -10.16,-14.43 -24.5,-21.65 -43.04,-21.65 -18.55,0 -32.89,7.22 -43.05,21.65 -10.16,14.44 -15.23,34.98 -15.23,61.63zm490.72 -43.31c0,-13.77 -3.87,-23.87 -11.6,-30.31 -7.73,-6.44 -18.21,-9.66 -31.45,-9.66 -8.83,0 -17.55,1.11 -26.15,3.33 -8.61,2.22 -16.01,5.55 -22.19,9.99l0 231.18c-4.41,1.33 -11.36,2.66 -20.86,3.99 -9.5,1.34 -19.31,2.01 -29.47,2.01 -9.71,0 -18.44,-0.67 -26.15,-2.01 -7.73,-1.33 -14.24,-3.99 -19.54,-7.99 -5.3,-3.99 -9.38,-9.44 -12.25,-16.32 -2.87,-6.88 -4.3,-15.88 -4.3,-26.98l0 -199.87c0,-11.99 2.53,-21.76 7.61,-29.31 5.07,-7.55 12.03,-14.44 20.86,-20.65 15.01,-10.66 33.89,-19.32 56.62,-25.98 22.74,-6.67 48.02,-10 75.83,-10 49.89,0 88.3,11 115.23,32.99 26.94,21.98 40.4,52.52 40.4,91.59l0 208.53c-4.41,1.33 -11.37,2.66 -20.86,3.99 -9.5,1.34 -19.31,2.01 -29.47,2.01 -9.71,0 -18.44,-0.67 -26.17,-2.01 -7.73,-1.33 -14.23,-3.99 -19.53,-7.99 -5.3,-3.99 -9.38,-9.44 -12.25,-16.32 -2.87,-6.88 -4.3,-15.88 -4.3,-26.98l0 -157.23z"/>
   <g>
    <path class="fil2 str0" d="M568.64 538.06c-13.98,-4.81 -26.7,-9.68 -38.15,-14.63 -11.44,-4.97 -21.32,-10.96 -29.59,-18.01 -8.26,-7.04 -14.69,-15.43 -19.3,-25.19 -4.61,-9.76 -6.92,-21.69 -6.92,-35.75 0,-27.2 10.42,-48.96 31.25,-65.26 20.83,-16.33 50.01,-24.49 87.53,-24.49 13.67,0 26.4,0.97 38.16,2.88 11.78,1.92 21.86,4.89 30.29,8.88 8.44,4 15.04,9.12 19.82,15.36 4.75,6.24 7.15,13.52 7.15,21.83 0,8.32 -1.91,15.43 -5.73,21.36 -3.82,5.91 -8.43,10.96 -13.84,15.1 -6.99,-4.48 -16.37,-8.4 -28.14,-11.75 -11.76,-3.35 -24.64,-5.03 -38.65,-5.03 -14.3,0 -24.81,1.99 -31.47,5.99 -6.69,4.01 -10.02,9.04 -10.02,15.13 0,4.78 2.06,8.71 6.2,11.76 4.13,3.03 10.34,5.82 18.59,8.4l25.29 8.16c29.89,9.59 52.88,21.83 68.93,36.71 16.07,14.88 24.1,35.12 24.1,60.71 0,27.18 -10.65,49.18 -31.96,65.98 -21.32,16.8 -52.63,25.2 -93.98,25.2 -14.63,0 -28.22,-1.2 -40.8,-3.59 -12.55,-2.42 -23.53,-5.93 -32.91,-10.57 -9.37,-4.64 -16.69,-10.4 -21.93,-17.28 -5.26,-6.88 -7.88,-14.8 -7.88,-23.76 0,-9.28 2.71,-17.2 8.11,-23.75 5.4,-6.56 11.3,-11.61 17.66,-15.13 8.9,7.03 19.79,13.12 32.67,18.23 12.88,5.12 26.97,7.69 42.23,7.69 15.59,0 26.56,-2.41 32.91,-7.19 6.36,-4.81 9.55,-10.41 9.55,-16.8 0,-6.4 -2.56,-11.29 -7.63,-14.64 -5.1,-3.36 -12.25,-6.64 -21.48,-9.85l-20.03 -6.71zm246.17 -241.4c16.51,0 28.52,3.21 36,9.61 7.48,6.4 11.22,14.09 11.22,23.04 0,8.31 -2.23,15.27 -6.68,20.87 -4.46,5.61 -11.77,11.12 -21.95,16.56l-61.53 32.65c-9.55,-0.97 -17.66,-4.81 -24.34,-11.52 -6.68,-6.73 -10.01,-13.92 -10.01,-21.59 0,-3.85 0.96,-7.69 2.86,-11.53 1.91,-3.84 5.08,-7.36 9.55,-10.55l64.88 -47.53zm11.44 356.59c-3.5,0.63 -8.66,1.51 -15.51,2.63 -6.85,1.1 -13.76,1.68 -20.75,1.68 -7.01,0 -13.28,-0.49 -18.85,-1.45 -5.57,-0.96 -10.25,-2.86 -14.07,-5.75 -3.82,-2.88 -6.76,-6.8 -8.83,-11.77 -2.06,-4.95 -3.1,-11.42 -3.1,-19.42l0 -195.33c3.5,-0.64 8.66,-1.51 15.51,-2.63 6.83,-1.13 13.76,-1.68 20.74,-1.68 7,0 13.29,0.47 18.84,1.43 5.57,0.96 10.26,2.88 14.08,5.76 3.83,2.88 6.77,6.8 8.83,11.75 2.07,4.97 3.11,11.45 3.11,19.45l0 195.33zm164.57 -239.95c18.13,0 34.58,2.3 49.38,6.95 14.79,4.64 27.27,10.64 37.44,18 6.37,4.49 11.38,9.44 15.04,14.88 3.65,5.43 5.48,12.48 5.48,21.11l0 167.98c0,16.95 -3.19,31.58 -9.55,43.9 -6.36,12.31 -15.02,22.55 -25.99,30.7 -10.98,8.16 -23.86,14.17 -38.65,18.01 -14.8,3.85 -30.62,5.76 -47.46,5.76 -28.95,0 -51.69,-3.92 -68.23,-11.77 -16.52,-7.83 -24.8,-20.54 -24.8,-38.14 0,-7.36 1.5,-13.84 4.54,-19.44 3,-5.6 6.44,-9.84 10.24,-12.72 9.23,5.11 19.65,9.45 31.25,12.96 11.63,3.51 23.61,5.27 36.02,5.27 17.17,0 30.85,-2.88 41.03,-8.64 10.18,-5.74 15.26,-15.02 15.26,-27.82l0 -7.69c-13.05,5.76 -28.93,8.64 -47.71,8.64 -14.3,0 -27.9,-2.16 -40.78,-6.47 -12.88,-4.33 -24.18,-11.04 -33.87,-20.16 -9.7,-9.14 -17.5,-20.89 -23.38,-35.28 -5.89,-14.39 -8.83,-31.52 -8.83,-51.34 0,-19.52 3.11,-36.49 9.3,-50.88 6.19,-14.39 14.8,-26.31 25.76,-35.75 10.97,-9.44 24.01,-16.47 39.12,-21.11 15.11,-4.64 31.57,-6.95 49.37,-6.95zm29.58 69.58c-2.23,-1.29 -5.48,-2.55 -9.78,-3.84 -4.29,-1.29 -9.61,-1.92 -15.98,-1.92 -15.58,0 -27.27,4.39 -35.07,13.2 -7.78,8.8 -11.69,21.36 -11.69,37.68 0,18.55 3.91,31.91 11.69,40.07 7.8,8.15 17.74,12.23 29.83,12.23 13.03,0 23.37,-3.04 31,-9.12l0 -88.3zm127.85 -59.03c3.17,-0.96 8.19,-1.92 15.01,-2.88 6.85,-0.96 13.92,-1.43 21.24,-1.43 7.01,0 13.28,0.47 18.85,1.43 5.56,0.96 10.25,2.88 14.07,5.76 3.82,2.88 6.76,6.8 8.84,11.75 2.05,4.97 3.09,11.45 3.09,19.45l0 103.18c0,13.11 3.19,22.46 9.55,28.07 6.36,5.6 15.59,8.4 27.66,8.4 7.32,0 13.28,-0.64 17.9,-1.92 4.61,-1.27 8.18,-2.55 10.72,-3.84l0 -167.96c3.19,-0.96 8.19,-1.92 15.04,-2.88 6.82,-0.96 13.9,-1.43 21.22,-1.43 7.01,0 13.28,0.47 18.85,1.43 5.57,0.96 10.26,2.88 14.07,5.76 3.82,2.88 6.76,6.8 8.83,11.75 2.06,4.97 3.1,11.45 3.1,19.45l0 145.88c0,16.01 -6.67,28.01 -20.03,36 -11.13,7.03 -24.41,12.4 -39.83,16.08 -15.42,3.67 -32.2,5.51 -50.33,5.51 -17.16,0 -33,-1.91 -47.46,-5.76 -14.47,-3.84 -26.96,-9.75 -37.44,-17.76 -10.51,-7.99 -18.61,-18.31 -24.34,-30.95 -5.71,-12.64 -8.57,-27.92 -8.57,-45.83l0 -137.26zm400.24 237.56c-18.78,0 -36.19,-2.63 -52.24,-7.92 -16.07,-5.28 -30.05,-13.19 -41.98,-23.76 -11.93,-10.55 -21.32,-23.83 -28.14,-39.84 -6.85,-15.98 -10.26,-34.71 -10.26,-56.15 0,-21.11 3.41,-39.26 10.26,-54.45 6.82,-15.21 15.8,-27.68 26.94,-37.45 11.14,-9.74 23.86,-16.95 38.16,-21.59 14.32,-4.64 28.95,-6.95 43.89,-6.95 16.86,0 32.2,2.55 46.03,7.67 13.84,5.12 25.76,12.16 35.79,21.11 10.01,8.95 17.8,19.68 23.37,32.15 5.57,12.49 8.35,26.08 8.35,40.8 0,10.88 -3.03,19.2 -9.06,24.96 -6.04,5.74 -14.47,9.42 -25.28,11.04l-117.83 17.74c3.5,10.57 10.65,18.48 21.46,23.77 10.81,5.28 23.22,7.91 37.21,7.91 13.05,0 25.37,-1.68 36.98,-5.04 11.6,-3.35 21.07,-7.28 28.38,-11.76 5.08,3.21 9.39,7.69 12.88,13.45 3.5,5.75 5.25,11.84 5.25,18.23 0,14.39 -6.69,25.11 -20.03,32.15 -10.18,5.44 -21.62,9.12 -34.35,11.04 -12.73,1.92 -24.64,2.88 -35.78,2.88zm-13.37 -188.6c-7.62,0 -14.23,1.27 -19.8,3.84 -5.57,2.56 -10.09,5.83 -13.59,9.84 -3.5,4 -6.12,8.48 -7.88,13.43 -1.75,4.97 -2.77,10 -3.09,15.13l81.57 -13.45c-0.96,-6.4 -4.47,-12.79 -10.51,-19.19 -6.03,-6.4 -14.95,-9.59 -26.71,-9.59zm299.58 33.11c0,-9.91 -2.79,-17.2 -8.35,-21.83 -5.57,-4.64 -13.11,-6.97 -22.66,-6.97 -6.36,0 -12.64,0.8 -18.83,2.4 -6.21,1.61 -11.54,4 -15.99,7.21l0 166.53c-3.18,0.94 -8.19,1.9 -15.02,2.86 -6.84,0.96 -13.92,1.45 -21.24,1.45 -7.01,0 -13.28,-0.49 -18.85,-1.45 -5.57,-0.96 -10.24,-2.86 -14.07,-5.75 -3.82,-2.88 -6.76,-6.8 -8.83,-11.77 -2.06,-4.95 -3.1,-11.42 -3.1,-19.42l0 -143.99c0,-8.62 1.83,-15.67 5.48,-21.11 3.66,-5.43 8.66,-10.4 15.02,-14.88 10.82,-7.67 24.42,-13.92 40.8,-18.71 16.38,-4.81 34.58,-7.19 54.61,-7.19 35.95,0 63.61,7.91 83,23.75 19.41,15.82 29.1,37.83 29.1,65.98l0 150.22c-3.17,0.94 -8.19,1.9 -15.01,2.86 -6.85,0.96 -13.92,1.45 -21.24,1.45 -6.99,0 -13.27,-0.49 -18.84,-1.45 -5.57,-0.96 -10.26,-2.86 -14.08,-5.75 -3.82,-2.88 -6.76,-6.8 -8.82,-11.77 -2.07,-4.95 -3.11,-11.42 -3.11,-19.42l0 -113.26zm371.14 31.2c0,19.83 -3,37.5 -9.06,53.02 -6.03,15.52 -14.55,28.55 -25.52,39.12 -10.97,10.56 -24.1,18.54 -39.36,24 -15.26,5.43 -32.27,8.15 -51.04,8.15 -18.76,0 -35.78,-2.88 -51.04,-8.64 -15.26,-5.76 -28.38,-14 -39.36,-24.71 -10.97,-10.71 -19.48,-23.75 -25.52,-39.12 -6.04,-15.35 -9.06,-32.63 -9.06,-51.82 0,-18.89 3.03,-36 9.06,-51.35 6.04,-15.36 14.55,-28.39 25.52,-39.12 10.98,-10.71 24.1,-18.95 39.36,-24.71 15.27,-5.76 32.29,-8.62 51.04,-8.62 18.78,0 35.79,2.94 51.04,8.87 15.26,5.91 28.39,14.23 39.36,24.96 10.97,10.71 19.49,23.75 25.52,39.1 6.06,15.35 9.06,32.32 9.06,50.88zm-166.96 0c0,19.52 3.75,34.46 11.22,44.86 7.48,10.4 17.88,15.6 31.25,15.6 13.36,0 23.61,-5.27 30.76,-15.83 7.15,-10.56 10.73,-25.43 10.73,-44.62 0,-19.2 -3.65,-34 -10.97,-44.4 -7.32,-10.4 -17.66,-15.6 -31.01,-15.6 -13.34,0 -23.69,5.2 -31,15.6 -7.32,10.4 -10.98,25.2 -10.98,44.4zm402.15 47.03c0,24.3 -9.06,43.35 -27.18,57.1 -18.15,13.76 -44.85,20.63 -80.16,20.63 -13.34,0 -25.76,-0.96 -37.21,-2.88 -11.44,-1.92 -21.23,-4.87 -29.33,-8.87 -8.11,-4.01 -14.47,-9.03 -19.08,-15.13 -4.62,-6.07 -6.91,-13.27 -6.91,-21.59 0,-7.69 1.58,-14.17 4.75,-19.44 3.19,-5.28 7.01,-9.67 11.46,-13.21 9.22,5.13 19.8,9.69 31.72,13.67 11.93,4.01 25.68,6.01 41.26,6.01 9.86,0 17.42,-1.43 22.66,-4.31 5.25,-2.88 7.88,-6.73 7.88,-11.52 0,-4.48 -1.9,-7.99 -5.72,-10.56 -3.83,-2.57 -10.19,-4.64 -19.09,-6.25l-14.32 -2.87c-27.66,-5.45 -48.26,-13.99 -61.77,-25.68 -13.52,-11.68 -20.28,-28.4 -20.28,-50.15 0,-11.83 2.54,-22.54 7.63,-32.15 5.08,-9.6 12.23,-17.59 21.46,-23.99 9.22,-6.4 20.28,-11.36 33.16,-14.88 12.88,-3.52 27.1,-5.28 42.69,-5.28 11.76,0 22.81,0.88 33.16,2.64 10.34,1.75 19.31,4.39 26.96,7.92 7.62,3.52 13.67,8.08 18.12,13.67 4.46,5.6 6.67,12.22 6.67,19.91 0,7.36 -1.34,13.67 -4.04,18.95 -2.7,5.29 -6.11,9.68 -10.26,13.2 -2.54,-1.59 -6.36,-3.27 -11.44,-5.03 -5.09,-1.77 -10.66,-3.36 -16.7,-4.79 -6.05,-1.45 -12.17,-2.64 -18.37,-3.6 -6.2,-0.96 -11.85,-1.45 -16.95,-1.45 -10.48,0 -18.59,1.2 -24.32,3.6 -5.73,2.41 -8.59,6.16 -8.59,11.28 0,3.52 1.61,6.4 4.77,8.64 3.19,2.23 9.22,4.32 18.12,6.24l14.8 3.35c30.54,7.05 52.24,16.72 65.12,29.05 12.88,12.31 19.32,28.23 19.32,47.75zm257.14 77.26c-18.78,0 -36.19,-2.63 -52.24,-7.92 -16.07,-5.28 -30.05,-13.19 -41.98,-23.76 -11.94,-10.55 -21.32,-23.83 -28.15,-39.84 -6.84,-15.98 -10.26,-34.71 -10.26,-56.15 0,-21.11 3.42,-39.26 10.26,-54.45 6.83,-15.21 15.81,-27.68 26.95,-37.45 11.13,-9.74 23.86,-16.95 38.16,-21.59 14.32,-4.64 28.95,-6.95 43.88,-6.95 16.86,0 32.2,2.55 46.04,7.67 13.84,5.12 25.76,12.16 35.79,21.11 10.01,8.95 17.8,19.68 23.37,32.15 5.57,12.49 8.34,26.08 8.34,40.8 0,10.88 -3.03,19.2 -9.05,24.96 -6.04,5.74 -14.47,9.42 -25.28,11.04l-117.83 17.74c3.5,10.57 10.65,18.48 21.46,23.77 10.8,5.28 23.22,7.91 37.21,7.91 13.04,0 25.37,-1.68 36.98,-5.04 11.6,-3.35 21.06,-7.28 28.38,-11.76 5.08,3.21 9.39,7.69 12.88,13.45 3.5,5.75 5.25,11.84 5.25,18.23 0,14.39 -6.69,25.11 -20.03,32.15 -10.19,5.44 -21.63,9.12 -34.35,11.04 -12.74,1.92 -24.64,2.88 -35.78,2.88zm-13.38 -188.6c-7.61,0 -14.22,1.27 -19.79,3.84 -5.57,2.56 -10.1,5.83 -13.59,9.84 -3.5,4 -6.12,8.48 -7.88,13.43 -1.75,4.97 -2.77,10 -3.1,15.13l81.58 -13.45c-0.96,-6.4 -4.47,-12.79 -10.51,-19.19 -6.03,-6.4 -14.95,-9.59 -26.72,-9.59zm299.59 33.11c0,-9.91 -2.79,-17.2 -8.35,-21.83 -5.57,-4.64 -13.11,-6.97 -22.66,-6.97 -6.36,0 -12.64,0.8 -18.84,2.4 -6.21,1.61 -11.53,4 -15.99,7.21l0 166.53c-3.17,0.94 -8.18,1.9 -15.01,2.86 -6.84,0.96 -13.92,1.45 -21.24,1.45 -7.01,0 -13.28,-0.49 -18.85,-1.45 -5.57,-0.96 -10.25,-2.86 -14.07,-5.75 -3.82,-2.88 -6.76,-6.8 -8.84,-11.77 -2.05,-4.95 -3.09,-11.42 -3.09,-19.42l0 -143.99c0,-8.62 1.83,-15.67 5.48,-21.11 3.66,-5.43 8.66,-10.4 15.02,-14.88 10.82,-7.67 24.42,-13.92 40.8,-18.71 16.38,-4.81 34.58,-7.19 54.61,-7.19 35.94,0 63.6,7.91 83,23.75 19.41,15.82 29.1,37.83 29.1,65.98l0 150.22c-3.17,0.94 -8.19,1.9 -15.01,2.86 -6.85,0.96 -13.92,1.45 -21.24,1.45 -7,0 -13.27,-0.49 -18.84,-1.45 -5.57,-0.96 -10.26,-2.86 -14.08,-5.75 -3.82,-2.88 -6.77,-6.8 -8.82,-11.77 -2.08,-4.95 -3.11,-11.42 -3.11,-19.42l0 -113.26zm315.8 53.74l0 92.15c-3.49,0.96 -8.98,1.91 -16.45,2.88 -7.48,0.96 -14.86,1.43 -22.17,1.43 -7.32,0 -13.76,-0.56 -19.32,-1.68 -5.57,-1.12 -10.18,-3.11 -13.84,-5.99 -3.65,-2.88 -6.44,-6.89 -8.34,-12 -1.91,-5.13 -2.87,-11.84 -2.87,-20.16l0 -226.03c0,-6.73 1.83,-11.91 5.49,-15.6 3.65,-3.68 8.67,-6.65 15.03,-8.89 10.8,-3.84 23.37,-6.64 37.67,-8.4 14.32,-1.76 29.58,-2.64 45.8,-2.64 43.89,0 76.97,9.28 99.24,27.84 22.26,18.56 33.39,43.67 33.39,75.35 0,19.83 -5.08,36.79 -15.27,50.87 -10.18,14.07 -22.27,24.94 -36.25,32.63 11.44,15.68 22.74,30.39 33.86,44.15 11.13,13.76 19.89,26.25 26.25,37.43 -3.19,11.19 -8.98,19.77 -17.42,25.67 -8.43,5.93 -17.89,8.89 -28.38,8.89 -7,0 -13.05,-0.8 -18.13,-2.41 -5.09,-1.59 -9.55,-3.83 -13.37,-6.71 -3.81,-2.88 -7.32,-6.4 -10.48,-10.57 -3.19,-4.16 -6.2,-8.63 -9.06,-13.43l-40.07 -64.8 -25.3 0zm30.05 -63.81c12.09,0 21.64,-3.13 28.62,-9.36 7,-6.24 10.51,-15.43 10.51,-27.6 0,-12.16 -3.9,-21.36 -11.7,-27.6 -7.78,-6.24 -20.12,-9.36 -36.96,-9.36 -4.77,0 -8.59,0.16 -11.46,0.49 -2.86,0.31 -6.04,0.79 -9.53,1.43l0 71.99 30.52 0zm286.72 165.56c-18.78,0 -36.19,-2.63 -52.24,-7.92 -16.07,-5.28 -30.05,-13.19 -41.98,-23.76 -11.93,-10.55 -21.32,-23.83 -28.14,-39.84 -6.85,-15.98 -10.26,-34.71 -10.26,-56.15 0,-21.11 3.41,-39.26 10.26,-54.45 6.82,-15.21 15.8,-27.68 26.95,-37.45 11.13,-9.74 23.85,-16.95 38.15,-21.59 14.32,-4.64 28.95,-6.95 43.89,-6.95 16.86,0 32.2,2.55 46.03,7.67 13.84,5.12 25.76,12.16 35.79,21.11 10.02,8.95 17.8,19.68 23.37,32.15 5.57,12.49 8.35,26.08 8.35,40.8 0,10.88 -3.03,19.2 -9.06,24.96 -6.04,5.74 -14.47,9.42 -25.28,11.04l-117.83 17.74c3.5,10.57 10.65,18.48 21.46,23.77 10.81,5.28 23.22,7.91 37.21,7.91 13.05,0 25.37,-1.68 36.98,-5.04 11.61,-3.35 21.07,-7.28 28.39,-11.76 5.07,3.21 9.38,7.69 12.88,13.45 3.49,5.75 5.24,11.84 5.24,18.23 0,14.39 -6.68,25.11 -20.03,32.15 -10.18,5.44 -21.62,9.12 -34.35,11.04 -12.73,1.92 -24.64,2.88 -35.78,2.88zm-13.37 -188.6c-7.62,0 -14.23,1.27 -19.8,3.84 -5.57,2.56 -10.09,5.83 -13.59,9.84 -3.5,4 -6.12,8.48 -7.88,13.43 -1.75,4.97 -2.77,10 -3.09,15.13l81.57 -13.45c-0.96,-6.4 -4.47,-12.79 -10.51,-19.19 -6.03,-6.4 -14.95,-9.59 -26.71,-9.59zm142.64 64.31c0,-21.11 3.17,-39.44 9.53,-54.94 6.36,-15.54 15.2,-28.41 26.47,-38.64 11.3,-10.24 24.5,-17.84 39.6,-22.81 15.11,-4.95 31.41,-7.42 48.9,-7.42 6.36,0 12.55,0.55 18.59,1.68 6.05,1.1 10.98,2.47 14.8,4.06l0 -77.73c3.19,-0.96 8.26,-2.01 15.26,-3.13 7.01,-1.12 14.16,-1.68 21.47,-1.68 6.99,0 13.27,0.49 18.84,1.43 5.57,0.97 10.26,2.88 14.08,5.77 3.82,2.88 6.69,6.8 8.58,11.75 1.9,4.97 2.86,11.44 2.86,19.44l0 227.48c0,15.02 -6.99,27.03 -20.99,35.99 -9.22,6.08 -21.14,11.43 -35.78,16.07 -14.63,4.64 -31.47,6.97 -50.56,6.97 -20.68,0 -39.19,-2.88 -55.57,-8.64 -16.39,-5.76 -30.21,-14.09 -41.51,-24.96 -11.3,-10.87 -19.88,-23.91 -25.76,-39.1 -5.88,-15.21 -8.82,-32.4 -8.82,-51.59zm135.48 -60c-17.18,0 -30.37,4.97 -39.59,14.88 -9.23,9.92 -13.84,24.96 -13.84,45.12 0,19.83 4.29,34.79 12.88,44.86 8.59,10.08 20.99,15.13 37.21,15.13 5.73,0 10.89,-0.87 15.51,-2.65 4.61,-1.75 8.18,-3.75 10.74,-5.99l0 -105.58c-6.38,-3.84 -14,-5.76 -22.9,-5.76zm276.68 184.29c-18.78,0 -36.19,-2.63 -52.24,-7.92 -16.07,-5.28 -30.05,-13.19 -41.98,-23.76 -11.93,-10.55 -21.31,-23.83 -28.14,-39.84 -6.84,-15.98 -10.26,-34.71 -10.26,-56.15 0,-21.11 3.42,-39.26 10.26,-54.45 6.83,-15.21 15.8,-27.68 26.95,-37.45 11.13,-9.74 23.85,-16.95 38.15,-21.59 14.32,-4.64 28.95,-6.95 43.89,-6.95 16.86,0 32.2,2.55 46.04,7.67 13.83,5.12 25.75,12.16 35.78,21.11 10.02,8.95 17.8,19.68 23.37,32.15 5.57,12.49 8.35,26.08 8.35,40.8 0,10.88 -3.03,19.2 -9.06,24.96 -6.04,5.74 -14.47,9.42 -25.28,11.04l-117.83 17.74c3.5,10.57 10.65,18.48 21.46,23.77 10.81,5.28 23.22,7.91 37.21,7.91 13.05,0 25.37,-1.68 36.98,-5.04 11.61,-3.35 21.07,-7.28 28.39,-11.76 5.08,3.21 9.38,7.69 12.88,13.45 3.49,5.75 5.24,11.84 5.24,18.23 0,14.39 -6.68,25.11 -20.03,32.15 -10.18,5.44 -21.62,9.12 -34.35,11.04 -12.73,1.92 -24.64,2.88 -35.78,2.88zm-13.37 -188.6c-7.62,0 -14.23,1.27 -19.8,3.84 -5.57,2.56 -10.09,5.83 -13.59,9.84 -3.5,4 -6.11,8.48 -7.88,13.43 -1.75,4.97 -2.77,10 -3.09,15.13l81.57 -13.45c-0.95,-6.4 -4.47,-12.79 -10.49,-19.19 -6.04,-6.4 -14.96,-9.59 -26.72,-9.59zm348.24 111.34c0,24.3 -9.05,43.35 -27.18,57.1 -18.14,13.76 -44.84,20.63 -80.15,20.63 -13.36,0 -25.76,-0.96 -37.21,-2.88 -11.44,-1.92 -21.24,-4.87 -29.34,-8.87 -8.11,-4.01 -14.47,-9.03 -19.08,-15.13 -4.61,-6.07 -6.9,-13.27 -6.9,-21.59 0,-7.69 1.58,-14.17 4.75,-19.44 3.19,-5.28 7.01,-9.67 11.45,-13.21 9.23,5.13 19.8,9.69 31.72,13.67 11.93,4.01 25.68,6.01 41.27,6.01 9.86,0 17.41,-1.43 22.66,-4.31 5.24,-2.88 7.88,-6.73 7.88,-11.52 0,-4.48 -1.91,-7.99 -5.73,-10.56 -3.82,-2.57 -10.18,-4.64 -19.08,-6.25l-14.32 -2.87c-27.66,-5.45 -48.26,-13.99 -61.78,-25.68 -13.51,-11.68 -20.27,-28.4 -20.27,-50.15 0,-11.83 2.53,-22.54 7.63,-32.15 5.08,-9.6 12.23,-17.59 21.45,-23.99 9.23,-6.4 20.28,-11.36 33.16,-14.88 12.88,-3.52 27.11,-5.28 42.69,-5.28 11.77,0 22.82,0.88 33.16,2.64 10.34,1.75 19.32,4.39 26.96,7.92 7.62,3.52 13.67,8.08 18.13,13.67 4.44,5.6 6.67,12.22 6.67,19.91 0,7.36 -1.35,13.67 -4.04,18.95 -2.71,5.29 -6.12,9.68 -10.26,13.2 -2.54,-1.59 -6.37,-3.27 -11.44,-5.03 -5.1,-1.77 -10.67,-3.36 -16.71,-4.79 -6.05,-1.45 -12.16,-2.64 -18.37,-3.6 -6.19,-0.96 -11.84,-1.45 -16.95,-1.45 -10.48,0 -18.59,1.2 -24.31,3.6 -5.73,2.41 -8.6,6.16 -8.6,11.28 0,3.52 1.61,6.4 4.77,8.64 3.19,2.23 9.23,4.32 18.13,6.24l14.79 3.35c30.54,7.05 52.25,16.72 65.13,29.05 12.88,12.31 19.31,28.23 19.31,47.75zm29.57 -119.98c0,-13.44 4.15,-24.63 12.41,-33.59 8.27,-8.96 19.55,-13.45 33.87,-13.45 14.31,0 25.61,4.49 33.87,13.45 8.27,8.96 12.4,20.16 12.4,33.59 0,13.45 -4.13,24.63 -12.4,33.59 -8.26,8.96 -19.56,13.44 -33.87,13.44 -14.32,0 -25.6,-4.48 -33.87,-13.44 -8.26,-8.96 -12.41,-20.15 -12.41,-33.59zm0 150.68c0,-13.43 4.15,-24.63 12.41,-33.58 8.27,-8.95 19.55,-13.45 33.87,-13.45 14.31,0 25.61,4.5 33.87,13.45 8.27,8.95 12.4,20.16 12.4,33.58 0,13.45 -4.13,24.63 -12.4,33.6 -8.26,8.95 -19.56,13.43 -33.87,13.43 -14.32,0 -25.6,-4.48 -33.87,-13.43 -8.26,-8.97 -12.41,-20.16 -12.41,-33.6z"/>
    <path id="1" class="fil1" d="M568.64 538.06c-13.98,-4.81 -26.7,-9.68 -38.15,-14.63 -11.44,-4.97 -21.32,-10.96 -29.59,-18.01 -8.26,-7.04 -14.69,-15.43 -19.3,-25.19 -4.61,-9.76 -6.92,-21.69 -6.92,-35.75 0,-27.2 10.42,-48.96 31.25,-65.26 20.83,-16.33 50.01,-24.49 87.53,-24.49 13.67,0 26.4,0.97 38.16,2.88 11.78,1.92 21.86,4.89 30.29,8.88 8.44,4 15.04,9.12 19.82,15.36 4.75,6.24 7.15,13.52 7.15,21.83 0,8.32 -1.91,15.43 -5.73,21.36 -3.82,5.91 -8.43,10.96 -13.84,15.1 -6.99,-4.48 -16.37,-8.4 -28.14,-11.75 -11.76,-3.35 -24.64,-5.03 -38.65,-5.03 -14.3,0 -24.81,1.99 -31.47,5.99 -6.69,4.01 -10.02,9.04 -10.02,15.13 0,4.78 2.06,8.71 6.2,11.76 4.13,3.03 10.34,5.82 18.59,8.4l25.29 8.16c29.89,9.59 52.88,21.83 68.93,36.71 16.07,14.88 24.1,35.12 24.1,60.71 0,27.18 -10.65,49.18 -31.96,65.98 -21.32,16.8 -52.63,25.2 -93.98,25.2 -14.63,0 -28.22,-1.2 -40.8,-3.59 -12.55,-2.42 -23.53,-5.93 -32.91,-10.57 -9.37,-4.64 -16.69,-10.4 -21.93,-17.28 -5.26,-6.88 -7.88,-14.8 -7.88,-23.76 0,-9.28 2.71,-17.2 8.11,-23.75 5.4,-6.56 11.3,-11.61 17.66,-15.13 8.9,7.03 19.79,13.12 32.67,18.23 12.88,5.12 26.97,7.69 42.23,7.69 15.59,0 26.56,-2.41 32.91,-7.19 6.36,-4.81 9.55,-10.41 9.55,-16.8 0,-6.4 -2.56,-11.29 -7.63,-14.64 -5.1,-3.36 -12.25,-6.64 -21.48,-9.85l-20.03 -6.71zm246.17 -241.4c16.51,0 28.52,3.21 36,9.61 7.48,6.4 11.22,14.09 11.22,23.04 0,8.31 -2.23,15.27 -6.68,20.87 -4.46,5.61 -11.77,11.12 -21.95,16.56l-61.53 32.65c-9.55,-0.97 -17.66,-4.81 -24.34,-11.52 -6.68,-6.73 -10.01,-13.92 -10.01,-21.59 0,-3.85 0.96,-7.69 2.86,-11.53 1.91,-3.84 5.08,-7.36 9.55,-10.55l64.88 -47.53zm11.44 356.59c-3.5,0.63 -8.66,1.51 -15.51,2.63 -6.85,1.1 -13.76,1.68 -20.75,1.68 -7.01,0 -13.28,-0.49 -18.85,-1.45 -5.57,-0.96 -10.25,-2.86 -14.07,-5.75 -3.82,-2.88 -6.76,-6.8 -8.83,-11.77 -2.06,-4.95 -3.1,-11.42 -3.1,-19.42l0 -195.33c3.5,-0.64 8.66,-1.51 15.51,-2.63 6.83,-1.13 13.76,-1.68 20.74,-1.68 7,0 13.29,0.47 18.84,1.43 5.57,0.96 10.26,2.88 14.08,5.76 3.83,2.88 6.77,6.8 8.83,11.75 2.07,4.97 3.11,11.45 3.11,19.45l0 195.33zm164.57 -239.95c18.13,0 34.58,2.3 49.38,6.95 14.79,4.64 27.27,10.64 37.44,18 6.37,4.49 11.38,9.44 15.04,14.88 3.65,5.43 5.48,12.48 5.48,21.11l0 167.98c0,16.95 -3.19,31.58 -9.55,43.9 -6.36,12.31 -15.02,22.55 -25.99,30.7 -10.98,8.16 -23.86,14.17 -38.65,18.01 -14.8,3.85 -30.62,5.76 -47.46,5.76 -28.95,0 -51.69,-3.92 -68.23,-11.77 -16.52,-7.83 -24.8,-20.54 -24.8,-38.14 0,-7.36 1.5,-13.84 4.54,-19.44 3,-5.6 6.44,-9.84 10.24,-12.72 9.23,5.11 19.65,9.45 31.25,12.96 11.63,3.51 23.61,5.27 36.02,5.27 17.17,0 30.85,-2.88 41.03,-8.64 10.18,-5.74 15.26,-15.02 15.26,-27.82l0 -7.69c-13.05,5.76 -28.93,8.64 -47.71,8.64 -14.3,0 -27.9,-2.16 -40.78,-6.47 -12.88,-4.33 -24.18,-11.04 -33.87,-20.16 -9.7,-9.14 -17.5,-20.89 -23.38,-35.28 -5.89,-14.39 -8.83,-31.52 -8.83,-51.34 0,-19.52 3.11,-36.49 9.3,-50.88 6.19,-14.39 14.8,-26.31 25.76,-35.75 10.97,-9.44 24.01,-16.47 39.12,-21.11 15.11,-4.64 31.57,-6.95 49.37,-6.95zm29.58 69.58c-2.23,-1.29 -5.48,-2.55 -9.78,-3.84 -4.29,-1.29 -9.61,-1.92 -15.98,-1.92 -15.58,0 -27.27,4.39 -35.07,13.2 -7.78,8.8 -11.69,21.36 -11.69,37.68 0,18.55 3.91,31.91 11.69,40.07 7.8,8.15 17.74,12.23 29.83,12.23 13.03,0 23.37,-3.04 31,-9.12l0 -88.3zm127.85 -59.03c3.17,-0.96 8.19,-1.92 15.01,-2.88 6.85,-0.96 13.92,-1.43 21.24,-1.43 7.01,0 13.28,0.47 18.85,1.43 5.56,0.96 10.25,2.88 14.07,5.76 3.82,2.88 6.76,6.8 8.84,11.75 2.05,4.97 3.09,11.45 3.09,19.45l0 103.18c0,13.11 3.19,22.46 9.55,28.07 6.36,5.6 15.59,8.4 27.66,8.4 7.32,0 13.28,-0.64 17.9,-1.92 4.61,-1.27 8.18,-2.55 10.72,-3.84l0 -167.96c3.19,-0.96 8.19,-1.92 15.04,-2.88 6.82,-0.96 13.9,-1.43 21.22,-1.43 7.01,0 13.28,0.47 18.85,1.43 5.57,0.96 10.26,2.88 14.07,5.76 3.82,2.88 6.76,6.8 8.83,11.75 2.06,4.97 3.1,11.45 3.1,19.45l0 145.88c0,16.01 -6.67,28.01 -20.03,36 -11.13,7.03 -24.41,12.4 -39.83,16.08 -15.42,3.67 -32.2,5.51 -50.33,5.51 -17.16,0 -33,-1.91 -47.46,-5.76 -14.47,-3.84 -26.96,-9.75 -37.44,-17.76 -10.51,-7.99 -18.61,-18.31 -24.34,-30.95 -5.71,-12.64 -8.57,-27.92 -8.57,-45.83l0 -137.26zm400.24 237.56c-18.78,0 -36.19,-2.63 -52.24,-7.92 -16.07,-5.28 -30.05,-13.19 -41.98,-23.76 -11.93,-10.55 -21.32,-23.83 -28.14,-39.84 -6.85,-15.98 -10.26,-34.71 -10.26,-56.15 0,-21.11 3.41,-39.26 10.26,-54.45 6.82,-15.21 15.8,-27.68 26.94,-37.45 11.14,-9.74 23.86,-16.95 38.16,-21.59 14.32,-4.64 28.95,-6.95 43.89,-6.95 16.86,0 32.2,2.55 46.03,7.67 13.84,5.12 25.76,12.16 35.79,21.11 10.01,8.95 17.8,19.68 23.37,32.15 5.57,12.49 8.35,26.08 8.35,40.8 0,10.88 -3.03,19.2 -9.06,24.96 -6.04,5.74 -14.47,9.42 -25.28,11.04l-117.83 17.74c3.5,10.57 10.65,18.48 21.46,23.77 10.81,5.28 23.22,7.91 37.21,7.91 13.05,0 25.37,-1.68 36.98,-5.04 11.6,-3.35 21.07,-7.28 28.38,-11.76 5.08,3.21 9.39,7.69 12.88,13.45 3.5,5.75 5.25,11.84 5.25,18.23 0,14.39 -6.69,25.11 -20.03,32.15 -10.18,5.44 -21.62,9.12 -34.35,11.04 -12.73,1.92 -24.64,2.88 -35.78,2.88zm-13.37 -188.6c-7.62,0 -14.23,1.27 -19.8,3.84 -5.57,2.56 -10.09,5.83 -13.59,9.84 -3.5,4 -6.12,8.48 -7.88,13.43 -1.75,4.97 -2.77,10 -3.09,15.13l81.57 -13.45c-0.96,-6.4 -4.47,-12.79 -10.51,-19.19 -6.03,-6.4 -14.95,-9.59 -26.71,-9.59zm299.58 33.11c0,-9.91 -2.79,-17.2 -8.35,-21.83 -5.57,-4.64 -13.11,-6.97 -22.66,-6.97 -6.36,0 -12.64,0.8 -18.83,2.4 -6.21,1.61 -11.54,4 -15.99,7.21l0 166.53c-3.18,0.94 -8.19,1.9 -15.02,2.86 -6.84,0.96 -13.92,1.45 -21.24,1.45 -7.01,0 -13.28,-0.49 -18.85,-1.45 -5.57,-0.96 -10.24,-2.86 -14.07,-5.75 -3.82,-2.88 -6.76,-6.8 -8.83,-11.77 -2.06,-4.95 -3.1,-11.42 -3.1,-19.42l0 -143.99c0,-8.62 1.83,-15.67 5.48,-21.11 3.66,-5.43 8.66,-10.4 15.02,-14.88 10.82,-7.67 24.42,-13.92 40.8,-18.71 16.38,-4.81 34.58,-7.19 54.61,-7.19 35.95,0 63.61,7.91 83,23.75 19.41,15.82 29.1,37.83 29.1,65.98l0 150.22c-3.17,0.94 -8.19,1.9 -15.01,2.86 -6.85,0.96 -13.92,1.45 -21.24,1.45 -6.99,0 -13.27,-0.49 -18.84,-1.45 -5.57,-0.96 -10.26,-2.86 -14.08,-5.75 -3.82,-2.88 -6.76,-6.8 -8.82,-11.77 -2.07,-4.95 -3.11,-11.42 -3.11,-19.42l0 -113.26zm371.14 31.2c0,19.83 -3,37.5 -9.06,53.02 -6.03,15.52 -14.55,28.55 -25.52,39.12 -10.97,10.56 -24.1,18.54 -39.36,24 -15.26,5.43 -32.27,8.15 -51.04,8.15 -18.76,0 -35.78,-2.88 -51.04,-8.64 -15.26,-5.76 -28.38,-14 -39.36,-24.71 -10.97,-10.71 -19.48,-23.75 -25.52,-39.12 -6.04,-15.35 -9.06,-32.63 -9.06,-51.82 0,-18.89 3.03,-36 9.06,-51.35 6.04,-15.36 14.55,-28.39 25.52,-39.12 10.98,-10.71 24.1,-18.95 39.36,-24.71 15.27,-5.76 32.29,-8.62 51.04,-8.62 18.78,0 35.79,2.94 51.04,8.87 15.26,5.91 28.39,14.23 39.36,24.96 10.97,10.71 19.49,23.75 25.52,39.1 6.06,15.35 9.06,32.32 9.06,50.88zm-166.96 0c0,19.52 3.75,34.46 11.22,44.86 7.48,10.4 17.88,15.6 31.25,15.6 13.36,0 23.61,-5.27 30.76,-15.83 7.15,-10.56 10.73,-25.43 10.73,-44.62 0,-19.2 -3.65,-34 -10.97,-44.4 -7.32,-10.4 -17.66,-15.6 -31.01,-15.6 -13.34,0 -23.69,5.2 -31,15.6 -7.32,10.4 -10.98,25.2 -10.98,44.4zm402.15 47.03c0,24.3 -9.06,43.35 -27.18,57.1 -18.15,13.76 -44.85,20.63 -80.16,20.63 -13.34,0 -25.76,-0.96 -37.21,-2.88 -11.44,-1.92 -21.23,-4.87 -29.33,-8.87 -8.11,-4.01 -14.47,-9.03 -19.08,-15.13 -4.62,-6.07 -6.91,-13.27 -6.91,-21.59 0,-7.69 1.58,-14.17 4.75,-19.44 3.19,-5.28 7.01,-9.67 11.46,-13.21 9.22,5.13 19.8,9.69 31.72,13.67 11.93,4.01 25.68,6.01 41.26,6.01 9.86,0 17.42,-1.43 22.66,-4.31 5.25,-2.88 7.88,-6.73 7.88,-11.52 0,-4.48 -1.9,-7.99 -5.72,-10.56 -3.83,-2.57 -10.19,-4.64 -19.09,-6.25l-14.32 -2.87c-27.66,-5.45 -48.26,-13.99 -61.77,-25.68 -13.52,-11.68 -20.28,-28.4 -20.28,-50.15 0,-11.83 2.54,-22.54 7.63,-32.15 5.08,-9.6 12.23,-17.59 21.46,-23.99 9.22,-6.4 20.28,-11.36 33.16,-14.88 12.88,-3.52 27.1,-5.28 42.69,-5.28 11.76,0 22.81,0.88 33.16,2.64 10.34,1.75 19.31,4.39 26.96,7.92 7.62,3.52 13.67,8.08 18.12,13.67 4.46,5.6 6.67,12.22 6.67,19.91 0,7.36 -1.34,13.67 -4.04,18.95 -2.7,5.29 -6.11,9.68 -10.26,13.2 -2.54,-1.59 -6.36,-3.27 -11.44,-5.03 -5.09,-1.77 -10.66,-3.36 -16.7,-4.79 -6.05,-1.45 -12.17,-2.64 -18.37,-3.6 -6.2,-0.96 -11.85,-1.45 -16.95,-1.45 -10.48,0 -18.59,1.2 -24.32,3.6 -5.73,2.41 -8.59,6.16 -8.59,11.28 0,3.52 1.61,6.4 4.77,8.64 3.19,2.23 9.22,4.32 18.12,6.24l14.8 3.35c30.54,7.05 52.24,16.72 65.12,29.05 12.88,12.31 19.32,28.23 19.32,47.75zm257.14 77.26c-18.78,0 -36.19,-2.63 -52.24,-7.92 -16.07,-5.28 -30.05,-13.19 -41.98,-23.76 -11.94,-10.55 -21.32,-23.83 -28.15,-39.84 -6.84,-15.98 -10.26,-34.71 -10.26,-56.15 0,-21.11 3.42,-39.26 10.26,-54.45 6.83,-15.21 15.81,-27.68 26.95,-37.45 11.13,-9.74 23.86,-16.95 38.16,-21.59 14.32,-4.64 28.95,-6.95 43.88,-6.95 16.86,0 32.2,2.55 46.04,7.67 13.84,5.12 25.76,12.16 35.79,21.11 10.01,8.95 17.8,19.68 23.37,32.15 5.57,12.49 8.34,26.08 8.34,40.8 0,10.88 -3.03,19.2 -9.05,24.96 -6.04,5.74 -14.47,9.42 -25.28,11.04l-117.83 17.74c3.5,10.57 10.65,18.48 21.46,23.77 10.8,5.28 23.22,7.91 37.21,7.91 13.04,0 25.37,-1.68 36.98,-5.04 11.6,-3.35 21.06,-7.28 28.38,-11.76 5.08,3.21 9.39,7.69 12.88,13.45 3.5,5.75 5.25,11.84 5.25,18.23 0,14.39 -6.69,25.11 -20.03,32.15 -10.19,5.44 -21.63,9.12 -34.35,11.04 -12.74,1.92 -24.64,2.88 -35.78,2.88zm-13.38 -188.6c-7.61,0 -14.22,1.27 -19.79,3.84 -5.57,2.56 -10.1,5.83 -13.59,9.84 -3.5,4 -6.12,8.48 -7.88,13.43 -1.75,4.97 -2.77,10 -3.1,15.13l81.58 -13.45c-0.96,-6.4 -4.47,-12.79 -10.51,-19.19 -6.03,-6.4 -14.95,-9.59 -26.72,-9.59zm299.59 33.11c0,-9.91 -2.79,-17.2 -8.35,-21.83 -5.57,-4.64 -13.11,-6.97 -22.66,-6.97 -6.36,0 -12.64,0.8 -18.84,2.4 -6.21,1.61 -11.53,4 -15.99,7.21l0 166.53c-3.17,0.94 -8.18,1.9 -15.01,2.86 -6.84,0.96 -13.92,1.45 -21.24,1.45 -7.01,0 -13.28,-0.49 -18.85,-1.45 -5.57,-0.96 -10.25,-2.86 -14.07,-5.75 -3.82,-2.88 -6.76,-6.8 -8.84,-11.77 -2.05,-4.95 -3.09,-11.42 -3.09,-19.42l0 -143.99c0,-8.62 1.83,-15.67 5.48,-21.11 3.66,-5.43 8.66,-10.4 15.02,-14.88 10.82,-7.67 24.42,-13.92 40.8,-18.71 16.38,-4.81 34.58,-7.19 54.61,-7.19 35.94,0 63.6,7.91 83,23.75 19.41,15.82 29.1,37.83 29.1,65.98l0 150.22c-3.17,0.94 -8.19,1.9 -15.01,2.86 -6.85,0.96 -13.92,1.45 -21.24,1.45 -7,0 -13.27,-0.49 -18.84,-1.45 -5.57,-0.96 -10.26,-2.86 -14.08,-5.75 -3.82,-2.88 -6.77,-6.8 -8.82,-11.77 -2.08,-4.95 -3.11,-11.42 -3.11,-19.42l0 -113.26zm315.8 53.74l0 92.15c-3.49,0.96 -8.98,1.91 -16.45,2.88 -7.48,0.96 -14.86,1.43 -22.17,1.43 -7.32,0 -13.76,-0.56 -19.32,-1.68 -5.57,-1.12 -10.18,-3.11 -13.84,-5.99 -3.65,-2.88 -6.44,-6.89 -8.34,-12 -1.91,-5.13 -2.87,-11.84 -2.87,-20.16l0 -226.03c0,-6.73 1.83,-11.91 5.49,-15.6 3.65,-3.68 8.67,-6.65 15.03,-8.89 10.8,-3.84 23.37,-6.64 37.67,-8.4 14.32,-1.76 29.58,-2.64 45.8,-2.64 43.89,0 76.97,9.28 99.24,27.84 22.26,18.56 33.39,43.67 33.39,75.35 0,19.83 -5.08,36.79 -15.27,50.87 -10.18,14.07 -22.27,24.94 -36.25,32.63 11.44,15.68 22.74,30.39 33.86,44.15 11.13,13.76 19.89,26.25 26.25,37.43 -3.19,11.19 -8.98,19.77 -17.42,25.67 -8.43,5.93 -17.89,8.89 -28.38,8.89 -7,0 -13.05,-0.8 -18.13,-2.41 -5.09,-1.59 -9.55,-3.83 -13.37,-6.71 -3.81,-2.88 -7.32,-6.4 -10.48,-10.57 -3.19,-4.16 -6.2,-8.63 -9.06,-13.43l-40.07 -64.8 -25.3 0zm30.05 -63.81c12.09,0 21.64,-3.13 28.62,-9.36 7,-6.24 10.51,-15.43 10.51,-27.6 0,-12.16 -3.9,-21.36 -11.7,-27.6 -7.78,-6.24 -20.12,-9.36 -36.96,-9.36 -4.77,0 -8.59,0.16 -11.46,0.49 -2.86,0.31 -6.04,0.79 -9.53,1.43l0 71.99 30.52 0zm286.72 165.56c-18.78,0 -36.19,-2.63 -52.24,-7.92 -16.07,-5.28 -30.05,-13.19 -41.98,-23.76 -11.93,-10.55 -21.32,-23.83 -28.14,-39.84 -6.85,-15.98 -10.26,-34.71 -10.26,-56.15 0,-21.11 3.41,-39.26 10.26,-54.45 6.82,-15.21 15.8,-27.68 26.95,-37.45 11.13,-9.74 23.85,-16.95 38.15,-21.59 14.32,-4.64 28.95,-6.95 43.89,-6.95 16.86,0 32.2,2.55 46.03,7.67 13.84,5.12 25.76,12.16 35.79,21.11 10.02,8.95 17.8,19.68 23.37,32.15 5.57,12.49 8.35,26.08 8.35,40.8 0,10.88 -3.03,19.2 -9.06,24.96 -6.04,5.74 -14.47,9.42 -25.28,11.04l-117.83 17.74c3.5,10.57 10.65,18.48 21.46,23.77 10.81,5.28 23.22,7.91 37.21,7.91 13.05,0 25.37,-1.68 36.98,-5.04 11.61,-3.35 21.07,-7.28 28.39,-11.76 5.07,3.21 9.38,7.69 12.88,13.45 3.49,5.75 5.24,11.84 5.24,18.23 0,14.39 -6.68,25.11 -20.03,32.15 -10.18,5.44 -21.62,9.12 -34.35,11.04 -12.73,1.92 -24.64,2.88 -35.78,2.88zm-13.37 -188.6c-7.62,0 -14.23,1.27 -19.8,3.84 -5.57,2.56 -10.09,5.83 -13.59,9.84 -3.5,4 -6.12,8.48 -7.88,13.43 -1.75,4.97 -2.77,10 -3.09,15.13l81.57 -13.45c-0.96,-6.4 -4.47,-12.79 -10.51,-19.19 -6.03,-6.4 -14.95,-9.59 -26.71,-9.59zm142.64 64.31c0,-21.11 3.17,-39.44 9.53,-54.94 6.36,-15.54 15.2,-28.41 26.47,-38.64 11.3,-10.24 24.5,-17.84 39.6,-22.81 15.11,-4.95 31.41,-7.42 48.9,-7.42 6.36,0 12.55,0.55 18.59,1.68 6.05,1.1 10.98,2.47 14.8,4.06l0 -77.73c3.19,-0.96 8.26,-2.01 15.26,-3.13 7.01,-1.12 14.16,-1.68 21.47,-1.68 6.99,0 13.27,0.49 18.84,1.43 5.57,0.97 10.26,2.88 14.08,5.77 3.82,2.88 6.69,6.8 8.58,11.75 1.9,4.97 2.86,11.44 2.86,19.44l0 227.48c0,15.02 -6.99,27.03 -20.99,35.99 -9.22,6.08 -21.14,11.43 -35.78,16.07 -14.63,4.64 -31.47,6.97 -50.56,6.97 -20.68,0 -39.19,-2.88 -55.57,-8.64 -16.39,-5.76 -30.21,-14.09 -41.51,-24.96 -11.3,-10.87 -19.88,-23.91 -25.76,-39.1 -5.88,-15.21 -8.82,-32.4 -8.82,-51.59zm135.48 -60c-17.18,0 -30.37,4.97 -39.59,14.88 -9.23,9.92 -13.84,24.96 -13.84,45.12 0,19.83 4.29,34.79 12.88,44.86 8.59,10.08 20.99,15.13 37.21,15.13 5.73,0 10.89,-0.87 15.51,-2.65 4.61,-1.75 8.18,-3.75 10.74,-5.99l0 -105.58c-6.38,-3.84 -14,-5.76 -22.9,-5.76zm276.68 184.29c-18.78,0 -36.19,-2.63 -52.24,-7.92 -16.07,-5.28 -30.05,-13.19 -41.98,-23.76 -11.93,-10.55 -21.31,-23.83 -28.14,-39.84 -6.84,-15.98 -10.26,-34.71 -10.26,-56.15 0,-21.11 3.42,-39.26 10.26,-54.45 6.83,-15.21 15.8,-27.68 26.95,-37.45 11.13,-9.74 23.85,-16.95 38.15,-21.59 14.32,-4.64 28.95,-6.95 43.89,-6.95 16.86,0 32.2,2.55 46.04,7.67 13.83,5.12 25.75,12.16 35.78,21.11 10.02,8.95 17.8,19.68 23.37,32.15 5.57,12.49 8.35,26.08 8.35,40.8 0,10.88 -3.03,19.2 -9.06,24.96 -6.04,5.74 -14.47,9.42 -25.28,11.04l-117.83 17.74c3.5,10.57 10.65,18.48 21.46,23.77 10.81,5.28 23.22,7.91 37.21,7.91 13.05,0 25.37,-1.68 36.98,-5.04 11.61,-3.35 21.07,-7.28 28.39,-11.76 5.08,3.21 9.38,7.69 12.88,13.45 3.49,5.75 5.24,11.84 5.24,18.23 0,14.39 -6.68,25.11 -20.03,32.15 -10.18,5.44 -21.62,9.12 -34.35,11.04 -12.73,1.92 -24.64,2.88 -35.78,2.88zm-13.37 -188.6c-7.62,0 -14.23,1.27 -19.8,3.84 -5.57,2.56 -10.09,5.83 -13.59,9.84 -3.5,4 -6.11,8.48 -7.88,13.43 -1.75,4.97 -2.77,10 -3.09,15.13l81.57 -13.45c-0.95,-6.4 -4.47,-12.79 -10.49,-19.19 -6.04,-6.4 -14.96,-9.59 -26.72,-9.59zm348.24 111.34c0,24.3 -9.05,43.35 -27.18,57.1 -18.14,13.76 -44.84,20.63 -80.15,20.63 -13.36,0 -25.76,-0.96 -37.21,-2.88 -11.44,-1.92 -21.24,-4.87 -29.34,-8.87 -8.11,-4.01 -14.47,-9.03 -19.08,-15.13 -4.61,-6.07 -6.9,-13.27 -6.9,-21.59 0,-7.69 1.58,-14.17 4.75,-19.44 3.19,-5.28 7.01,-9.67 11.45,-13.21 9.23,5.13 19.8,9.69 31.72,13.67 11.93,4.01 25.68,6.01 41.27,6.01 9.86,0 17.41,-1.43 22.66,-4.31 5.24,-2.88 7.88,-6.73 7.88,-11.52 0,-4.48 -1.91,-7.99 -5.73,-10.56 -3.82,-2.57 -10.18,-4.64 -19.08,-6.25l-14.32 -2.87c-27.66,-5.45 -48.26,-13.99 -61.78,-25.68 -13.51,-11.68 -20.27,-28.4 -20.27,-50.15 0,-11.83 2.53,-22.54 7.63,-32.15 5.08,-9.6 12.23,-17.59 21.45,-23.99 9.23,-6.4 20.28,-11.36 33.16,-14.88 12.88,-3.52 27.11,-5.28 42.69,-5.28 11.77,0 22.82,0.88 33.16,2.64 10.34,1.75 19.32,4.39 26.96,7.92 7.62,3.52 13.67,8.08 18.13,13.67 4.44,5.6 6.67,12.22 6.67,19.91 0,7.36 -1.35,13.67 -4.04,18.95 -2.71,5.29 -6.12,9.68 -10.26,13.2 -2.54,-1.59 -6.37,-3.27 -11.44,-5.03 -5.1,-1.77 -10.67,-3.36 -16.71,-4.79 -6.05,-1.45 -12.16,-2.64 -18.37,-3.6 -6.19,-0.96 -11.84,-1.45 -16.95,-1.45 -10.48,0 -18.59,1.2 -24.31,3.6 -5.73,2.41 -8.6,6.16 -8.6,11.28 0,3.52 1.61,6.4 4.77,8.64 3.19,2.23 9.23,4.32 18.13,6.24l14.79 3.35c30.54,7.05 52.25,16.72 65.13,29.05 12.88,12.31 19.31,28.23 19.31,47.75zm29.57 -119.98c0,-13.44 4.15,-24.63 12.41,-33.59 8.27,-8.96 19.55,-13.45 33.87,-13.45 14.31,0 25.61,4.49 33.87,13.45 8.27,8.96 12.4,20.16 12.4,33.59 0,13.45 -4.13,24.63 -12.4,33.59 -8.26,8.96 -19.56,13.44 -33.87,13.44 -14.32,0 -25.6,-4.48 -33.87,-13.44 -8.26,-8.96 -12.41,-20.15 -12.41,-33.59zm0 150.68c0,-13.43 4.15,-24.63 12.41,-33.58 8.27,-8.95 19.55,-13.45 33.87,-13.45 14.31,0 25.61,4.5 33.87,13.45 8.27,8.95 12.4,20.16 12.4,33.58 0,13.45 -4.13,24.63 -12.4,33.6 -8.26,8.95 -19.56,13.43 -33.87,13.43 -14.32,0 -25.6,-4.48 -33.87,-13.43 -8.26,-8.97 -12.41,-20.16 -12.41,-33.6z"/>
   </g>
   <path class="fil3" d="M839.07 1697.99l0 -8.17c-103.75,0 -197.78,-42.43 -265.93,-110.98 -68.16,-68.57 -110.31,-163.15 -110.33,-267.53 0.02,-104.38 42.18,-198.95 110.33,-267.52 68.16,-68.57 162.19,-111 265.93,-111 103.75,0 197.78,42.43 265.93,111 68.16,68.57 110.34,163.13 110.34,267.52 0,104.37 -42.19,198.96 -110.34,267.53 -68.16,68.55 -162.17,110.98 -265.93,110.98l0 16.33c216.43,-0.02 392.48,-177.1 392.48,-394.83 0,-217.75 -176.05,-394.82 -392.48,-394.85 -216.43,0.02 -392.45,177.1 -392.47,394.85 0.02,217.74 176.04,394.81 392.47,394.83l0 -8.16zm329.83 -386.68c0,183.25 -147.65,331.8 -329.83,331.8 -182.15,0 -329.83,-148.55 -329.83,-331.8 0,-183.26 147.68,-331.79 329.83,-331.79 182.18,0 329.83,148.53 329.83,331.79zm-382.98 218.32l84.64 0 0 -213.28 59.07 0 6.3 -71.4 -65.37 0c0,0 0,-26.66 0,-40.67 0,-16.83 3.37,-23.48 19.56,-23.48 13.02,0 45.81,0 45.81,0l0 -74.13c0,0 -48.3,0 -58.61,0 -62.99,0 -91.4,27.93 -91.4,81.35 0,46.55 0,56.94 0,56.94l-44.06 0 0 72.3 44.06 0 0 212.38z"/>
  </g>
 </g>
</svg>
