<?xml version="1.0" encoding="UTF-8"?>
<svg id="Layer_2" data-name="Layer 2" xmlns="http://www.w3.org/2000/svg" viewBox="0 0 9.49 10.59">
  <defs>
    <style>
      .cls-1 {
        fill: #808285;
        fill-rule: evenodd;
      }
    </style>
  </defs>
  <g id="Layer_1-2" data-name="Layer 1">
    <path class="cls-1" d="M9.32.82c-.09-.04-.15.03-.21.12-.71,1.02-1.41,2.03-2.12,3.05-.04.04-.09.09-.13.09H.25c-.18,0-.27.12-.24.39.02.35.04.7.11,1.03.39,1.89,1.19,3.36,2.32,4.48.21.21.3.26.52.46.21.16.35.16.35.16h2.5s.28,0,.43-.12c1.21-.88,2.07-2.24,2.66-3.99.21-.63.34-1.3.37-2,0-.32-.06-.4-.28-.4h-1.43s-.01-.04-.02-.05c.02-.04.06-.05.09-.09.59-.84,1.18-1.68,1.77-2.52.02-.03.05-.07.06-.11.11-.19.04-.46-.12-.49h0ZM3.95,1.44h.04c-.06.2-.12.4-.18.6-.05.17-.1.33-.12.5-.01.06.04.14.07.2.07.11.07.21-.02.29-.09.07-.21.06-.29-.03-.2-.2-.22-.43-.16-.68.07-.25.16-.48.23-.72.05-.14.05-.28-.07-.4-.07-.08-.05-.2.04-.26.09-.06.2-.06.28.01.15.13.21.3.2.49h0ZM5.22,2.53h0s-.01-.01-.02-.01c.05-.18.11-.37.16-.55.05-.18.11-.35.15-.52.02-.09-.01-.17-.09-.23-.09-.09-.07-.21.02-.28.09-.07.21-.06.3.03.2.2.22.43.15.68-.06.24-.15.48-.22.71-.05.14-.06.29.07.41.07.07.04.19-.04.26-.09.06-.21.06-.28-.02-.16-.13-.21-.29-.21-.48h0ZM4.97.65c-.06.35-.13.69-.2,1.02-.05.29-.13.58-.1.88,0,.07.04.14.07.2.07.1.07.2-.02.27-.09.08-.21.07-.29-.02-.13-.13-.2-.3-.18-.47.01-.26.05-.52.09-.78.06-.36.13-.7.18-1.06.02-.14.01-.29-.1-.41-.07-.08-.04-.18.05-.24.09-.06.2-.06.28.02.13.13.17.29.2.46v.13h.02Z"/>
  </g>
</svg>