<?xml version="1.0" encoding="UTF-8"?>
<!DOCTYPE svg PUBLIC "-//W3C//DTD SVG 1.1//EN" "http://www.w3.org/Graphics/SVG/1.1/DTD/svg11.dtd">
<!-- Creator: CorelDRAW 2018 (64 Bit) -->
<svg xmlns="http://www.w3.org/2000/svg" xml:space="preserve" width="111.85mm" height="11.2572mm" version="1.1" style="shape-rendering:geometricPrecision; text-rendering:geometricPrecision; image-rendering:optimizeQuality; fill-rule:evenodd; clip-rule:evenodd"
viewBox="0 0 11045.68 1111.7"
 xmlns:xlink="http://www.w3.org/1999/xlink">
 <defs>
  <style type="text/css">
   <![CDATA[
    .fil2 {fill:#FEFEFE}
    .fil0 {fill:#FFF212}
    .fil3 {fill:#ED3237}
    .fil1 {fill:#006B3E}
   ]]>
  </style>
 </defs>
 <g id="Capa_x0020_1">
  <metadata id="CorelCorpID_0Corel-Layer"/>
  <g id="_2977830578336">
   <g>
    <g>
     <path class="fil0" d="M8663.21 244.51c1.51,-26.27 9.29,-51.56 22.55,-74.52 15.85,-27.44 39.03,-48.85 66.77,-63.69l177.54 -106.3 36.29 2.96c50.73,4.15 100.88,18.39 139.03,53.78 36.66,34.03 57.59,79.25 57.59,129.38 0,22.32 -3.5,44.01 -10.7,64.29 23.38,6.03 45.4,16.14 64.84,30.72 26.01,19.53 45,45.92 56.41,76.32 9.85,26.33 13.31,54.47 13.31,82.45l0 312.67c0,49.33 -8.49,97.9 -27.48,143.56 -18.84,45.28 -46.74,85.1 -83.19,117.89 -36.48,32.86 -79.27,56.58 -125.64,72.36 -48.69,16.56 -99.97,23.3 -151.26,23.3 -51.3,0 -102.56,-6.74 -151.24,-23.3 -46.38,-15.78 -89.18,-39.5 -125.67,-72.36 -4.32,-3.87 -8.51,-7.86 -12.58,-11.93l0 3.54 -33.23 33.25c-25.12,25.1 -56.58,41.18 -90.49,50.77 -30.91,8.76 -63.31,11.9 -95.35,11.9 -36.39,0 -72.41,-5.47 -106.95,-16.99 -22.84,-7.62 -43.09,-19.13 -60.75,-33.64l0 11.52 -83.49 22.88c-15.89,4.36 -32.67,6.96 -48.99,9.13 -19.95,2.67 -40.05,4.03 -60.18,4.03 -19.85,0 -39.8,-1.3 -59.36,-4.76 -29.56,-5.22 -57.22,-17.03 -80.53,-36.11 -0.82,-0.66 -1.61,-1.32 -2.4,-2 -31.99,27.3 -71.97,40.85 -114.54,40.85l-296.43 0c-47.63,0 -92.68,-13.18 -129.75,-41.52l-19.79 11.65c-20.85,12.26 -43.25,21.45 -66.75,27.16 -24.4,5.95 -49.97,7.78 -75.01,7.78 -40.08,0 -79.71,-7.13 -115.76,-25.18 -48.04,-24.02 -77.03,-66.9 -87.18,-117.17 -21.62,5.18 -43.85,7.36 -66.09,7.36 -23.55,0 -47.29,-2.06 -70.25,-7.36 -0.38,7.54 -0.76,15.09 -1.16,22.62l-3.85 73.36 -68.52 26.52c-18.23,7.06 -37.53,11.52 -56.78,14.74 -20.27,3.38 -40.8,5.11 -61.34,5.11 -43.6,0 -87.52,-7.27 -125.8,-29.13 -55.09,-31.43 -82.09,-87.97 -82.09,-150.33l0 -3.22 31.23 -549.47 14.97 -24.36c18.52,-30.17 46.66,-51.36 77.15,-68.29 40.33,-22.4 86.67,-29.51 132.25,-29.51 47.86,0 96.56,7.48 138.97,30.79 25.91,14.25 47.5,33.33 64.65,56.05l12.86 -34.07 37.68 -20.13c20.9,-11.14 43.62,-18.68 66.64,-24.08 25.91,-6.07 52.56,-8.57 79.15,-8.57 44.2,0 88.9,6.57 129.23,25.39 30.92,14.45 56.76,35.61 74.85,62.39 6.24,-8.81 13.31,-17.21 21.22,-25.11 40.17,-40.17 92.93,-58.6 149.28,-58.6l397.31 0 20.48 32.19c15.52,-10.44 32.61,-18.72 50.73,-24.98 32.23,-11.12 65.9,-16.36 99.97,-16.36 36.95,0 73.46,5.81 108.41,17.82 21.83,7.5 41.24,18.49 58.26,32.23l0 -13.97 83.49 -22.89c15.89,-4.36 32.67,-6.96 48.99,-9.13 19.95,-2.67 40.05,-4.05 60.18,-4.05 40.6,0 81.13,6.82 116.77,26.22l83.07 -15.21c13.1,-2.41 26.39,-4.34 39.57,-6.26 6.28,-0.91 12.59,-1.71 18.91,-2.39zm-3053.93 136.91c9.84,-12.03 20.45,-23.49 31.84,-34.36 40.61,-38.67 88.2,-67.64 140.87,-86.85 53.12,-19.39 108.84,-28.2 165.3,-28.2 56.46,0 112.19,8.82 165.31,28.2 52.58,19.2 100.12,48.02 140.87,86.4 42.3,39.82 73.88,88.07 95.78,141.73 23.76,58.13 33.31,120.45 33.31,183 0,62.28 -9.32,124.36 -32.36,182.46 -21.41,53.96 -52.57,102.65 -94.71,142.82 -40.78,38.85 -88.71,67.83 -141.67,86.99 -53.52,19.37 -109.71,28.09 -166.54,28.09 -57.2,0 -113.65,-8.99 -167.36,-28.9 -47.69,-17.69 -91.17,-43.3 -128.89,-77.03 -14.14,21.92 -32.32,41.08 -54.47,56.56 -37.16,25.93 -80.05,39.22 -125.37,39.22 -24.49,0 -48.98,-2.91 -72.44,-10.24 -22.17,-6.93 -43.06,-17.2 -61.74,-31.06l0 2.2 -83.49 22.88c-16.38,4.48 -33.78,7.08 -50.64,9.23 -20.42,2.61 -41,3.93 -61.6,3.93 -21.24,0 -42.59,-1.57 -63.44,-5.75 -28.06,-5.64 -54.38,-16.89 -76.99,-34.55 -24.93,-19.48 -43.03,-45.36 -54.13,-74.91 -9.9,-26.35 -13.34,-54.51 -13.34,-82.53l0 -283.83c-11.68,2.26 -23.7,3.4 -35.94,3.46l0 442 -83.42 22.92c-16.41,4.5 -33.83,7.1 -50.71,9.25 -20.42,2.61 -41,3.93 -61.58,3.93 -21.22,0 -42.57,-1.57 -63.4,-5.75 -27.46,-5.5 -53.33,-16.34 -75.79,-33.19 -26.02,-19.54 -45.01,-45.95 -56.42,-76.35 -8.65,-23.07 -12.35,-47.55 -13.13,-72.08 -18.35,46.78 -49.27,87.76 -91.79,121.09 -76.32,59.85 -175.23,77.45 -269.97,77.45 -36.18,0 -72.42,-2.85 -107.98,-9.61 -34.13,-6.49 -67.72,-16.62 -98.94,-31.99 -12.27,-6.03 -24.03,-12.88 -35.13,-20.59 -33.25,32.72 -76.81,48.98 -123.38,48.98l-296.43 0c-56.35,0 -109.1,-18.44 -149.28,-58.61 -16.91,-16.92 -29.96,-36.06 -39.42,-56.76 -9.74,11.65 -20.35,22.63 -31.81,32.94 -36.49,32.84 -79.26,56.56 -125.62,72.34 -48.71,16.56 -99.97,23.3 -151.28,23.3 -51.29,0 -102.58,-6.74 -151.26,-23.3 -46.38,-15.78 -89.17,-39.5 -125.65,-72.36 -4.31,-3.87 -8.51,-7.86 -12.57,-11.93l0 3.54 -33.24 33.25c-25.11,25.1 -56.57,41.18 -90.49,50.77 -30.88,8.76 -63.3,11.9 -95.35,11.9 -36.41,0 -72.41,-5.47 -106.96,-16.99 -22.83,-7.62 -43.07,-19.13 -60.73,-33.64l0 11.52 -83.5 22.88c-15.89,4.36 -32.67,6.96 -48.98,9.13 -19.96,2.67 -40.06,4.03 -60.21,4.03 -19.84,0 -39.8,-1.3 -59.35,-4.76 -29.53,-5.22 -57.17,-17.01 -80.46,-36.06 -23.33,-19.07 -40.4,-43.77 -51.26,-71.78 -10.13,-26.16 -13.75,-54.15 -13.75,-82.08l0 -543.32 20.48 -29.28c24.49,-35.03 59.53,-58.86 99.62,-72.7 32.23,-11.12 65.88,-16.36 99.95,-16.36 36.97,0 73.46,5.81 108.44,17.82 21.82,7.5 41.23,18.49 58.26,32.23l0 -13.97 83.49 -22.89c15.89,-4.36 32.67,-6.96 48.99,-9.13 19.96,-2.67 40.06,-4.05 60.18,-4.05 40.62,0 81.13,6.82 116.77,26.22l83.07 -15.21c13.1,-2.41 26.39,-4.34 39.57,-6.26 20.89,-3.05 41.99,-4.75 63.1,-4.75 21.22,0 42.57,1.59 63.4,5.77 27.46,5.51 53.32,16.36 75.79,33.22 13.89,10.44 25.79,22.82 35.59,36.73l0 -47.7 93.09 -17.01c13.1,-2.41 26.37,-4.34 39.55,-6.26 20.88,-3.05 41.97,-4.75 63.07,-4.75 21.24,0 42.6,1.59 63.44,5.77 27.45,5.51 53.33,16.38 75.77,33.22 11.32,8.49 21.3,18.29 29.9,29.12 0.12,-0.11 0.25,-0.25 0.37,-0.36 40.17,-40.17 92.93,-58.6 149.28,-58.6l397.31 0 33.44 52.59c1.68,2.65 3.31,5.33 4.86,8.06 0.91,-0.72 1.84,-1.46 2.77,-2.18 73.16,-56.97 165.07,-75.73 255.99,-75.73 33.23,0 66.54,2.23 99.36,7.55 32.58,5.27 64.82,14.05 94.74,28.17 10.06,4.75 19.75,10.1 29,16.07 31.81,-25.1 70.68,-37.57 111.88,-37.57l504.85 0 18.49 29.01c9.85,-5.26 20.16,-9.73 30.81,-13.47 33.57,-11.8 68.83,-19.03 104.11,-23.34 36.88,-4.5 74.07,-6.44 111.2,-6.44 100.18,0 204.43,19.41 283.55,84.97 22.67,18.78 41.84,39.7 57.55,62.42zm-1157.24 238.97c17.49,21.66 31,45.42 40.8,70.75l0 -70.75 -40.8 0zm1470.68 50.96c0,14.32 1.9,54 11.73,65.98 3.65,4.42 6.88,4.28 12.85,4.28 5.86,0 10.15,0.23 13.86,-4.28 9.83,-11.96 11.71,-51.7 11.71,-65.98 0,-14.43 -1.86,-53.44 -11.69,-65.54 -3.31,-4.1 -7.6,-3.68 -12.86,-3.68 -6.57,0 -10.14,-0.04 -14.22,4.82 -9.48,11.24 -11.38,50.89 -11.38,64.41z"/>
     <path class="fil1" d="M8729.53 299.63c-6.39,-14.03 -9.86,-29.3 -9.86,-45.5 0,-19.76 5.35,-38.66 15.23,-55.78 10.74,-18.62 26.59,-32.74 45.5,-42.59l163.21 -97.72 18.14 1.47c37.42,3.05 76.77,12.6 105.03,38.82 25.06,23.27 39.45,53.45 39.45,87.78 0,32.38 -9.98,62.74 -32.76,86.21 -11.28,11.61 -24.71,21.2 -39.01,29.2 14.42,-1.72 28.94,-2.65 43.45,-2.65 17.46,0 35.13,1.23 52.26,4.67 19.13,3.82 37.21,11.22 52.86,22.96 17.35,13.02 29.73,30.58 37.32,50.83 7.42,19.78 9.73,41.54 9.73,62.55l0 312.67c0,41.83 -7.04,83.03 -23.14,121.77 -15.6,37.51 -38.56,70.34 -68.75,97.52 -30.75,27.69 -66.87,47.5 -105.96,60.79 -42.74,14.55 -87.95,20.27 -132.98,20.27 -45.04,0 -90.23,-5.73 -132.97,-20.27 -39.1,-13.29 -75.23,-33.1 -105.98,-60.79 -30.19,-27.18 -53.15,-60.01 -68.73,-97.54 -16.1,-38.72 -23.14,-79.92 -23.14,-121.75l0 -435.06 46.51 -8.53c12.44,-2.27 25.06,-4.11 37.57,-5.93 18.18,-2.67 36.53,-4.16 54.89,-4.16 7.36,0 14.75,0.23 22.13,0.74zm120.15 77.21c0.05,0.17 0.13,0.35 0.19,0.51 7.42,19.78 9.7,41.54 9.7,62.55l0 309.59c0,12.15 1.67,27.24 10.66,36.39 8.04,8.22 17.72,10.43 29.03,10.43 11.02,0 21.33,-1.88 29.18,-10.02 8.89,-9.23 10.52,-24.67 10.52,-36.8l0 -407.85 -89.27 35.2zm-962.43 573.03c-4.58,21 -13.64,40.67 -29.51,56.52 -22.73,22.71 -52.3,33.34 -84.25,33.34l-296.43 0c-41.2,0 -79.69,-12.54 -109.14,-42.01 -29.47,-29.45 -41.99,-67.94 -41.99,-109.13l0 -429.38c0,-41.22 12.52,-79.69 41.99,-109.16 29.45,-29.47 67.94,-41.99 109.14,-41.99l366.15 0 16.72 26.29c8.47,13.3 14.49,28.26 19.09,43.32 1.2,3.93 2.27,7.9 3.2,11.91l0 -11.2 10.23 -14.64c17.57,-25.12 42.95,-41.69 71.63,-51.58 26.29,-9.07 53.7,-13.26 81.47,-13.26 30.69,0 60.96,4.77 89.99,14.75 40.21,13.81 68.2,44.37 86.74,81.79l46.69 94.33 0 -168.25 41.74 -11.45c13.35,-3.67 27.76,-5.81 41.5,-7.64 17.46,-2.32 35.07,-3.54 52.68,-3.54 34.56,0 70.54,5.77 99.72,25.44 37.63,25.35 48.4,69.74 48.4,112.53l0 545.27 -16.62 16.61c-18.12,18.14 -41.35,29.39 -65.81,36.31 -25.77,7.31 -53.17,9.75 -79.89,9.75 -30.29,0 -60.25,-4.48 -89,-14.07 -40.78,-13.6 -69.31,-44.83 -87.84,-82.66l-47.61 -97.15 0 168.23 -41.74 11.45c-13.35,3.67 -27.77,5.81 -41.5,7.64 -17.46,2.33 -35.07,3.52 -52.68,3.52 -16.51,0 -33.2,-1.02 -49.47,-3.89 -19.98,-3.53 -38.72,-11.24 -54.49,-24.14 -15.68,-12.85 -26.94,-29.49 -34.22,-48.31 -1.97,-5.07 -3.57,-10.27 -4.9,-15.54zm-5.03 -96.83l0 -377.24c-4.91,19.61 -13.96,37.85 -29.17,52.57 -9.78,9.48 -20.77,16.76 -32.63,21.98l11.1 17.47c8.31,13.04 14.3,27.62 18.92,42.34 5.64,17.85 8.21,36.41 8.21,55.11 0,34.52 -7.62,69.7 -32.88,94.93 -12.05,12.05 -26.06,20.6 -41.35,25.95l62.9 0 16.72 26.35c7.94,12.48 13.71,26.45 18.18,40.54zm-2281.15 -348.52c18.6,-43.81 44.59,-83.4 79.2,-116.36 34.95,-33.29 75.82,-58.09 121.16,-74.64 46.88,-17.12 96.03,-24.77 145.86,-24.77 49.8,0 98.98,7.64 145.85,24.77 45.36,16.56 86.29,41.31 121.43,74.41 36.37,34.23 63.33,75.75 82.17,121.88 20.94,51.24 29.08,106.4 29.08,161.53 0,55.05 -7.98,110.16 -28.35,161.51 -18.39,46.35 -44.92,88.2 -81.11,122.68 -35.09,33.44 -76.28,58.23 -121.84,74.72 -47.33,17.13 -97,24.7 -147.23,24.7 -50.45,0 -100.26,-7.79 -147.64,-25.36 -45.57,-16.9 -86.63,-42.05 -121.43,-76.06 -35.43,-34.59 -61.68,-76.17 -80.03,-122.04 -17.15,-42.9 -25.6,-88.39 -27.81,-134.33 -2.09,3.23 -4.31,6.43 -6.6,9.59 -12.75,17.53 -27.01,33.57 -42.86,47.85 11.76,15.27 23.73,30.4 35.92,45.36 22.21,27.3 43.64,56.31 61.1,86.9l11.82 20.73 -6.55 22.96c-9.93,34.78 -29.38,64.46 -59.14,85.24 -27.64,19.3 -59.17,29 -92.88,29 -18.7,0 -37.6,-2.06 -55.49,-7.66 -16.38,-5.11 -31.82,-12.65 -45.57,-22.98 -12.58,-9.44 -23.66,-20.64 -33.24,-33.08 -8.32,-10.8 -15.92,-22.13 -22.51,-33.08l-34.12 -54.84 0 125.99 -41.74 11.45c-13.74,3.76 -28.72,5.87 -42.83,7.68 -18.04,2.31 -36.22,3.48 -54.41,3.48 -17.46,0 -35.15,-1.2 -52.28,-4.65 -19.34,-3.88 -37.59,-11.43 -53.19,-23.6 -16.7,-13.06 -28.54,-30.4 -35.96,-50.15 -7.46,-19.8 -9.73,-41.56 -9.73,-62.59l0 -378.86c-2.4,2.91 -4.97,5.73 -7.75,8.43 -23.34,22.7 -53.36,33.31 -85.74,33.31l-55.93 0 0 455.49 -41.7 11.46c-13.76,3.76 -28.76,5.87 -42.88,7.68 -18.03,2.31 -36.2,3.48 -54.38,3.48 -17.46,0 -35.13,-1.2 -52.26,-4.65 -19.12,-3.82 -37.2,-11.18 -52.86,-22.94 -17.37,-13.04 -29.75,-30.6 -37.34,-50.85 -7.42,-19.78 -9.71,-41.54 -9.71,-62.55l0 -337.12 -126.61 0 -16.72 -26.2c-1.82,-2.83 -3.53,-5.75 -5.11,-8.74 -11.36,17.08 -25.24,32.12 -41.55,44.59l-26.5 20.27c19.09,11.54 37.09,24.65 53.32,39.59 48.73,44.9 69.57,104.58 69.57,170.15 0,75 -30.75,137.99 -89.77,184.26 -65.69,51.48 -153.7,65.37 -234.99,65.37 -32.61,0 -65.33,-2.53 -97.39,-8.62 -29.07,-5.52 -57.88,-14.05 -84.48,-27.15 -25.86,-12.71 -49.03,-29.96 -66.66,-52.94 -1.74,-2.27 -3.41,-4.55 -4.98,-6.9 -5.01,18.2 -13.7,35.11 -27.67,49.07 -22.71,22.71 -52.3,33.34 -84.25,33.34l-296.43 0c-41.2,0 -79.69,-12.54 -109.14,-42.01 -29.47,-29.45 -41.99,-67.94 -41.99,-109.13l0 -429.38c0,-41.22 12.52,-79.69 41.99,-109.16 29.45,-29.47 67.94,-41.99 109.14,-41.99l366.15 0 16.72 26.29c8.47,13.3 14.49,28.26 19.09,43.32 5.13,16.79 7.71,34.16 8,51.67 14.69,-28.27 35.81,-53.42 63.27,-74.79 62.74,-48.83 143.35,-63.77 221.13,-63.77 30.19,0 60.47,1.98 90.28,6.83 27.28,4.4 54.55,11.65 79.62,23.47 22.71,10.72 43.13,25.32 59.2,44.6 5.09,-9.94 11.7,-19.22 20.18,-27.42 23.35,-22.66 53.35,-33.25 85.71,-33.25l473.72 0 16.72 26.25c6.8,10.67 12.05,22.5 16.32,34.48 3.62,-5.75 7.92,-11.18 12.96,-16.22 14.94,-14.96 33.44,-25.21 53.26,-32.18 29.67,-10.45 60.98,-16.75 92.16,-20.55 34.57,-4.22 69.47,-6.01 104.31,-6.01 86.15,0 179.08,15.37 247.35,71.92 46.19,38.26 74.09,86.63 85.55,141.82zm-1736.84 322.22c4.92,-12.02 11.65,-23.33 20.28,-33.74 15.15,-18.28 33.02,-33.97 53.87,-45.46l25.04 -13.81c-11.63,-7.23 -22.79,-15.25 -33.29,-24.14 -23.65,-20.02 -42.4,-44.28 -55.69,-72.24 -14.83,-31.17 -20.24,-65.71 -20.24,-100 0,-6.66 0.25,-13.24 0.72,-19.71 -2.87,3.74 -6.05,7.32 -9.57,10.72 -9.8,9.48 -20.81,16.78 -32.69,22l11.09 17.36c8.33,13.07 14.35,27.67 18.99,42.42 5.63,17.85 8.21,36.41 8.21,55.11 0,34.52 -7.62,69.7 -32.88,94.93 -12.05,12.05 -26.08,20.6 -41.37,25.95l62.92 0 16.72 26.35c2.91,4.58 5.52,9.33 7.88,14.23zm139.79 -71.7c15.75,11.75 33.97,20.79 52.14,27.98 17.29,6.83 35.37,10.5 53.76,11.77l-16.9 -5.62c-29.03,-9.67 -57.63,-20.6 -85.74,-32.69 -1.1,-0.47 -2.17,-0.95 -3.27,-1.44zm-1765.05 95.9l0 168.21 -41.75 11.45c-13.35,3.67 -27.76,5.81 -41.5,7.64 -17.46,2.33 -35.07,3.52 -52.7,3.52 -16.51,0 -33.19,-1.02 -49.47,-3.89 -19.95,-3.53 -38.68,-11.24 -54.43,-24.12 -15.72,-12.85 -26.97,-29.51 -34.26,-48.33 -7.54,-19.48 -9.92,-40.85 -9.92,-61.6l0 -525.44 10.23 -14.64c17.57,-25.12 42.96,-41.69 71.63,-51.58 26.28,-9.07 53.68,-13.26 81.45,-13.26 30.69,0 60.96,4.77 90.01,14.75 40.21,13.81 68.21,44.37 86.75,81.79l46.68 94.33 0 -168.25 41.74 -11.45c13.35,-3.67 27.77,-5.81 41.5,-7.64 17.46,-2.32 35.07,-3.54 52.68,-3.54 34.56,0 70.56,5.77 99.74,25.44 37.61,25.35 48.39,69.76 48.39,112.53l0 545.27 -16.63 16.61c-18.12,18.14 -41.35,29.39 -65.81,36.31 -25.77,7.31 -53.17,9.75 -79.89,9.75 -30.3,0 -60.24,-4.48 -89.02,-14.07 -40.76,-13.6 -69.3,-44.85 -87.83,-82.66l-47.59 -97.13zm1063.84 -98.37c0,41.83 -7.03,83.03 -23.13,121.77 -15.6,37.51 -38.57,70.36 -68.76,97.52 -30.77,27.69 -66.88,47.5 -105.95,60.79 -42.75,14.55 -87.96,20.27 -132.99,20.27 -45.04,0 -90.24,-5.73 -132.99,-20.27 -39.08,-13.29 -75.2,-33.12 -105.96,-60.79 -30.19,-27.18 -53.17,-60.01 -68.75,-97.54 -16.1,-38.72 -23.11,-79.94 -23.11,-121.75l0 -435.06 46.5 -8.53c12.45,-2.27 25.06,-4.11 37.57,-5.93 18.18,-2.67 36.53,-4.16 54.9,-4.16 17.45,0 35.12,1.23 52.26,4.67 19.12,3.82 37.2,11.2 52.86,22.96 17.34,13.02 29.73,30.57 37.32,50.79 7.46,19.8 9.73,41.56 9.73,62.59l0 309.59c0,12.15 1.66,27.24 10.65,36.39 8.06,8.22 17.71,10.43 29.03,10.43 11.04,0 21.33,-1.88 29.2,-10.04 8.88,-9.19 10.48,-24.69 10.48,-36.78l0 -432.01 46.55 -8.51c12.42,-2.27 25.02,-4.11 37.53,-5.93 18.18,-2.67 36.53,-4.16 54.89,-4.16 17.46,0 35.15,1.23 52.28,4.67 19.13,3.82 37.21,11.22 52.87,22.96 17.34,13.02 29.73,30.58 37.32,50.83 7.42,19.78 9.72,41.54 9.72,62.55l0 312.67zm3490.61 115.74c-0.04,1.26 -0.08,2.55 -0.14,3.81 -1.14,35.6 -2.75,71.16 -4.61,106.72l-1.93 36.7 -34.26 13.25c-14.57,5.64 -30.29,9.11 -45.66,11.67 -17.17,2.87 -34.55,4.34 -51.97,4.34 -33.35,0 -68.32,-4.9 -97.68,-21.66 -37.22,-21.26 -53.48,-59.24 -53.48,-101.07l0 -1.61 30.35 -533.59 7.47 -12.18c13.04,-21.22 34.92,-36.47 56.33,-48.37 31.47,-17.48 69.21,-22.36 104.71,-22.36 37.87,0 77.99,5.26 111.62,23.76 33.74,18.58 56.87,48.19 70.4,84.02 7.18,19.08 13.91,38.34 20.46,57.65 2.56,7.58 5.11,15.17 7.62,22.77 13.62,-44.36 28.02,-88.77 44.39,-132.19l7.53 -19.98 18.85 -10.06c16.47,-8.78 34.71,-14.64 52.85,-18.89 21.66,-5.08 43.99,-7.08 66.21,-7.08 35.68,0 72.63,4.85 105.22,20.07 35.09,16.38 60.87,44.26 68.25,82.84 4.22,21.99 6.92,44.77 9.34,67.01 3.45,31.83 6.64,63.71 9.71,95.59 3.59,37.38 6.97,74.79 10.21,112.2 3.25,37.77 6.47,75.55 9.63,113.32 2.81,33.44 5.44,66.92 7.69,100.41 1.61,23.64 3.18,47.36 4.15,71.04l1.38 33.97 -29.32 17.25c-16.06,9.44 -33.29,16.53 -51.39,20.94 -19.9,4.85 -41.18,6.17 -61.6,6.17 -31.14,0 -62.32,-5.15 -90.38,-19.19 -38.95,-19.47 -57.37,-57.06 -59.7,-99.43 -0.95,-17.33 -1.84,-34.69 -2.67,-52.05 -15.05,12.08 -32.51,20.57 -50.9,26.4 -21.09,6.7 -43.31,9.27 -65.39,9.27 -27.15,0 -55.19,-3.14 -80.69,-12.9 -16.78,-6.44 -31.25,-16.1 -42.63,-28.6zm-1514.18 -321.5l0 42.43 8.24 0c6.72,0 17.87,-0.74 23.28,-5.53 2.82,-2.5 3.22,-12.75 3.22,-15.91 0,-3.68 -0.1,-11.29 -3.48,-13.97 -5.51,-4.38 -19.88,-6.28 -31.26,-7.02zm586.74 124.54c0,31.32 3.77,76.62 24.65,102.01 15.04,18.29 33.18,24.98 56.68,24.98 23.71,0 42.45,-6.47 57.68,-24.98 20.89,-25.39 24.63,-70.71 24.63,-102.01 0,-31.21 -3.76,-75.88 -24.36,-101.29 -14.92,-18.4 -33.5,-24.68 -56.93,-24.68 -23.7,0 -42.24,6.74 -57.61,25 -20.98,24.88 -24.73,70.03 -24.73,100.97z"/>
    </g>
    <path class="fil2" d="M2568.98 958.62c-9.48,9.48 -23.19,16.76 -41.13,21.83 -17.93,5.08 -39.41,7.6 -64.46,7.6 -25.03,0 -48.73,-3.71 -71.04,-11.16 -22.34,-7.45 -40.62,-25.37 -54.84,-53.8l-100.48 -205.05c-10.15,-20.99 -19.3,-40.78 -27.41,-59.39 -8.11,-18.61 -16.92,-40.08 -26.4,-64.46l-6.08 1.01c2.71,36.56 4.23,73.78 4.56,111.67 0.34,37.89 0.51,75.11 0.51,111.66l0 157.34c-7.45,2.03 -18.78,4.07 -34,6.1 -15.23,2.03 -30.29,3.04 -45.18,3.04 -14.89,0 -28.08,-1.01 -39.59,-3.04 -11.49,-2.03 -20.98,-6.1 -28.42,-12.18 -7.44,-6.1 -13.18,-14.38 -17.25,-24.89 -4.07,-10.49 -6.08,-24.18 -6.08,-41.11l0 -507.56c9.46,-13.53 24.01,-23.67 43.64,-30.45 19.63,-6.77 40.6,-10.15 62.94,-10.15 25.03,0 48.9,3.89 71.58,11.67 22.66,7.78 40.78,25.55 54.3,53.3l101.51 205.06c10.15,20.97 19.3,40.76 27.4,59.37 8.12,18.61 16.93,40.1 26.39,64.46l5.08 -1.01c-2.71,-36.55 -4.38,-73.09 -5.08,-109.64 -0.67,-36.55 -1.01,-73.08 -1.01,-109.63l0 -164.45c7.45,-2.03 18.77,-4.07 34,-6.1 15.23,-2.03 30.29,-3.04 45.18,-3.04 29.77,0 52.45,5.25 68,15.74 15.56,10.48 23.37,32.3 23.37,65.47l0 521.76zm677.08 -206.05c0,36.53 -6.26,69.86 -18.78,99.97 -12.51,30.12 -30.62,55.85 -54.31,77.16 -23.68,21.32 -52.45,37.73 -86.27,49.24 -33.85,11.49 -72.08,17.26 -114.72,17.26 -42.64,0 -80.87,-5.77 -114.71,-17.26 -33.82,-11.5 -62.59,-27.92 -86.27,-49.24 -23.69,-21.31 -41.8,-47.04 -54.32,-77.16 -12.51,-30.11 -18.77,-63.44 -18.77,-99.97l0 -387.78c7.45,-1.36 19.29,-3.22 35.54,-5.59 16.24,-2.37 31.79,-3.56 46.68,-3.56 15.57,0 29.28,1.19 41.11,3.56 11.85,2.37 21.83,6.6 29.95,12.7 8.12,6.07 14.22,14.53 18.27,25.37 4.07,10.82 6.1,25.03 6.1,42.63l0 309.6c0,32.48 8.96,57.87 26.89,76.14 17.93,18.27 41.11,27.4 69.53,27.4 29.1,0 52.46,-9.13 70.06,-27.4 17.59,-18.27 26.38,-43.66 26.38,-76.14l0 -384.72c7.45,-1.36 19.3,-3.22 35.52,-5.59 16.25,-2.37 31.82,-3.56 46.7,-3.56 15.58,0 29.28,1.19 41.11,3.56 11.85,2.37 21.84,6.6 29.95,12.7 8.12,6.07 14.22,14.53 18.27,25.37 4.07,10.82 6.1,25.03 6.1,42.63l0 312.67zm128.92 -293.38c0,-29.1 8.45,-52.1 25.37,-69.03 16.93,-16.92 39.93,-25.37 69.02,-25.37l334.99 0c4.74,7.45 8.97,17.25 12.69,29.44 3.71,12.17 5.57,25.03 5.57,38.56 0,25.72 -5.57,43.99 -16.74,54.82 -11.16,10.82 -25.89,16.25 -44.15,16.25l-214.19 0 0 94.41 228.4 0c4.74,7.45 8.97,17.08 12.68,28.93 3.73,11.82 5.59,24.52 5.59,38.07 0,25.71 -5.41,43.98 -16.25,54.81 -10.82,10.82 -25.38,16.24 -43.65,16.24l-186.77 0 0 106.6 260.89 0c4.74,7.44 8.96,17.25 12.67,29.44 3.73,12.18 5.59,25.03 5.59,38.56 0,25.73 -5.59,44.17 -16.74,55.33 -11.18,11.15 -25.89,16.74 -44.15,16.74l-296.43 0c-29.09,0 -52.09,-8.45 -69.02,-25.37 -16.92,-16.93 -25.37,-39.93 -25.37,-69.03l0 -429.39zm735.96 276.12c-29.77,-10.15 -56.84,-20.47 -81.22,-30.96 -24.36,-10.49 -45.34,-23.19 -62.93,-38.07 -17.6,-14.89 -31.3,-32.66 -41.11,-53.3 -9.82,-20.64 -14.73,-45.85 -14.73,-75.63 0,-57.52 22.18,-103.55 66.51,-138.05 44.31,-34.51 106.41,-51.78 186.26,-51.78 29.1,0 56.16,2.03 81.22,6.08 25.04,4.07 46.52,10.33 64.46,18.78 17.92,8.46 31.97,19.29 42.12,32.48 10.15,13.2 15.24,28.59 15.24,46.19 0,17.61 -4.06,32.66 -12.18,45.18 -8.14,12.51 -17.95,23.18 -29.45,31.97 -14.88,-9.46 -34.85,-17.76 -59.88,-24.86 -25.04,-7.11 -52.45,-10.67 -82.22,-10.67 -30.47,0 -52.8,4.23 -67,12.69 -14.21,8.45 -21.32,19.12 -21.32,31.98 0,10.15 4.4,18.44 13.19,24.88 8.8,6.42 21.99,12.34 39.59,17.76l53.8 17.25c63.63,20.3 112.52,46.19 146.68,77.66 34.18,31.48 51.28,74.27 51.28,128.41 0,57.52 -22.69,104.05 -68.03,139.59 -45.34,35.52 -112,53.3 -199.97,53.3 -31.14,0 -60.07,-2.55 -86.8,-7.62 -26.71,-5.08 -50.08,-12.52 -70.04,-22.33 -19.97,-9.82 -35.52,-22 -46.68,-36.55 -11.18,-14.56 -16.77,-31.31 -16.77,-50.24 0,-19.63 5.77,-36.39 17.26,-50.26 11.5,-13.88 24.03,-24.53 37.56,-31.97 18.95,14.88 42.14,27.74 69.54,38.56 27.41,10.82 57.35,16.25 89.83,16.25 33.17,0 56.52,-5.08 70.06,-15.24 13.53,-10.15 20.3,-21.98 20.3,-35.52 0,-13.53 -5.41,-23.86 -16.25,-30.97 -10.81,-7.11 -26.04,-14.03 -45.67,-20.81l-42.63 -14.2zm343.11 -228.41c-4.74,-7.44 -9.13,-17.59 -13.18,-30.45 -4.07,-12.87 -6.1,-26.4 -6.1,-40.62 0,-26.38 5.93,-45.34 17.77,-56.84 11.85,-11.49 27.24,-17.24 46.19,-17.24l442.6 0c4.74,7.45 9.14,17.59 13.19,30.45 4.06,12.86 6.09,26.39 6.09,40.6 0,26.4 -5.93,45.34 -17.77,56.85 -11.85,11.5 -27.24,17.25 -46.19,17.25l-112.68 0 0 468.97c-7.44,2.03 -19.11,4.07 -35.03,6.1 -15.89,2.03 -31.63,3.04 -47.19,3.04 -15.57,0 -29.28,-1.19 -41.11,-3.56 -11.84,-2.37 -21.83,-6.6 -29.95,-12.68 -8.12,-6.09 -14.21,-14.55 -18.26,-25.39 -4.07,-10.82 -6.1,-25.03 -6.1,-42.63l0 -393.86 -152.27 0zm769.47 274.08l0 194.89c-7.45,2.03 -19.13,4.07 -35.03,6.1 -15.9,2.03 -31.63,3.04 -47.21,3.04 -15.56,0 -29.26,-1.19 -41.11,-3.56 -11.83,-2.37 -21.64,-6.6 -29.42,-12.68 -7.8,-6.09 -13.71,-14.55 -17.78,-25.39 -4.07,-10.82 -6.08,-25.03 -6.08,-42.63l0 -478.12c0,-14.21 3.89,-25.21 11.67,-32.99 7.78,-7.78 18.45,-14.03 31.97,-18.77 23.01,-8.12 49.74,-14.04 80.19,-17.76 30.48,-3.73 62.96,-5.59 97.45,-5.59 93.4,0 163.77,19.63 211.15,58.87 47.37,39.25 71.06,92.39 71.06,159.39 0,41.94 -10.81,77.82 -32.48,107.59 -21.66,29.78 -47.37,52.78 -77.15,69.04 24.36,33.15 48.38,64.27 72.07,93.38 23.68,29.1 42.3,55.48 55.83,79.18 -6.75,23.67 -19.12,41.78 -37.04,54.3 -17.93,12.51 -38.07,18.77 -60.41,18.77 -14.88,0 -27.74,-1.68 -38.56,-5.08 -10.83,-3.38 -20.31,-8.12 -28.43,-14.2 -8.12,-6.09 -15.56,-13.54 -22.34,-22.33 -6.76,-8.81 -13.18,-18.28 -19.29,-28.43l-85.26 -137.04 -53.79 0zm63.94 -135.01c25.73,0 46.02,-6.6 60.91,-19.8 14.89,-13.19 22.34,-32.65 22.34,-58.37 0,-25.71 -8.3,-45.16 -24.89,-58.37 -16.56,-13.18 -42.81,-19.78 -78.67,-19.78 -10.15,0 -18.27,0.34 -24.36,1.01 -6.08,0.69 -12.86,1.7 -20.3,3.06l0 152.26 64.97 0zm339.04 25.38c0,-52.78 8.3,-99.48 24.88,-140.08 16.57,-40.62 39.25,-74.62 68.01,-102.03 28.77,-27.4 62.59,-48.22 101.51,-62.41 38.92,-14.22 81.04,-21.33 126.38,-21.33 45.34,0 87.48,7.11 126.4,21.33 38.9,14.19 72.91,35.01 102.01,62.41 29.1,27.41 51.93,61.42 68.52,102.03 16.59,40.6 24.88,87.3 24.88,140.08 0,52.77 -8.13,99.65 -24.36,140.59 -16.25,40.93 -38.74,75.12 -67.51,102.53 -28.76,27.4 -62.78,48.22 -102.01,62.43 -39.25,14.2 -81.89,21.31 -127.92,21.31 -46.01,0 -88.64,-7.27 -127.9,-21.82 -39.25,-14.55 -73.1,-35.7 -101.51,-63.44 -28.42,-27.74 -50.75,-61.93 -67,-102.53 -16.24,-40.6 -24.36,-86.96 -24.36,-139.07zm182.72 0c0,61.58 12.52,107.59 37.56,138.04 25.04,30.48 58.53,45.69 100.49,45.69 42.63,0 76.48,-15.22 101.52,-45.69 25.03,-30.45 37.56,-76.46 37.56,-138.04 0,-60.92 -12.34,-106.6 -37.04,-137.04 -24.71,-30.46 -58.37,-45.67 -101.01,-45.67 -41.96,0 -75.63,15.05 -101.01,45.16 -25.39,30.11 -38.07,75.96 -38.07,137.55zm1189.71 157.34c-8.79,7.45 -20.12,13.37 -34,17.77 -13.87,4.4 -29.93,6.6 -48.22,6.6 -24.34,0 -44.49,-3.04 -60.38,-9.13 -15.92,-6.08 -26.23,-16.57 -30.97,-31.46 -18.95,-59.55 -34.51,-107.77 -46.7,-144.66 -12.18,-36.88 -21.66,-69.2 -28.41,-96.94l-5.1 0c-2.01,39.93 -3.54,76.3 -4.56,109.11 -1.01,32.83 -1.7,64.79 -2.03,95.93 -0.34,31.14 -1.01,62.6 -2.01,94.41 -1.03,31.81 -2.55,66.99 -4.57,105.56 -8.79,3.4 -20.3,6.26 -34.52,8.63 -14.19,2.37 -28.41,3.56 -42.63,3.56 -29.77,0 -52.95,-4.74 -69.52,-14.2 -16.59,-9.47 -24.88,-26.73 -24.88,-51.77l29.44 -517.71c5.41,-8.81 17.25,-18.29 35.52,-28.43 18.29,-10.15 43.99,-15.23 77.15,-15.23 35.88,0 63.96,5.59 84.26,16.75 20.3,11.17 35.19,29.28 44.67,54.31 6.1,16.24 12.7,34.85 19.81,55.83 7.09,20.99 14.19,42.63 21.3,64.96 7.11,22.34 14.04,44.51 20.82,66.49 6.77,21.99 12.85,41.8 18.26,59.39l5.08 0c16.25,-56.84 32.49,-111.84 48.74,-164.96 16.25,-53.12 31.14,-97.62 44.67,-133.49 10.15,-5.41 23.18,-9.98 39.08,-13.7 15.92,-3.73 33.67,-5.59 53.3,-5.59 33.15,0 60.22,4.92 81.22,14.72 20.97,9.8 33.15,23.86 36.53,42.13 2.73,13.52 5.59,34.34 8.63,62.43 3.06,28.08 6.26,59.72 9.66,94.9 3.38,35.19 6.75,72.41 10.14,111.66 3.38,39.25 6.6,76.99 9.64,113.19 3.04,36.21 5.59,69.36 7.62,99.48 2.03,30.12 3.38,53.3 4.05,69.54 -11.49,6.75 -23.51,11.67 -36.04,14.71 -12.52,3.04 -28.6,4.56 -48.2,4.56 -25.73,0 -47.37,-4.4 -64.99,-13.19 -17.59,-8.8 -27.05,-26.06 -28.41,-51.77 -4.07,-73.76 -6.6,-140.08 -7.62,-198.97 -1.01,-58.86 -2.53,-108.26 -4.56,-148.19l-5.08 0c-6.76,26.38 -16.58,59.55 -29.44,99.48 -12.86,39.93 -28.41,91.01 -46.7,153.28zm383.73 -369.5c0,-29.1 8.45,-52.1 25.38,-69.03 16.92,-16.92 39.93,-25.37 69.01,-25.37l334.99 0c4.74,7.45 8.97,17.25 12.7,29.44 3.71,12.17 5.57,25.03 5.57,38.56 0,25.72 -5.57,43.99 -16.75,54.82 -11.16,10.82 -25.88,16.25 -44.15,16.25l-214.19 0 0 94.41 228.41 0c4.74,7.45 8.97,17.08 12.68,28.93 3.72,11.82 5.58,24.52 5.58,38.07 0,25.71 -5.41,43.98 -16.25,54.81 -10.82,10.82 -25.38,16.24 -43.64,16.24l-186.78 0 0 106.6 260.89 0c4.74,7.44 8.97,17.25 12.68,29.44 3.73,12.18 5.59,25.03 5.59,38.56 0,25.73 -5.59,44.17 -16.75,55.33 -11.18,11.15 -25.88,16.74 -44.15,16.74l-296.43 0c-29.08,0 -52.09,-8.45 -69.01,-25.37 -16.93,-16.93 -25.38,-39.93 -25.38,-69.03l0 -429.39zm1113.59 499.43c-9.48,9.48 -23.19,16.76 -41.13,21.83 -17.93,5.08 -39.41,7.6 -64.46,7.6 -25.03,0 -48.73,-3.71 -71.04,-11.16 -22.33,-7.45 -40.62,-25.37 -54.84,-53.8l-100.48 -205.05c-10.15,-20.99 -19.3,-40.78 -27.41,-59.39 -8.11,-18.61 -16.92,-40.08 -26.4,-64.46l-6.08 1.01c2.71,36.56 4.23,73.78 4.56,111.67 0.34,37.89 0.51,75.11 0.51,111.66l0 157.34c-7.45,2.03 -18.78,4.07 -34,6.1 -15.23,2.03 -30.29,3.04 -45.18,3.04 -14.89,0 -28.08,-1.01 -39.59,-3.04 -11.49,-2.03 -20.98,-6.1 -28.42,-12.18 -7.44,-6.1 -13.18,-14.38 -17.25,-24.89 -4.07,-10.49 -6.08,-24.18 -6.08,-41.11l0 -507.56c9.46,-13.53 24.02,-23.67 43.64,-30.45 19.63,-6.77 40.6,-10.15 62.94,-10.15 25.03,0 48.9,3.89 71.58,11.67 22.66,7.78 40.78,25.55 54.3,53.3l101.51 205.06c10.15,20.97 19.3,40.76 27.41,59.37 8.11,18.61 16.92,40.1 26.38,64.46l5.08 -1.01c-2.71,-36.55 -4.38,-73.09 -5.08,-109.64 -0.67,-36.55 -1.01,-73.08 -1.01,-109.63l0 -164.45c7.45,-2.03 18.78,-4.07 34,-6.1 15.23,-2.03 30.29,-3.04 45.18,-3.04 29.77,0 52.45,5.25 68.01,15.74 15.55,10.48 23.36,32.3 23.36,65.47l0 521.76zm677.08 -206.05c0,36.53 -6.26,69.86 -18.78,99.97 -12.51,30.12 -30.62,55.85 -54.31,77.16 -23.68,21.32 -52.45,37.73 -86.27,49.24 -33.84,11.49 -72.08,17.26 -114.72,17.26 -42.63,0 -80.87,-5.77 -114.71,-17.26 -33.82,-11.5 -62.59,-27.92 -86.27,-49.24 -23.69,-21.31 -41.8,-47.04 -54.31,-77.16 -12.52,-30.11 -18.78,-63.44 -18.78,-99.97l0 -387.78c7.45,-1.36 19.29,-3.22 35.54,-5.59 16.24,-2.37 31.79,-3.56 46.68,-3.56 15.58,0 29.28,1.19 41.11,3.56 11.85,2.37 21.83,6.6 29.95,12.7 8.12,6.07 14.22,14.53 18.27,25.37 4.07,10.82 6.1,25.03 6.1,42.63l0 309.6c0,32.48 8.96,57.87 26.89,76.14 17.93,18.27 41.11,27.4 69.53,27.4 29.1,0 52.46,-9.13 70.06,-27.4 17.59,-18.27 26.38,-43.66 26.38,-76.14l0 -384.72c7.45,-1.36 19.3,-3.22 35.52,-5.59 16.25,-2.37 31.82,-3.56 46.7,-3.56 15.58,0 29.28,1.19 41.11,3.56 11.85,2.37 21.84,6.6 29.96,12.7 8.11,6.07 14.21,14.53 18.26,25.37 4.07,10.82 6.1,25.03 6.1,42.63l0 312.67zm-216.22 -636.48c33.15,2.71 56.85,10.66 71.04,23.85 14.22,13.19 21.33,28.59 21.33,46.19 0,19.62 -5.59,35.19 -16.75,46.7 -11.17,11.49 -28.59,21.99 -52.28,31.45l-139.08 54.82c-19.63,-4.05 -35.36,-12.19 -47.19,-24.35 -11.85,-12.18 -17.78,-25.73 -17.78,-40.62 0,-9.47 2.55,-18.6 7.62,-27.4 5.08,-8.79 13.02,-15.9 23.86,-21.31l149.22 -89.32z"/>
   </g>
   <g>
    <path class="fil0" d="M1291.83 432.5c105.34,0 190.72,85.38 190.72,190.72 0,105.34 -85.38,190.72 -190.72,190.72 -105.34,0 -190.72,-85.38 -190.72,-190.72 0,-105.34 85.38,-190.72 190.72,-190.72z"/>
    <path class="fil3" d="M718.47 432.5c105.34,0 190.72,85.38 190.72,190.72 0,105.34 -85.38,190.72 -190.72,190.72 -105.34,0 -190.72,-85.38 -190.72,-190.72 0,-105.34 85.38,-190.72 190.72,-190.72z"/>
    <path class="fil2" d="M190.72 432.5c105.34,0 190.72,85.38 190.72,190.72 0,105.34 -85.38,190.72 -190.72,190.72 -105.34,0 -190.72,-85.38 -190.72,-190.72 0,-105.34 85.38,-190.72 190.72,-190.72z"/>
   </g>
   <g>
    <path class="fil0" d="M10854.95 432.5c105.34,0 190.72,85.38 190.72,190.72 0,105.34 -85.38,190.72 -190.72,190.72 -105.34,0 -190.72,-85.38 -190.72,-190.72 0,-105.34 85.38,-190.72 190.72,-190.72z"/>
    <path class="fil3" d="M10281.59 432.5c105.34,0 190.72,85.38 190.72,190.72 0,105.34 -85.38,190.72 -190.72,190.72 -105.34,0 -190.72,-85.38 -190.72,-190.72 0,-105.34 85.38,-190.72 190.72,-190.72z"/>
    <path class="fil2" d="M9753.84 432.5c105.34,0 190.72,85.38 190.72,190.72 0,105.34 -85.38,190.72 -190.72,190.72 -105.34,0 -190.72,-85.38 -190.72,-190.72 0,-105.34 85.38,-190.72 190.72,-190.72z"/>
   </g>
  </g>
 </g>
</svg>
