<?xml version="1.0" encoding="UTF-8"?>
<svg id="Layer_2" data-name="Layer 2" xmlns="http://www.w3.org/2000/svg" viewBox="0 0 27.38 30.55">
  <defs>
    <style>
      .cls-1 {
        fill: #ed1c24;
        fill-rule: evenodd;
      }

      .cls-2 {
        fill: #fff200;
      }
    </style>
  </defs>
  <g id="Layer_1-2" data-name="Layer 1">
    <g>
      <path class="cls-1" d="M26.88,2.37c-.25-.1-.42.1-.6.35-2.04,2.93-4.08,5.86-6.12,8.79-.11.1-.25.25-.39.25H.72c-.53,0-.77.35-.7,1.11.07,1.01.11,2.02.32,2.98,1.13,5.45,3.45,9.7,6.68,12.93.6.61.88.76,1.51,1.31.6.45,1.02.45,1.02.45h7.21s.81,0,1.23-.35c3.48-2.53,5.98-6.46,7.67-11.51.6-1.82.98-3.74,1.05-5.76,0-.91-.18-1.16-.81-1.16h-4.11c-.04-.05-.04-.1-.07-.15.07-.1.18-.15.25-.25,1.69-2.42,3.41-4.85,5.1-7.27.07-.1.14-.2.18-.3.32-.56.11-1.31-.35-1.41h0ZM11.4,4.16h.11c-.18.58-.35,1.16-.53,1.73-.14.48-.28.96-.35,1.45-.04.16.11.42.21.58.21.32.21.61-.07.83-.25.19-.6.16-.84-.1-.56-.58-.63-1.25-.46-1.96.21-.71.46-1.38.67-2.09.14-.42.14-.8-.21-1.16-.21-.22-.14-.58.11-.74.25-.16.56-.16.81.03.42.39.6.87.56,1.41h0ZM15.06,7.31h0s-.04-.03-.07-.03c.14-.51.32-1.06.46-1.57.14-.51.32-1,.42-1.51.07-.26-.04-.48-.25-.67-.25-.26-.21-.61.07-.8.25-.19.6-.16.88.1.56.58.63,1.25.42,1.96-.18.71-.42,1.38-.63,2.05-.14.42-.18.84.21,1.19.21.19.11.55-.11.74-.25.16-.6.16-.81-.06-.46-.39-.6-.84-.6-1.38h0ZM14.32,1.88c-.18,1-.39,1.99-.56,2.95-.14.84-.39,1.67-.28,2.54,0,.19.11.42.21.58.21.29.21.58-.07.77-.25.22-.6.19-.84-.06-.39-.39-.56-.87-.53-1.35.04-.74.14-1.51.25-2.25.18-1.03.39-2.02.53-3.05.07-.42.04-.83-.28-1.19-.21-.22-.11-.51.14-.71.25-.16.56-.16.81.06.39.39.49.84.56,1.32v.39h.07Z"/>
      <path class="cls-2" d="M8.66,21.8c-.08.07-.19.12-.32.17s-.28.06-.45.06c-.23,0-.41-.03-.56-.08s-.24-.15-.29-.29c-.18-.55-.32-1-.43-1.34-.11-.34-.2-.64-.26-.9h-.05c-.02.37-.03.71-.04,1.01,0,.31-.02.6-.02.89s0,.58-.02.88-.02.62-.04.98c-.08.03-.19.06-.32.08-.13.02-.26.03-.4.03-.28,0-.49-.04-.65-.13-.15-.09-.23-.25-.23-.48l.27-4.81c.05-.08.16-.17.33-.26s.41-.14.72-.14c.33,0,.59.05.78.16s.33.27.41.5c.06.15.12.32.18.52.07.2.13.4.2.6.07.21.13.41.19.62.06.2.12.39.17.55h.05c.15-.53.3-1.04.45-1.53.15-.49.29-.91.41-1.24.09-.05.22-.09.36-.13.15-.03.31-.05.5-.05.31,0,.56.05.75.14.19.09.31.22.34.39.03.13.05.32.08.58.03.26.06.56.09.88.03.33.06.67.09,1.04.03.37.06.72.09,1.05.03.34.05.64.07.92.02.28.03.5.04.65-.11.06-.22.11-.33.14-.12.03-.27.04-.45.04-.24,0-.44-.04-.6-.12s-.25-.24-.26-.48c-.04-.69-.06-1.3-.07-1.85s-.02-1.01-.04-1.38h-.05c-.06.25-.15.55-.27.92-.12.37-.26.85-.43,1.42Z"/>
      <path class="cls-2" d="M12.07,17.34c0-.24.08-.44.24-.6s.37-.25.64-.25.48.08.64.25.24.36.24.6-.08.44-.24.6-.37.25-.64.25-.48-.08-.64-.25-.24-.36-.24-.6ZM13.75,23.19c-.07.01-.17.03-.31.05-.14.02-.27.03-.41.03s-.26,0-.37-.03-.2-.06-.28-.11-.13-.13-.17-.23-.06-.23-.06-.38v-3.84c.07-.01.17-.03.31-.05s.27-.03.41-.03.26,0,.37.03c.11.02.2.06.28.11.08.06.13.13.17.23s.06.23.06.38v3.84Z"/>
      <path class="cls-2" d="M17.67,20.3c0-.19-.05-.34-.17-.43-.11-.09-.26-.14-.45-.14-.13,0-.25.02-.37.05-.12.03-.23.08-.32.14v3.27c-.06.02-.16.04-.3.06s-.28.03-.42.03-.26,0-.37-.03c-.11-.02-.2-.06-.28-.11s-.13-.13-.17-.23c-.04-.1-.06-.23-.06-.38v-2.83c0-.17.04-.31.11-.42.07-.11.17-.2.3-.29.21-.15.48-.27.81-.37.32-.09.68-.14,1.08-.14.71,0,1.26.16,1.64.47.38.31.58.74.58,1.3v2.95c-.06.02-.16.04-.3.06s-.28.03-.42.03-.26,0-.37-.03c-.11-.02-.2-.06-.28-.11-.08-.06-.13-.13-.17-.23s-.06-.23-.06-.38v-2.23Z"/>
      <path class="cls-2" d="M20.23,17.34c0-.24.08-.44.24-.6s.37-.25.64-.25.48.08.64.25.24.36.24.6-.08.44-.24.6-.37.25-.64.25-.48-.08-.64-.25-.24-.36-.24-.6ZM21.9,23.19c-.07.01-.17.03-.31.05-.14.02-.27.03-.41.03s-.26,0-.37-.03-.2-.06-.28-.11-.13-.13-.17-.23-.06-.23-.06-.38v-3.84c.07-.01.17-.03.31-.05s.27-.03.41-.03.26,0,.37.03c.11.02.2.06.28.11.08.06.13.13.17.23s.06.23.06.38v3.84Z"/>
    </g>
  </g>
</svg>