<?xml version="1.0" encoding="UTF-8"?>
<svg id="Layer_2" data-name="Layer 2" xmlns="http://www.w3.org/2000/svg" viewBox="0 0 19.85 13.21">
  <defs>
    <style>
      .cls-1 {
        fill: #008c44;
      }
    </style>
  </defs>
  <g id="Layer_1-2" data-name="Layer 1">
    <g>
      <path class="cls-1" d="M17.06,9.42c-.7,0-1.26.57-1.26,1.26s.57,1.26,1.26,1.26,1.26-.57,1.26-1.26-.57-1.26-1.26-1.26ZM17.06,11.53c-.47,0-.84-.38-.84-.84s.38-.84.84-.84.84.38.84.84-.38.84-.84.84Z"/>
      <path class="cls-1" d="M19.79,8.14c-.78-.86-1.92-1.32-3.08-1.23-.08,0-.15.01-.23.02l-2.11-3.83h.16c.29.26.69.42,1.06.42.12,0,.21-.09.21-.21V1.21c0-.12-.09-.21-.21-.21-.37,0-.77.16-1.06.42h-1.99c-.12,0-.21.09-.21.21v.31l-.56-.84c-.04-.06-.1-.09-.17-.09h-1.26v.42h1.16l.76,1.14.08.27v.06c0,.05.02.1.06.13l.88,2.99-.95,2.96c-.08.26-.33.44-.6.44h-2.28s-.08,0-.11,0c-.34-.06-.58-.38-.52-.73l.46-2.66c.25-.08.44-.32.44-.6v-.84c0-.35-.28-.63-.63-.63h-.42V.21c0-.12-.09-.21-.21-.21H3.37c-.12,0-.21.09-.21.21v4.02c-.13.15-.21.34-.21.56v1.05c-1.27.43-2.27,1.47-2.61,2.82L0,10.01s0,.04,0,.06c0,.12.1.21.22.2h.88c-.02.14-.04.28-.04.42,0,1.4,1.13,2.53,2.53,2.53,1.16,0,2.17-.78,2.45-1.89h8.58c.29,1.11,1.29,1.89,2.44,1.89.63,0,1.24-.23,1.7-.66.97-.88,1.09-2.34.33-3.37l.7-.76c.07-.08.07-.21,0-.29ZM15.38,1.44v1.64c-.42-.09-.84-.42-.84-.82s.42-.73.84-.82ZM12.74,1.84h1.46c-.06.13-.09.27-.09.42s.04.29.1.42h-1.47v-.84ZM4.95.42v2.09l.95-.88.95.88V.42h1.37v3.53H3.8c-.07,0-.14,0-.21.03V.42h1.37ZM3.37,5.63v-.84c0-.23.19-.42.42-.42h5.26c.12,0,.21.09.21.21v.84c0,.12-.09.21-.21.21h-4.83s0,0-.01,0h0s-.84,0-.84,0ZM1.33,9.84H.49l.27-1.08c.39-1.56,1.76-2.66,3.36-2.71h.11s0,0,.01,0h4.58l-.42,2.56c0,.06-.01.12-.01.17,0,.58.47,1.05,1.05,1.05h2.29c.46,0,.86-.3,1-.73l.97-3.03s.01-.08,0-.12l-.85-2.85h1.05l2.16,3.91c-1.74.45-2.94,2.07-2.84,3.88h-7.09c0-.07,0-.14,0-.21,0-.23-.03-.46-.1-.69-.02-.06-.06-.11-.12-.14h0s-.05-.01-.05-.01c-.01,0-.03,0-.04,0h-1.39s-1.67,0-1.67,0h0s-1.39,0-1.39,0c-.01,0-.03,0-.04,0ZM2.86,10.27h1.45c.08.13.12.27.12.42,0,.46-.38.84-.84.84-.47,0-.84-.38-.84-.84,0-.15.04-.29.12-.42ZM5.66,11.06s-.01.08-.02.11c-.25,1.14-1.38,1.85-2.51,1.6s-1.85-1.38-1.6-2.51h.87c-.05.13-.07.28-.07.42,0,.7.57,1.26,1.26,1.26,0,0,0,0,.01,0,.7,0,1.26-.57,1.26-1.26,0-.15-.03-.29-.07-.42h.86c.03.14.04.28.04.42,0,.13-.01.25-.03.38ZM17.43,12.76c-1.14.21-2.24-.55-2.45-1.7-.02-.12-.03-.25-.03-.37,0-1.16.94-2.11,2.11-2.11h0c.59,0,1.15.25,1.55.69.27.29.44.65.51,1.04.21,1.14-.55,2.24-1.7,2.45ZM18.81,8.86c-.47-.45-1.1-.71-1.75-.71-1.4,0-2.53,1.13-2.52,2.53,0,.07,0,.14,0,.21h-.91c-.1-1.7,1.08-3.21,2.76-3.52.12-.02.24-.04.36-.05.97-.07,1.91.27,2.61.95l-.54.58Z"/>
    </g>
  </g>
</svg>