<?xml version="1.0" encoding="UTF-8"?>
<svg id="Layer_2" data-name="Layer 2" xmlns="http://www.w3.org/2000/svg" viewBox="0 0 10.82 10.82">
  <defs>
    <style>
      .cls-1 {
        fill: #008c44;
      }
    </style>
  </defs>
  <g id="Layer_1-2" data-name="Layer 1">
    <path class="cls-1" d="M1.76,10.82c-.22,0-.45,0-.67-.02-.27-.02-.45-.03-.63-.14-.15-.09-.29-.24-.37-.4-.09-.19-.09-.37-.09-.68v-1.58c0-.25,0-.41.06-.57.05-.14.14-.27.26-.36.13-.11.27-.16.51-.25l1.8-.65c.28-.1.44-.16.64-.15.17.01.33.07.47.17.16.11.25.26.4.52l.29.49c1.19-.61,2.15-1.58,2.77-2.77l-.49-.29c-.25-.15-.4-.24-.52-.4-.1-.14-.16-.3-.17-.47-.01-.19.05-.36.15-.63l.65-1.8c.09-.24.14-.38.25-.51.1-.11.22-.2.36-.26.16-.06.31-.06.57-.06h1.58c.3,0,.49,0,.68.09.16.08.31.22.4.37.1.18.12.36.14.63.02.22.02.45.02.67,0,1.22-.24,2.41-.71,3.53-.46,1.08-1.11,2.05-1.94,2.88-.83.83-1.8,1.49-2.88,1.94-1.12.47-2.3.71-3.53.71ZM3.21,6.74s-.18.05-.34.11l-1.8.65c-.14.05-.26.09-.29.12-.03.02-.04.05-.06.08-.01.04-.01.16-.01.31v1.58c0,.18,0,.32.02.36.01.03.05.07.08.09.04.02.15.03.32.04.2.01.41.02.62.02,4.6,0,8.35-3.74,8.35-8.35,0-.21,0-.41-.02-.62-.01-.17-.02-.28-.04-.33-.02-.03-.06-.07-.09-.08-.04-.02-.18-.02-.36-.02h-1.58c-.15,0-.27,0-.31.01-.03.01-.06.03-.08.06-.02.03-.07.15-.12.29l-.65,1.8c-.06.16-.11.3-.11.34,0,.04.02.07.04.1.02.03.15.11.3.2l.77.46c.16.09.22.29.14.46-.35.78-.84,1.48-1.45,2.09-.61.61-1.32,1.1-2.09,1.45-.17.07-.36.01-.45-.14l-.46-.77c-.09-.15-.16-.27-.2-.3-.03-.02-.07-.03-.1-.04,0,0,0,0,0,0Z"/>
  </g>
</svg>