<?xml version="1.0" encoding="UTF-8"?>
<svg id="Layer_2" data-name="Layer 2" xmlns="http://www.w3.org/2000/svg" viewBox="0 0 27.38 30.55">
  <defs>
    <style>
      .cls-1 {
        fill: #ed1c24;
      }

      .cls-1, .cls-2 {
        fill-rule: evenodd;
      }

      .cls-2 {
        fill: #fff200;
      }
    </style>
  </defs>
  <g id="Layer_1-2" data-name="Layer 1">
    <g>
      <path class="cls-1" d="M26.88,2.37c-.25-.1-.42.1-.6.35-2.04,2.93-4.08,5.86-6.12,8.79-.11.1-.25.25-.39.25H.72c-.53,0-.77.35-.7,1.11.07,1.01.11,2.02.32,2.98,1.13,5.45,3.45,9.7,6.68,12.93.6.61.88.76,1.51,1.31.6.45,1.02.45,1.02.45h7.21s.81,0,1.23-.35c3.48-2.53,5.98-6.46,7.67-11.51.6-1.82.98-3.74,1.05-5.76,0-.91-.18-1.16-.81-1.16h-4.11c-.04-.05-.04-.1-.07-.15.07-.1.18-.15.25-.25,1.69-2.42,3.41-4.85,5.1-7.27.07-.1.14-.2.18-.3.32-.56.11-1.31-.35-1.41h0ZM11.4,4.16h.11c-.18.58-.35,1.16-.53,1.73-.14.48-.28.96-.35,1.45-.04.16.11.42.21.58.21.32.21.61-.07.83-.25.19-.6.16-.84-.1-.56-.58-.63-1.25-.46-1.96.21-.71.46-1.38.67-2.09.14-.42.14-.8-.21-1.16-.21-.22-.14-.58.11-.74.25-.16.56-.16.81.03.42.39.6.87.56,1.41h0ZM15.06,7.31h0s-.04-.03-.07-.03c.14-.51.32-1.06.46-1.57.14-.51.32-1,.42-1.51.07-.26-.04-.48-.25-.67-.25-.26-.21-.61.07-.8.25-.19.6-.16.88.1.56.58.63,1.25.42,1.96-.18.71-.42,1.38-.63,2.05-.14.42-.18.84.21,1.19.21.19.11.55-.11.74-.25.16-.6.16-.81-.06-.46-.39-.6-.84-.6-1.38h0ZM14.32,1.88c-.18,1-.39,1.99-.56,2.95-.14.84-.39,1.67-.28,2.54,0,.19.11.42.21.58.21.29.21.58-.07.77-.25.22-.6.19-.84-.06-.39-.39-.56-.87-.53-1.35.04-.74.14-1.51.25-2.25.18-1.03.39-2.02.53-3.05.07-.42.04-.83-.28-1.19-.21-.22-.11-.51.14-.71.25-.16.56-.16.81.06.39.39.49.84.56,1.32v.39h.07Z"/>
      <path class="cls-2" d="M19.9,15.86c.16.13.29.3.42.53.12.22.18.5.18.84,0,.18-.01.37-.04.56-.03.19-.07.38-.14.56l-2.85,8.11c-.13.01-.25.02-.36.02h-.32c-.41,0-.75-.1-1-.29-.26-.2-.38-.53-.38-1.02,0-.24.05-.5.14-.78.09-.28.21-.62.37-1.01l2-5.15h-3.36c-.05-.13-.11-.29-.16-.5-.05-.21-.08-.43-.08-.65,0-.44.08-.75.23-.93.16-.18.35-.28.59-.28h4.77Z"/>
      <path class="cls-2" d="M8.22,20.18c.05-.3.15-.55.3-.75.15-.19.34-.29.56-.29.21,0,.37.06.49.19.11.13.24.31.38.54l.61,1.01,1.02-1.74c.35,0,.63.08.83.23.2.16.31.37.31.63,0,.1-.01.2-.03.28-.02.08-.06.17-.1.26-.05.09-.1.19-.17.3-.07.11-.15.24-.25.4l-.63.89,1.25,2.08c-.03.3-.13.54-.29.72-.16.18-.35.26-.57.26-.24,0-.44-.1-.58-.26-.14-.17-.28-.37-.42-.61l-.52-.93-.98,1.77s-.07,0-.11,0c-.04,0-.07,0-.1,0-.33,0-.57-.08-.74-.25-.17-.17-.25-.38-.25-.63,0-.19.04-.36.11-.51.07-.15.2-.35.38-.61l.77-1.12-1.28-1.89Z"/>
    </g>
  </g>
</svg>