<?xml version="1.0" encoding="UTF-8"?>
<svg id="Layer_2" data-name="Layer 2" xmlns="http://www.w3.org/2000/svg" viewBox="0 0 27.38 30.55">
  <defs>
    <style>
      .cls-1 {
        fill: #ed1c24;
      }

      .cls-1, .cls-2 {
        fill-rule: evenodd;
      }

      .cls-2 {
        fill: #fff200;
      }
    </style>
  </defs>
  <g id="Layer_1-2" data-name="Layer 1">
    <g>
      <path class="cls-1" d="M26.88,2.37c-.25-.1-.42.1-.6.35-2.04,2.93-4.08,5.86-6.12,8.79-.11.1-.25.25-.39.25H.72c-.53,0-.77.35-.7,1.11.07,1.01.11,2.02.32,2.98,1.13,5.45,3.45,9.7,6.68,12.93.6.61.88.76,1.51,1.31.6.45,1.02.45,1.02.45h7.21s.81,0,1.23-.35c3.48-2.53,5.98-6.46,7.67-11.51.6-1.82.98-3.74,1.05-5.76,0-.91-.18-1.16-.81-1.16h-4.11c-.04-.05-.04-.1-.07-.15.07-.1.18-.15.25-.25,1.69-2.42,3.41-4.85,5.1-7.27.07-.1.14-.2.18-.3.32-.56.11-1.31-.35-1.41h0ZM11.4,4.16h.11c-.18.58-.35,1.16-.53,1.73-.14.48-.28.96-.35,1.45-.04.16.11.42.21.58.21.32.21.61-.07.83-.25.19-.6.16-.84-.1-.56-.58-.63-1.25-.46-1.96.21-.71.46-1.38.67-2.09.14-.42.14-.8-.21-1.16-.21-.22-.14-.58.11-.74.25-.16.56-.16.81.03.42.39.6.87.56,1.41h0ZM15.06,7.31h0s-.04-.03-.07-.03c.14-.51.32-1.06.46-1.57.14-.51.32-1,.42-1.51.07-.26-.04-.48-.25-.67-.25-.26-.21-.61.07-.8.25-.19.6-.16.88.1.56.58.63,1.25.42,1.96-.18.71-.42,1.38-.63,2.05-.14.42-.18.84.21,1.19.21.19.11.55-.11.74-.25.16-.6.16-.81-.06-.46-.39-.6-.84-.6-1.38h0ZM14.32,1.88c-.18,1-.39,1.99-.56,2.95-.14.84-.39,1.67-.28,2.54,0,.19.11.42.21.58.21.29.21.58-.07.77-.25.22-.6.19-.84-.06-.39-.39-.56-.87-.53-1.35.04-.74.14-1.51.25-2.25.18-1.03.39-2.02.53-3.05.07-.42.04-.83-.28-1.19-.21-.22-.11-.51.14-.71.25-.16.56-.16.81.06.39.39.49.84.56,1.32v.39h.07Z"/>
      <path class="cls-2" d="M15.5,15.72c1.06,0,1.87.28,2.42.83s.83,1.29.83,2.22c0,.56-.12,1.03-.35,1.42-.23.39-.51.68-.84.88.19.09.37.21.54.35.17.14.31.31.44.52.13.21.23.45.3.73.07.28.11.6.11.97,0,.5-.09.94-.26,1.34-.17.39-.41.73-.71,1.01-.3.28-.67.49-1.09.63-.42.14-.88.22-1.38.22-.96,0-1.68-.17-2.17-.5s-.73-.76-.73-1.29c0-.31.06-.58.18-.81.12-.23.27-.4.44-.53.18.16.43.33.74.51.31.18.71.27,1.21.27.47,0,.82-.1,1.04-.31.23-.21.34-.48.34-.82s-.09-.59-.27-.76c-.18-.17-.49-.26-.93-.26h-1.3c-.06-.13-.12-.28-.17-.47-.05-.19-.07-.41-.07-.66s.02-.5.06-.69c.04-.19.1-.35.17-.48h1.3c.66,0,1-.32,1-.96,0-.3-.11-.54-.32-.73-.21-.19-.53-.28-.95-.28-.38,0-.71.05-1,.16-.29.11-.52.25-.71.41-.16-.14-.29-.31-.39-.51-.1-.2-.15-.44-.15-.72,0-.58.24-1.01.72-1.28.48-.27,1.12-.41,1.92-.41Z"/>
      <path class="cls-2" d="M6.42,20.35c.05-.31.15-.56.3-.75.15-.19.34-.29.56-.29.21,0,.38.06.49.19.12.13.24.31.39.55l.62,1.02,1.03-1.76c.35,0,.63.08.84.24.21.16.31.37.31.64,0,.11-.01.2-.03.28-.02.09-.06.17-.1.26-.04.09-.1.19-.17.3-.07.11-.15.25-.25.4l-.64.9,1.26,2.1c-.03.31-.13.55-.29.73-.16.18-.35.27-.58.27-.24,0-.44-.1-.58-.27-.14-.17-.28-.38-.42-.62l-.52-.93-.98,1.78s-.07,0-.11,0c-.04,0-.07,0-.1,0-.33,0-.58-.08-.75-.25-.17-.17-.26-.38-.26-.63,0-.19.04-.37.11-.52.07-.15.2-.35.38-.61l.77-1.13-1.29-1.9Z"/>
    </g>
  </g>
</svg>