<?xml version="1.0" encoding="UTF-8"?>
<svg id="Layer_2" data-name="Layer 2" xmlns="http://www.w3.org/2000/svg" viewBox="0 0 11.62 11.59">
  <defs>
    <style>
      .cls-1 {
        fill: #008c44;
        fill-rule: evenodd;
      }
    </style>
  </defs>
  <g id="Layer_1-2" data-name="Layer 1">
    <path class="cls-1" d="M0,11.55v.04h.05c.05-.04.14-.06.21-.08.08-.02.15-.05.22-.07l2.64-.84c.19-.04,1.78,1.16,4.33.48.61-.16,1.14-.43,1.6-.72.21-.13.63-.46.81-.64.46-.49.44-.4.92-1.12.39-.58.68-1.41.79-2.12.01-.09.05-.49.07-.53v-.64c-.02-.06-.06-.49-.08-.6-.03-.19-.07-.37-.12-.55-.22-.82-.63-1.55-1.16-2.18-.7-.83-1.77-1.53-2.89-1.81-.19-.05-.35-.08-.55-.12-.1-.02-.54-.05-.59-.08h-.67s-.43.06-.52.07c-.44.06-1,.21-1.38.39-1.06.48-1.92,1.15-2.55,2.14-.28.44-.57,1.02-.72,1.62-.35,1.43-.21,2.6.39,3.91.25.55.3.24.11.82-.05.16-.84,2.53-.9,2.61h0ZM1.44,10.18c.15-.41.33-.97.48-1.41.11-.32.14-.31.03-.46-1.2-1.75-1.09-4.12.26-5.68.43-.5.8-.79,1.4-1.15.5-.3,1.26-.52,1.94-.57,1.62-.12,2.88.55,3.71,1.33,1.59,1.53,1.98,3.96.67,5.99-.19.29-.34.45-.57.7-.3.33-.69.61-1.08.83-1.23.71-2.75.82-4.11.3-.15-.06-.28-.12-.43-.2-.63-.31-.31-.3-.87-.14-.16.05-.32.1-.48.15-.18.06-.82.29-.96.29h0ZM3.87,3.1c.13-.04.21-.02.35-.02.16,0,.2,0,.28.1.09.13.37.85.46,1.05.15.33.03.43-.15.66-.04.04-.04.05-.09.1-.22.23-.18.3.13.72.23.31.44.53.74.76.21.16.73.47.98.54.15.04.2-.02.27-.1.11-.12.45-.57.52-.59.16-.05,1.11.44,1.33.56.11.06.12.1.11.26-.02.46-.18.71-.56.94-.64.4-1.17.2-1.76,0-.87-.3-1.34-.63-1.88-1.15-.43-.42-1.04-1.15-1.29-1.73-.16-.36-.26-.81-.12-1.25.06-.2.15-.36.26-.5.05-.06.13-.16.18-.2.1-.08.1-.09.24-.14Z"/>
  </g>
</svg>